<?xml version="1.0" encoding="utf-8"?>
<!-- Generator: Adobe Illustrator 22.1.0, SVG Export Plug-In . SVG Version: 6.00 Build 0)  -->
<svg version="1.1" id="Слой_1" xmlns="http://www.w3.org/2000/svg" xmlns:xlink="http://www.w3.org/1999/xlink" x="0px" y="0px"
	 viewBox="0 0 102 88.6" style="enable-background:new 0 0 102 88.6;" xml:space="preserve">
<style type="text/css">
	.st0{fill:#F4A00B;}
	.st1{fill:#F1F1F1;}
	.st2{fill:#1A1A1A;}
	.st3{fill:#C0272D;}
	.st4{fill:#FFFFFF;}
	.st5{fill:#E5E5E5;}
</style>
<polygon class="st0" points="74.8,44.5 76.5,42.6 74.5,40.9 75.8,38.6 73.5,37.3 74.4,34.9 72,34 72.4,31.4 69.9,31 69.9,28.4 
	69.9,28.4 67.3,28.4 66.8,25.8 64.2,26.3 63.4,23.8 60.9,24.7 59.6,22.5 57.4,23.8 55.7,21.8 53.7,23.4 51.7,21.8 51.7,21.8 
	51.7,21.8 50,23.8 47.8,22.5 46.5,24.7 44,23.8 43.2,26.3 40.6,25.8 40.1,28.4 37.5,28.4 37.5,31 35,31.4 35.4,34 33,34.9 
	33.9,37.3 31.6,38.6 32.9,40.9 30.9,42.5 32.6,44.5 30.9,46.5 32.9,48.2 31.6,50.5 33.9,51.8 33,54.2 35.4,55.1 35,57.6 37.5,58.1 
	37.5,60.7 40.1,60.7 40.6,63.3 43.2,62.8 44,65.3 46.5,64.4 47.8,66.6 50,65.3 51.7,67.3 53.7,65.6 55.7,67.3 57.4,65.3 59.6,66.6 
	60.9,64.4 63.4,65.3 64.2,62.8 66.8,63.3 67.3,60.7 69.9,60.7 69.9,60.7 69.9,58.1 72.4,57.6 72.4,57.6 72.4,57.6 72,55.1 
	74.4,54.2 74.4,54.2 74.4,54.2 73.5,51.8 75.8,50.5 75.8,50.5 75.8,50.5 74.5,48.2 76.5,46.5 "/>
<ellipse transform="matrix(0.3865 -0.9223 0.9223 0.3865 -8.1363 76.8525)" class="st1" cx="53.7" cy="44.5" rx="20.1" ry="20.1"/>
<path class="st2" d="M72.9,44.5c0,10.6-8.6,19.2-19.2,19.2c-10.6,0-19.2-8.6-19.2-19.2c0-10.6,8.6-19.2,19.2-19.2
	C64.3,25.3,72.9,33.9,72.9,44.5z"/>
<path class="st3" d="M65.2,44.5C65.2,50.9,60,56,53.7,56c-6.3,0-11.5-5.1-11.5-11.5c0-6.3,5.1-11.5,11.5-11.5
	C60,33.1,65.2,38.2,65.2,44.5z"/>
<path class="st1" d="M41.9,50.1c0.1,0.2,0.2,0.4,0.4,0.8c0.2,0.4,0.2,0.7,0.1,1c-0.1,0.2-0.3,0.4-0.5,0.5c-0.3,0.1-0.5,0.1-0.8,0
	c-0.3-0.1-0.6-0.4-0.7-0.8c0-0.1-0.1-0.2-0.1-0.3L39,51.8l-0.2-0.4L41.9,50.1z M40.6,51.1c0,0.1,0,0.2,0.1,0.3
	c0.2,0.5,0.5,0.7,1,0.5c0.4-0.2,0.5-0.5,0.3-1c-0.1-0.2-0.1-0.3-0.2-0.4L40.6,51.1z"/>
<path class="st1" d="M41.4,53.2c0.2-0.1,0.5-0.3,0.6-0.4l0.2,0.3l-0.4,0.3l0,0c0.3-0.1,0.6,0.1,0.8,0.3c0,0,0,0.1,0,0.1L42.3,54
	c0,0,0-0.1-0.1-0.1c-0.2-0.3-0.5-0.3-0.8-0.2c-0.1,0-0.1,0-0.2,0.1l-1.1,0.6L40,54L41.4,53.2z"/>
<path class="st1" d="M42,55.1c-0.5,0.4-0.4,0.8-0.1,1.2c0.2,0.2,0.4,0.4,0.5,0.4L42.2,57c-0.2-0.1-0.4-0.2-0.6-0.5
	c-0.5-0.6-0.4-1.2,0.2-1.7s1.3-0.5,1.7,0.1c0.5,0.6,0.1,1.2-0.3,1.5c-0.1,0.1-0.1,0.1-0.2,0.1L42,55.1z M43,55.9
	c0.2-0.2,0.5-0.5,0.2-0.9c-0.3-0.3-0.7-0.2-1-0.1L43,55.9z"/>
<path class="st1" d="M44,56.5c0.2-0.2,0.3-0.4,0.4-0.5l0.3,0.2l-0.2,0.3l0,0c0.2-0.1,0.6-0.1,0.9,0.1c0.3,0.2,0.3,0.5,0.3,0.8l0,0
	c0.1-0.1,0.3-0.1,0.4-0.1c0.2,0,0.3,0,0.5,0.2c0.3,0.2,0.5,0.6,0,1.3L45.6,60l-0.3-0.3l0.8-1.1c0.3-0.4,0.3-0.7,0-0.9
	c-0.2-0.2-0.5-0.1-0.7,0c-0.1,0-0.1,0.1-0.2,0.2l-0.9,1.2l-0.3-0.3l0.9-1.2c0.2-0.3,0.3-0.6,0-0.8c-0.2-0.2-0.5-0.1-0.7,0
	c-0.1,0-0.1,0.1-0.2,0.2l-0.9,1.2l-0.3-0.3L44,56.5z"/>
<path class="st1" d="M46.7,60.5l1.1-2.2l0.4,0.2l-1.1,2.2L46.7,60.5z M48.5,57.9c-0.1,0.1-0.2,0.2-0.4,0.1C48,58,47.9,57.8,48,57.7
	c0.1-0.1,0.2-0.2,0.4-0.1C48.5,57.6,48.6,57.8,48.5,57.9z"/>
<path class="st1" d="M50.1,61.1c-0.1,0.2-0.1,0.4-0.2,0.6l-0.4-0.1l0.1-0.4l0,0c-0.2,0.2-0.5,0.3-0.9,0.2c-0.4-0.1-0.7-0.5-0.5-1.3
	l0.4-1.3l0.4,0.1l-0.4,1.3c-0.1,0.4-0.1,0.8,0.3,0.9c0.3,0.1,0.5,0,0.7-0.2c0-0.1,0.1-0.1,0.1-0.2l0.4-1.4l0.4,0.1L50.1,61.1z"/>
<path class="st1" d="M51.3,60.3c0-0.3,0-0.5,0-0.7l0.4,0l0,0.4l0,0c0.1-0.2,0.4-0.4,0.8-0.4c0.3,0,0.6,0.2,0.7,0.5h0
	c0.1-0.1,0.2-0.2,0.3-0.3c0.2-0.1,0.3-0.2,0.5-0.1c0.3,0,0.8,0.3,0.7,1.1l-0.1,1.4l-0.4,0l0.1-1.4c0-0.5-0.1-0.8-0.5-0.8
	c-0.2,0-0.5,0.2-0.5,0.4c0,0.1,0,0.1,0,0.2l-0.1,1.5l-0.4,0l0.1-1.4c0-0.4-0.1-0.7-0.5-0.7c-0.3,0-0.5,0.2-0.6,0.4
	c0,0.1,0,0.1,0,0.2l-0.1,1.5l-0.4,0L51.3,60.3z"/>
<path class="st1" d="M59.9,61.5c-0.5,0-0.9,0-1.3,0c-0.1,0-0.1,0-0.2,0c-0.8,0.2-1.6-0.1-1.9-1.2c-0.3-1,0.1-1.9,1-2.2
	c0.9-0.3,1.7,0.2,2,1.2c0.3,0.8,0,1.5-0.4,1.8l0,0c0.3,0,0.7-0.1,1-0.1L59.9,61.5z M58.9,59.5c-0.2-0.6-0.7-1.2-1.4-1
	c-0.7,0.2-0.8,1-0.6,1.7c0.2,0.7,0.8,1.2,1.4,1C59,60.9,59.2,60.2,58.9,59.5z"/>
<path class="st1" d="M62.2,58.9c0.1,0.2,0.2,0.4,0.4,0.6l-0.3,0.2L62,59.3l0,0c0,0.2-0.1,0.6-0.5,0.8c-0.3,0.2-0.8,0.2-1.3-0.5
	l-0.7-1.2l0.4-0.2l0.7,1.1c0.2,0.4,0.5,0.6,0.9,0.4c0.3-0.2,0.3-0.4,0.3-0.6c0-0.1,0-0.1-0.1-0.2L61,57.6l0.4-0.2L62.2,58.9z"/>
<path class="st1" d="M64.5,57.9l-0.2-0.2l0,0c0,0.2-0.1,0.5-0.3,0.8c-0.4,0.3-0.8,0.2-1,0c-0.4-0.4-0.2-1,0.5-1.6l0,0
	c-0.1-0.1-0.4-0.4-0.8-0.1c-0.2,0.1-0.3,0.4-0.3,0.6l-0.3-0.1c0.1-0.2,0.2-0.5,0.4-0.7c0.6-0.5,1-0.2,1.3,0.1l0.6,0.7
	c0.1,0.2,0.3,0.3,0.4,0.4L64.5,57.9z M63.6,57c-0.4,0.3-0.7,0.7-0.4,1.1c0.2,0.2,0.4,0.2,0.6,0c0.2-0.2,0.3-0.5,0.2-0.7
	c0,0,0-0.1-0.1-0.1L63.6,57z"/>
<path class="st1" d="M62.7,54.6l0.3-0.3l2.7,2.3l-0.3,0.3L62.7,54.6z"/>
<path class="st1" d="M64,53.6c0.1,0.1,0.2,0.2,0.1,0.4c-0.1,0.1-0.3,0.1-0.4,0.1c-0.1-0.1-0.2-0.3-0.1-0.4
	C63.7,53.5,63.9,53.5,64,53.6z M66.2,55.8l-2-1.4l0.3-0.4l2,1.4L66.2,55.8z"/>
<path class="st1" d="M64.6,52.7l0.6,0.3l0.3-0.5l0.3,0.2l-0.3,0.5l1.1,0.6c0.3,0.1,0.4,0.2,0.6-0.1c0.1-0.1,0.1-0.2,0.1-0.2l0.3,0.1
	c0,0.1-0.1,0.2-0.1,0.4c-0.1,0.2-0.2,0.3-0.4,0.3c-0.2,0-0.4,0-0.6-0.2l-1.1-0.7l-0.2,0.3l-0.3-0.2l0.2-0.3l-0.5-0.3L64.6,52.7z"/>
<path class="st1" d="M65.8,51.9l1.5,0c0.2,0,0.4,0,0.5,0l0,0c-0.1-0.1-0.3-0.2-0.4-0.3l-1.2-1l0.2-0.4l1.4,1.2
	c0.7,0.6,1,0.9,1.1,1.3C69,53,69,53.3,69,53.4l-0.4,0c0-0.1,0-0.3-0.1-0.4c0-0.1-0.2-0.3-0.3-0.5c0,0-0.1-0.1-0.1-0.1
	c0,0-0.1,0-0.1,0l-2.4,0L65.8,51.9z"/>
<polygon class="st1" points="38.6,42.1 39.3,43.5 40.9,43.8 39.8,44.9 40,46.5 38.6,45.8 37.1,46.5 37.4,44.9 36.2,43.8 37.9,43.5 
	"/>
<polygon class="st1" points="68.9,42.1 69.6,43.5 71.3,43.8 70.1,44.9 70.4,46.5 68.9,45.8 67.4,46.5 67.7,44.9 66.5,43.8 
	68.2,43.5 "/>
<path class="st4" d="M49,37.3h5.9h0.4c0.8,0,1.3-0.1,1.5-0.2s0.4-0.3,0.4-0.6c0-0.1,0-0.1-0.1-0.1c0,0-0.1,0-0.1,0.1
	c-0.1,0.1-0.2,0.1-0.3,0.1c-0.3,0-0.5-0.2-0.5-0.5c0-0.3,0.2-0.5,0.5-0.5c0.3,0,0.5,0.1,0.8,0.4c0.2,0.3,0.3,0.6,0.3,0.9
	c0,0.7-0.3,1.3-1,1.6c-0.6,0.3-1.6,0.5-3,0.5H50v3.8l0.2-0.1c0.2-0.1,0.3-0.2,0.4-0.3v-2.8h3.3h1l1.5-0.2c0.6-0.1,1.1-0.4,1.4-0.9
	c0.4-0.4,0.6-0.9,0.6-1.5c0-0.4-0.1-0.8-0.3-1.2h0.1l0.1,0.1c0.3,0.5,0.4,0.9,0.4,1.3c0,0.8-0.3,1.4-1,1.9c-0.7,0.5-1.6,0.7-2.7,0.7
	h-0.9h-3v2.3c0.7-0.4,1.5-0.6,2.3-0.6c1.6,0,2.9,0.5,3.9,1.4s1.5,2.2,1.5,3.8c0,1.6-0.5,2.8-1.5,3.8S54.7,52,52.9,52
	c-1.5,0-2.7-0.3-3.6-1c-0.9-0.7-1.5-1.6-1.7-2.7l0.1-0.1c1.1-0.5,1.9-1,2.5-1.5c-0.1,0.4-0.1,0.8-0.1,1.2c0,1,0.3,1.8,0.8,2.3
	s1.2,0.8,2.1,0.8c1,0,1.8-0.4,2.4-1.2c0.6-0.8,0.9-1.9,0.9-3.3c0-1.3-0.3-2.3-0.8-3c-0.6-0.7-1.4-1-2.4-1c-1.4,0-2.5,0.6-3.3,1.9
	L49,44.1V37.3z M57.4,42.8c0.7,0.4,1.2,1,1.6,1.8c0.4,0.8,0.6,1.6,0.6,2.5c0,1.8-0.6,3.2-1.7,4.2c-1.1,1.1-2.6,1.6-4.5,1.6
	c-1.2,0-2.3-0.3-3.4-1v-0.1c1.1,0.5,2.2,0.7,3.3,0.7c1.8,0,3.2-0.5,4.3-1.5c1.1-1,1.6-2.4,1.6-4.1C59.2,45.4,58.6,44,57.4,42.8
	L57.4,42.8z M55.7,45l-0.1-0.2c-0.7-0.9-1.5-1.3-2.5-1.3c-0.5,0-1,0.1-1.4,0.3s-0.8,0.6-1.3,1.2l-0.2-0.1c0.7-1.1,1.7-1.6,3-1.6
	C54.4,43.3,55.3,43.9,55.7,45L55.7,45z M51.2,47.1c-0.1,0.4-0.1,0.8-0.1,1.1c0,0.6,0.2,1.1,0.5,1.5s0.8,0.8,1.4,1v0.1
	c-0.7-0.1-1.2-0.4-1.6-0.9s-0.6-1.1-0.6-1.9c0-0.3,0-0.6,0.1-1L51.2,47.1z"/>
<path class="st5" d="M39.6,34.4l2.5,1.8l-0.5,0.7l-1.9-1.4l-0.3,0.4l0.5,0.4c0.7,0.5,1.1,0.9,1,1.5c0,0.1-0.1,0.3-0.2,0.4l-0.6-0.3
	c0.1-0.1,0-0.2,0-0.3c-0.1-0.2-0.4-0.4-0.7-0.6l-1.1-0.8L39.6,34.4z"/>
<path class="st5" d="M42.1,34.3c0.3,0.3,0.7,0.3,0.9,0c0.2-0.2,0.3-0.3,0.3-0.5l0.5,0.3c-0.1,0.2-0.3,0.5-0.5,0.7
	c-0.6,0.6-1.3,0.5-2-0.2c-0.7-0.7-0.7-1.6-0.2-2c0.5-0.5,1.1-0.3,1.7,0.3c0.2,0.2,0.2,0.3,0.3,0.3L42.1,34.3z M42.3,33.4
	c-0.3-0.3-0.6-0.4-0.7-0.3c-0.2,0.2,0,0.5,0.2,0.8L42.3,33.4z"/>
<path class="st5" d="M44.4,30.2l0.4,0.6l-0.6,0.4l1.3,2l-0.7,0.5l-1.3-2L43,32l-0.4-0.6L44.4,30.2z"/>
<path class="st5" d="M49.7,28.2l0.2,0.6L49,29.1l0.6,2.3l-0.8,0.2l-0.8-2.9L49.7,28.2z"/>
<path class="st5" d="M52.9,30.2c0,0.2,0.1,0.5,0.1,0.7l-0.7,0.1l-0.1-0.3l0,0C52,30.9,51.8,31,51.5,31c-0.5,0-0.8-0.3-0.9-0.8
	c-0.1-0.8,0.6-1.2,1.3-1.3l0-0.1c0-0.2-0.2-0.4-0.5-0.4c-0.2,0-0.4,0.1-0.6,0.2l-0.2-0.5c0.2-0.1,0.5-0.3,0.9-0.3
	c0.9-0.1,1.1,0.5,1.2,1.1L52.9,30.2z M52,29.5c-0.3,0-0.6,0.2-0.6,0.6c0,0.3,0.2,0.4,0.3,0.4c0.1,0,0.3-0.1,0.3-0.3c0,0,0-0.1,0-0.1
	L52,29.5z"/>
<path class="st5" d="M53.8,28.8c0-0.4,0-0.7,0.1-1l0.7,0.1l0,0.4l0,0c0.1-0.2,0.4-0.4,0.7-0.3c0.7,0.1,0.9,0.8,0.8,1.6
	C56,30.6,55.5,31,55,31c-0.2,0-0.4-0.2-0.5-0.3l0,0l-0.1,1.4L53.6,32L53.8,28.8z M54.6,29.8c0,0.1,0,0.2,0,0.3
	c0,0.2,0.1,0.2,0.2,0.3c0.3,0,0.4-0.4,0.5-0.9c0-0.6-0.1-0.9-0.3-0.9c-0.1,0-0.3,0.1-0.3,0.2c0,0.1,0,0.1-0.1,0.2L54.6,29.8z"/>
<path class="st5" d="M58.7,31c-0.1,0.2-0.1,0.5-0.1,0.7l-0.7-0.2l0-0.3l0,0c-0.2,0.2-0.5,0.2-0.7,0.2c-0.4-0.1-0.7-0.6-0.5-1.1
	c0.2-0.8,1-0.9,1.6-0.7l0-0.1c0.1-0.2,0-0.4-0.3-0.5c-0.2-0.1-0.4-0.1-0.6,0l0-0.6c0.2,0,0.6-0.1,1,0c0.9,0.2,0.9,0.9,0.7,1.5
	L58.7,31z M58.2,30.1c-0.3-0.1-0.6-0.1-0.8,0.3c-0.1,0.3,0,0.4,0.2,0.5c0.1,0,0.3,0,0.4-0.2c0,0,0-0.1,0.1-0.1L58.2,30.1z"/>
<path class="st5" d="M61.3,29.6l-0.5,1l0.6,0.3l0.5-1l0.7,0.4L61.2,33l-0.7-0.4l0.5-1.1l-0.6-0.3l-0.5,1.1l-0.7-0.4l1.4-2.7
	L61.3,29.6z"/>
<path class="st5" d="M65.2,32.1l-0.4,0.5l-0.5-0.4l-1.4,1.9l-0.7-0.5l1.4-1.9L63,31.3l0.4-0.5L65.2,32.1z"/>
<path class="st5" d="M66.4,33.3L66,33.8c-0.4,0.4-0.8,0.7-1.1,0.9l0,0c0.3-0.1,0.6-0.3,0.9-0.4l1.2-0.4l0.5,0.6l-2.2,2.1L64.7,36
	l0.5-0.5c0.5-0.4,0.7-0.6,1-0.9l0,0c-0.3,0.1-0.5,0.3-0.8,0.4c-0.2,0.1-0.8,0.3-1.2,0.4l-0.5-0.6l2.2-2.1L66.4,33.3z"/>
<path class="st5" d="M68.6,36.1l-0.6,0.3c-0.5,0.3-0.9,0.5-1.2,0.7l0,0c0.3-0.1,0.7-0.1,0.9-0.2l1.2-0.2l0.4,0.7L66.8,39l-0.4-0.6
	L67,38c0.5-0.3,0.8-0.5,1.2-0.7l0,0c-0.3,0.1-0.6,0.1-0.9,0.2c-0.2,0-0.9,0.1-1.3,0.2l-0.4-0.6l2.6-1.6L68.6,36.1z"/>
</svg>
