<?xml version="1.0" encoding="utf-8"?>
<!-- Generator: Adobe Illustrator 22.1.0, SVG Export Plug-In . SVG Version: 6.00 Build 0)  -->
<svg version="1.1" id="Слой_1" xmlns="http://www.w3.org/2000/svg" xmlns:xlink="http://www.w3.org/1999/xlink" x="0px" y="0px"
	 viewBox="0 0 102 88.6" style="enable-background:new 0 0 102 88.6;" xml:space="preserve">
<style type="text/css">
	.st0{fill:#989898;}
	.st1{fill:#F1F1F1;}
	.st2{fill:none;stroke:#0071BB;stroke-width:1.5418;stroke-miterlimit:10;stroke-dasharray:1.5347,1.5347;}
	.st3{clip-path:url(#SVGID_2_);fill:#023A98;}
	.st4{clip-path:url(#SVGID_2_);fill:#F1F1F1;}
	.st5{clip-path:url(#SVGID_2_);fill:#C0272D;}
	.st6{fill:#1A1A1A;}
</style>
<g>
	<g>
		<path class="st0" d="M51.1,21.1c0.6,4.1,1,8.2,1.2,12.2c0.2,4.1,0.3,8.2,0.3,12.2c0,4.1-0.1,8.2-0.3,12.2
			c-0.2,4.1-0.6,8.2-1.2,12.2c-0.6-4.1-1-8.2-1.2-12.2c-0.2-4.1-0.3-8.2-0.3-12.2c0-4.1,0.1-8.2,0.3-12.2
			C50.1,29.2,50.5,25.2,51.1,21.1z"/>
	</g>
	<g>
		<path class="st0" d="M49,21.2c1,4,1.7,8,2.3,12.1c0.6,4,1.1,8.1,1.4,12.2c0.4,4.1,0.6,8.1,0.7,12.2c0.1,4.1,0.2,8.2-0.1,12.3
			c-1-4-1.7-8-2.3-12.1c-0.6-4-1.1-8.1-1.4-12.2c-0.4-4.1-0.6-8.1-0.7-12.2C48.7,29.4,48.7,25.3,49,21.2z"/>
	</g>
	<g>
		<path class="st0" d="M46.9,21.4c1.3,3.9,2.4,7.9,3.3,11.8c0.9,4,1.8,8,2.5,12c0.7,4,1.3,8.1,1.8,12.1c0.5,4.1,0.9,8.1,0.9,12.3
			C54,65.7,53,61.8,52,57.8c-0.9-4-1.8-8-2.5-12c-0.7-4-1.3-8.1-1.8-12.1C47.3,29.6,46.9,25.6,46.9,21.4z"/>
	</g>
	<g>
		<path class="st0" d="M44.8,21.9c1.7,3.8,3,7.6,4.3,11.5c1.3,3.9,2.4,7.8,3.5,11.7c1.1,3.9,2,7.9,2.8,11.9c0.8,4,1.6,8,2,12.1
			c-1.7-3.8-3.1-7.6-4.3-11.5c-1.3-3.9-2.4-7.8-3.5-11.7c-1.1-3.9-2-7.9-2.8-11.9C45.9,30,45.2,26,44.8,21.9z"/>
	</g>
	<g>
		<path class="st0" d="M42.7,22.5c2,3.6,3.7,7.3,5.3,11.1c1.6,3.8,3.1,7.5,4.5,11.4c1.4,3.8,2.7,7.7,3.9,11.6
			c1.2,3.9,2.3,7.9,3.1,11.9c-2-3.6-3.7-7.3-5.3-11.1c-1.6-3.8-3.1-7.5-4.5-11.4c-1.4-3.8-2.7-7.7-3.9-11.6
			C44.6,30.5,43.5,26.6,42.7,22.5z"/>
	</g>
	<g>
		<path class="st0" d="M40.8,23.4c2.3,3.4,4.3,7,6.3,10.6c1.9,3.6,3.8,7.2,5.5,10.9c1.7,3.7,3.3,7.4,4.9,11.2
			c1.5,3.8,2.9,7.6,4.1,11.6c-2.3-3.4-4.3-7-6.3-10.6c-1.9-3.6-3.8-7.2-5.5-10.9c-1.7-3.7-3.3-7.4-4.9-11.2
			C43.3,31.2,41.9,27.3,40.8,23.4z"/>
	</g>
	<g>
		<path class="st0" d="M38.9,24.4c2.6,3.2,4.9,6.6,7.2,10c2.2,3.4,4.4,6.9,6.4,10.4c2,3.5,4,7.1,5.8,10.8c1.8,3.6,3.6,7.3,5.1,11.2
			c-2.6-3.2-4.9-6.6-7.2-10c-2.2-3.4-4.4-6.9-6.4-10.4c-2-3.5-4-7.1-5.8-10.8C42.1,31.9,40.4,28.2,38.9,24.4z"/>
	</g>
	<g>
		<path class="st0" d="M37.1,25.5c2.9,3,5.5,6.1,8,9.3c2.5,3.2,5,6.5,7.3,9.8c2.3,3.3,4.6,6.7,6.7,10.2c2.2,3.5,4.2,7,6,10.7
			c-2.9-3-5.5-6.1-8-9.3c-2.5-3.2-5-6.5-7.3-9.8c-2.3-3.3-4.6-6.7-6.7-10.2C41,32.7,38.9,29.2,37.1,25.5z"/>
	</g>
	<g>
		<path class="st0" d="M35.4,26.8c3.1,2.7,6,5.6,8.8,8.6c2.8,3,5.5,6,8.1,9.2c2.6,3.1,5.2,6.3,7.6,9.6c2.4,3.3,4.8,6.6,6.9,10.1
			c-3.1-2.7-6-5.6-8.8-8.6c-2.8-3-5.5-6-8.1-9.2c-2.6-3.1-5.2-6.3-7.6-9.6C39.9,33.7,37.5,30.3,35.4,26.8z"/>
	</g>
	<g>
		<path class="st0" d="M33.8,28.2c3.3,2.4,6.5,5.1,9.5,7.8c3,2.7,6,5.5,8.9,8.4c2.9,2.9,5.7,5.8,8.4,8.9c2.7,3,5.4,6.2,7.8,9.5
			c-3.3-2.4-6.5-5.1-9.5-7.8c-3-2.7-6-5.5-8.9-8.4c-2.9-2.9-5.7-5.9-8.4-8.9C38.9,34.7,36.2,31.6,33.8,28.2z"/>
	</g>
	<g>
		<path class="st0" d="M32.4,29.8c3.5,2.1,6.9,4.5,10.1,6.9c3.3,2.4,6.5,5,9.6,7.6c3.1,2.6,6.2,5.3,9.2,8.1c3,2.8,5.9,5.7,8.6,8.8
			c-3.5-2.1-6.9-4.5-10.1-6.9c-3.3-2.5-6.5-5-9.6-7.6c-3.1-2.6-6.2-5.3-9.2-8.1C38,35.8,35.1,32.9,32.4,29.8z"/>
	</g>
	<g>
		<path class="st0" d="M31.1,31.5c3.7,1.8,7.2,3.9,10.7,6c3.5,2.2,6.9,4.4,10.2,6.7c3.3,2.3,6.6,4.8,9.8,7.3c3.2,2.5,6.4,5.1,9.3,8
			c-3.7-1.8-7.2-3.9-10.7-6c-3.5-2.2-6.9-4.4-10.2-6.7c-3.3-2.3-6.6-4.8-9.8-7.3C37.2,37,34,34.4,31.1,31.5z"/>
	</g>
	<g>
		<path class="st0" d="M29.9,33.3c3.9,1.5,7.5,3.2,11.2,5.1c3.6,1.8,7.2,3.8,10.8,5.8c3.5,2,7,4.2,10.4,6.4c3.4,2.2,6.8,4.6,10,7.2
			c-3.9-1.5-7.6-3.2-11.2-5.1c-3.6-1.8-7.2-3.8-10.8-5.8c-3.5-2-7-4.2-10.4-6.4C36.5,38.2,33.1,35.9,29.9,33.3z"/>
	</g>
	<g>
		<path class="st0" d="M28.9,35.2c4,1.1,7.8,2.6,11.6,4.1c3.8,1.5,7.5,3.1,11.2,4.9c3.7,1.7,7.3,3.6,10.9,5.5
			c3.6,1.9,7.2,4,10.6,6.3c-4-1.1-7.8-2.6-11.6-4.1c-3.8-1.5-7.5-3.1-11.2-4.9c-3.7-1.7-7.3-3.6-10.9-5.5
			C35.9,39.5,32.4,37.5,28.9,35.2z"/>
	</g>
	<g>
		<path class="st0" d="M28.1,37.2c4.1,0.8,8,1.9,11.9,3.1c3.9,1.2,7.8,2.5,11.6,3.9c3.8,1.4,7.6,2.9,11.4,4.5
			c3.8,1.6,7.5,3.3,11.1,5.3c-4.1-0.8-8-1.9-11.9-3.1c-3.9-1.2-7.8-2.5-11.6-3.9c-3.8-1.4-7.6-2.9-11.4-4.5
			C35.4,40.9,31.7,39.2,28.1,37.2z"/>
	</g>
	<g>
		<path class="st0" d="M27.5,39.2c4.1,0.4,8.1,1.2,12.1,2c4,0.8,8,1.8,11.9,2.8c3.9,1,7.8,2.2,11.7,3.5c3.9,1.3,7.7,2.7,11.5,4.3
			c-4.1-0.4-8.1-1.2-12.1-2c-4-0.8-8-1.8-11.9-2.8c-3.9-1.1-7.8-2.2-11.7-3.5C35.1,42.3,31.2,40.9,27.5,39.2z"/>
	</g>
	<g>
		<path class="st0" d="M27,41.3c4.1,0.1,8.2,0.5,12.3,0.9c4.1,0.5,8.1,1.1,12.1,1.8c4,0.7,8,1.5,12,2.5c4,0.9,7.9,2,11.8,3.3
			c-4.1-0.1-8.2-0.5-12.3-0.9c-4.1-0.5-8.1-1.1-12.1-1.8c-4-0.7-8-1.5-12-2.5C34.9,43.7,30.9,42.6,27,41.3z"/>
	</g>
	<g>
		<path class="st0" d="M26.7,43.4c4.1-0.3,8.2-0.3,12.3-0.1c4.1,0.1,8.2,0.4,12.2,0.7c4.1,0.3,8.1,0.8,12.2,1.4
			c4,0.6,8.1,1.3,12.1,2.3c-4.1,0.3-8.2,0.3-12.3,0.1c-4.1-0.1-8.2-0.4-12.2-0.7c-4.1-0.4-8.1-0.8-12.2-1.4
			C34.8,45.1,30.7,44.4,26.7,43.4z"/>
	</g>
	<g>
		<path class="st0" d="M26.6,45.5c4.1-0.6,8.2-1,12.2-1.2C43,44.1,47,44,51.1,44c4.1,0,8.2,0.1,12.2,0.3c4.1,0.2,8.2,0.6,12.2,1.2
			c-4.1,0.6-8.2,1-12.2,1.2c-4.1,0.2-8.2,0.3-12.2,0.3c-4.1,0-8.2-0.1-12.2-0.3C34.8,46.5,30.7,46.2,26.6,45.5z"/>
	</g>
	<g>
		<path class="st0" d="M26.7,47.7c4-1,8-1.7,12.1-2.3c4-0.6,8.1-1.1,12.2-1.4c4.1-0.4,8.1-0.6,12.2-0.7c4.1-0.1,8.2-0.2,12.3,0.1
			c-4,1-8,1.7-12.1,2.3c-4,0.6-8.1,1.1-12.2,1.4c-4.1,0.4-8.1,0.6-12.2,0.7C34.9,47.9,30.9,48,26.7,47.7z"/>
	</g>
	<g>
		<path class="st0" d="M27,49.8c3.9-1.3,7.9-2.4,11.8-3.3c4-0.9,8-1.8,12-2.5c4-0.7,8.1-1.3,12.1-1.8c4.1-0.5,8.1-0.9,12.3-0.9
			c-3.9,1.3-7.9,2.4-11.8,3.3c-4,0.9-8,1.8-12,2.5c-4,0.7-8.1,1.3-12.1,1.8C35.2,49.3,31.1,49.7,27,49.8z"/>
	</g>
	<g>
		<path class="st0" d="M27.5,51.9c3.8-1.7,7.6-3,11.5-4.3c3.9-1.3,7.8-2.4,11.7-3.5c3.9-1.1,7.9-2,11.9-2.8c4-0.8,8-1.6,12.1-2
			c-3.8,1.7-7.6,3.1-11.5,4.3c-3.9,1.3-7.8,2.4-11.7,3.5c-3.9,1.1-7.9,2-11.9,2.8C35.6,50.7,31.6,51.4,27.5,51.9z"/>
	</g>
	<g>
		<path class="st0" d="M28.1,53.9c3.6-2,7.3-3.7,11.1-5.3c3.8-1.6,7.5-3.1,11.4-4.5c3.8-1.4,7.7-2.7,11.6-3.9
			c3.9-1.2,7.9-2.3,11.9-3.1c-3.6,2-7.3,3.7-11.1,5.3c-3.8,1.6-7.5,3.1-11.4,4.5c-3.8,1.4-7.7,2.7-11.6,3.9
			C36.1,52,32.2,53.1,28.1,53.9z"/>
	</g>
	<g>
		<path class="st0" d="M28.9,55.9c3.4-2.3,7-4.3,10.6-6.3c3.6-1.9,7.2-3.8,10.9-5.5c3.7-1.7,7.4-3.3,11.2-4.9
			c3.8-1.5,7.6-2.9,11.6-4.1c-3.4,2.3-7,4.3-10.6,6.3c-3.6,1.9-7.2,3.8-10.9,5.5c-3.7,1.7-7.4,3.3-11.2,4.9
			C36.7,53.3,32.9,54.7,28.9,55.9z"/>
	</g>
	<g>
		<path class="st0" d="M29.9,57.8c3.2-2.6,6.6-4.9,10-7.2c3.4-2.2,6.9-4.4,10.4-6.4c3.5-2,7.1-4,10.8-5.8c3.6-1.8,7.3-3.6,11.2-5.1
			c-3.2,2.6-6.6,4.9-10,7.2c-3.4,2.2-6.9,4.4-10.4,6.4c-3.5,2-7.1,4-10.8,5.8C37.5,54.5,33.8,56.3,29.9,57.8z"/>
	</g>
	<g>
		<path class="st0" d="M31.1,59.6c3-2.9,6.1-5.5,9.3-8c3.2-2.5,6.5-5,9.8-7.3c3.3-2.3,6.7-4.6,10.2-6.7c3.5-2.2,7-4.2,10.7-6
			c-3,2.9-6.1,5.5-9.3,8c-3.2,2.5-6.5,5-9.8,7.3c-3.3,2.3-6.7,4.6-10.2,6.7C38.3,55.7,34.8,57.8,31.1,59.6z"/>
	</g>
	<g>
		<path class="st0" d="M32.4,61.3c2.7-3.1,5.6-6,8.6-8.8c3-2.8,6-5.5,9.2-8.1c3.1-2.6,6.3-5.2,9.6-7.6c3.3-2.4,6.6-4.8,10.1-6.9
			c-2.7,3.1-5.6,6-8.6,8.8c-3,2.8-6,5.5-9.2,8.1c-3.1,2.6-6.3,5.2-9.6,7.6C39.2,56.8,35.9,59.1,32.4,61.3z"/>
	</g>
	<g>
		<path class="st0" d="M33.8,62.8c2.4-3.3,5.1-6.5,7.8-9.5c2.7-3,5.5-6,8.4-8.9c2.9-2.9,5.8-5.7,8.9-8.4c3-2.7,6.2-5.4,9.5-7.8
			c-2.4,3.3-5.1,6.5-7.8,9.5c-2.7,3-5.5,6-8.4,8.9c-2.9,2.9-5.9,5.7-8.9,8.4C40.3,57.8,37.1,60.4,33.8,62.8z"/>
	</g>
	<g>
		<path class="st0" d="M35.4,64.3c2.1-3.5,4.5-6.9,6.9-10.1c2.4-3.3,5-6.5,7.6-9.6c2.6-3.1,5.3-6.2,8.1-9.2c2.8-3,5.7-5.9,8.8-8.6
			c-2.1,3.5-4.5,6.9-6.9,10.1c-2.5,3.3-5,6.5-7.6,9.6c-2.6,3.1-5.3,6.2-8.1,9.2C41.4,58.7,38.5,61.6,35.4,64.3z"/>
	</g>
	<g>
		<path class="st0" d="M37.1,65.6c1.8-3.7,3.9-7.2,6-10.7c2.2-3.5,4.4-6.9,6.7-10.2c2.3-3.3,4.8-6.6,7.3-9.8c2.5-3.2,5.1-6.4,8-9.3
			c-1.8,3.7-3.9,7.2-6,10.7c-2.2,3.5-4.4,6.9-6.7,10.2c-2.3,3.3-4.8,6.6-7.3,9.8C42.5,59.5,39.9,62.6,37.1,65.6z"/>
	</g>
	<g>
		<path class="st0" d="M38.9,66.7c1.5-3.9,3.2-7.5,5.1-11.2c1.8-3.6,3.8-7.2,5.8-10.8c2-3.5,4.2-7,6.4-10.4c2.2-3.4,4.6-6.8,7.2-10
			c-1.5,3.9-3.2,7.6-5.1,11.2c-1.8,3.6-3.8,7.2-5.8,10.8c-2,3.5-4.2,7-6.4,10.4C43.8,60.2,41.5,63.5,38.9,66.7z"/>
	</g>
	<g>
		<path class="st0" d="M40.8,67.7c1.1-4,2.6-7.8,4.1-11.6c1.5-3.8,3.1-7.5,4.9-11.2c1.7-3.7,3.6-7.3,5.5-10.9
			c1.9-3.6,4-7.2,6.3-10.6c-1.1,4-2.6,7.8-4.1,11.6c-1.5,3.8-3.1,7.5-4.9,11.2c-1.7,3.7-3.6,7.3-5.5,10.9
			C45.1,60.7,43.1,64.3,40.8,67.7z"/>
	</g>
	<g>
		<path class="st0" d="M42.7,68.5c0.8-4.1,1.9-8,3.1-11.9c1.2-3.9,2.5-7.8,3.9-11.6c1.4-3.8,2.9-7.6,4.5-11.4
			c1.6-3.8,3.3-7.5,5.3-11.1c-0.8,4.1-1.9,8-3.1,11.9c-1.2,3.9-2.5,7.8-3.9,11.6c-1.4,3.8-2.9,7.6-4.5,11.4
			C46.4,61.2,44.7,64.9,42.7,68.5z"/>
	</g>
	<g>
		<path class="st0" d="M44.8,69.2c0.4-4.1,1.2-8.1,2-12.1c0.8-4,1.8-8,2.8-11.9c1-3.9,2.2-7.8,3.5-11.7c1.3-3.9,2.7-7.7,4.3-11.5
			C57,26,56.3,30,55.4,34c-0.8,4-1.8,8-2.8,11.9c-1.1,3.9-2.2,7.8-3.5,11.7C47.8,61.6,46.4,65.4,44.8,69.2z"/>
	</g>
	<g>
		<path class="st0" d="M46.9,69.6c0.1-4.1,0.5-8.2,0.9-12.3c0.5-4.1,1.1-8.1,1.8-12.1c0.7-4,1.5-8,2.5-12c0.9-4,2-7.9,3.3-11.8
			c-0.1,4.1-0.5,8.2-0.9,12.3c-0.5,4.1-1.1,8.1-1.8,12.1c-0.7,4-1.5,8-2.5,12C49.2,61.8,48.2,65.7,46.9,69.6z"/>
	</g>
	<g>
		<path class="st0" d="M49,69.9c-0.3-4.1-0.3-8.2-0.1-12.3c0.1-4.1,0.4-8.2,0.7-12.2c0.3-4.1,0.8-8.1,1.4-12.2
			c0.6-4,1.3-8.1,2.3-12.1c0.3,4.1,0.3,8.2,0.1,12.3c-0.1,4.1-0.4,8.2-0.7,12.2c-0.4,4.1-0.8,8.1-1.4,12.2
			C50.7,61.9,50,65.9,49,69.9z"/>
	</g>
	<g>
		<path class="st0" d="M50.2,24.2c0.7,3.5,1.1,7.1,1.5,10.6c0.3,3.5,0.6,7.1,0.7,10.7c0.2,3.6,0.2,7.1,0.2,10.7
			c0,3.6-0.2,7.1-0.6,10.7c-0.7-3.5-1.2-7.1-1.5-10.6c-0.3-3.5-0.6-7.1-0.7-10.7c-0.2-3.6-0.2-7.1-0.2-10.7
			C49.7,31.4,49.8,27.8,50.2,24.2z"/>
	</g>
	<g>
		<path class="st0" d="M48.4,24.4c1,3.5,1.8,6.9,2.4,10.5c0.7,3.5,1.2,7,1.7,10.5c0.5,3.5,0.8,7.1,1.1,10.6
			c0.3,3.6,0.4,7.1,0.3,10.7c-1-3.5-1.8-6.9-2.4-10.5c-0.7-3.5-1.2-7-1.7-10.5c-0.5-3.5-0.8-7.1-1.1-10.6
			C48.4,31.5,48.3,28,48.4,24.4z"/>
	</g>
	<g>
		<path class="st0" d="M46.5,24.7c1.3,3.4,2.4,6.8,3.3,10.2c1,3.4,1.8,6.9,2.6,10.4c0.8,3.5,1.4,7,2,10.5c0.6,3.5,1.1,7.1,1.3,10.7
			c-1.3-3.4-2.4-6.8-3.3-10.2c-1-3.4-1.8-6.9-2.6-10.4c-0.8-3.5-1.4-7-2-10.5C47.2,31.8,46.7,28.3,46.5,24.7z"/>
	</g>
	<g>
		<path class="st0" d="M44.7,25.2c1.6,3.2,2.9,6.5,4.2,9.9c1.3,3.3,2.4,6.7,3.5,10.1c1.1,3.4,2,6.8,2.9,10.3
			c0.9,3.5,1.7,6.9,2.2,10.5c-1.6-3.2-2.9-6.5-4.2-9.9c-1.3-3.3-2.4-6.7-3.5-10.1c-1.1-3.4-2-6.8-2.9-10.3
			C46,32.2,45.3,28.7,44.7,25.2z"/>
	</g>
	<g>
		<path class="st0" d="M43,25.8c1.9,3.1,3.5,6.3,5,9.5c1.5,3.2,3,6.5,4.3,9.8c1.4,3.3,2.6,6.6,3.8,10c1.2,3.4,2.3,6.8,3.1,10.3
			c-1.9-3.1-3.5-6.3-5-9.5c-1.5-3.2-3-6.5-4.3-9.8c-1.4-3.3-2.6-6.6-3.8-10C44.9,32.7,43.8,29.3,43,25.8z"/>
	</g>
	<g>
		<path class="st0" d="M41.3,26.6c2.1,2.9,4,5.9,5.8,9c1.8,3.1,3.5,6.2,5.2,9.3c1.6,3.2,3.2,6.4,4.7,9.6c1.5,3.2,2.8,6.5,4,10
			c-2.1-2.9-4-5.9-5.8-9c-1.8-3.1-3.5-6.2-5.2-9.3c-1.6-3.2-3.2-6.4-4.7-9.6C43.8,33.3,42.4,30,41.3,26.6z"/>
	</g>
	<g>
		<path class="st0" d="M39.7,27.5c2.4,2.7,4.5,5.6,6.6,8.5c2.1,2.9,4.1,5.8,6,8.9c1.9,3,3.7,6.1,5.5,9.2c1.7,3.1,3.4,6.3,4.8,9.6
			c-2.4-2.7-4.5-5.6-6.6-8.4c-2.1-2.9-4.1-5.8-6-8.9c-1.9-3-3.7-6.1-5.5-9.2C42.8,34,41.1,30.8,39.7,27.5z"/>
	</g>
	<g>
		<path class="st0" d="M38.1,28.6c2.6,2.5,5,5.1,7.3,7.8c2.3,2.7,4.6,5.5,6.7,8.3c2.2,2.8,4.2,5.7,6.3,8.7c2,2.9,3.9,6,5.7,9.1
			c-2.6-2.5-5-5.1-7.3-7.8c-2.3-2.7-4.6-5.5-6.7-8.3c-2.2-2.8-4.2-5.7-6.3-8.7C41.8,34.8,39.9,31.7,38.1,28.6z"/>
	</g>
	<g>
		<path class="st0" d="M36.7,29.8c2.8,2.3,5.4,4.7,8,7.2c2.5,2.5,5,5.1,7.4,7.7c2.4,2.6,4.7,5.3,7,8.1c2.3,2.8,4.4,5.6,6.4,8.6
			c-2.8-2.2-5.4-4.7-8-7.2c-2.5-2.5-5-5.1-7.4-7.7c-2.4-2.6-4.7-5.3-7-8.1C40.9,35.6,38.7,32.8,36.7,29.8z"/>
	</g>
	<g>
		<path class="st0" d="M35.4,31.1c3,2,5.8,4.2,8.6,6.5c2.8,2.3,5.4,4.6,8.1,7c2.6,2.4,5.2,4.9,7.7,7.4c2.5,2.6,4.9,5.2,7.2,8
			c-3-2-5.8-4.2-8.6-6.5c-2.8-2.3-5.4-4.6-8.1-7c-2.6-2.4-5.2-4.9-7.7-7.4C40.1,36.5,37.6,33.9,35.4,31.1z"/>
	</g>
	<g>
		<path class="st0" d="M34.2,32.5c3.2,1.7,6.2,3.7,9.1,5.7c2.9,2,5.8,4.1,8.6,6.3c2.8,2.2,5.6,4.4,8.3,6.7c2.7,2.3,5.3,4.7,7.8,7.3
			c-3.2-1.7-6.2-3.7-9.1-5.7c-2.9-2-5.8-4.1-8.6-6.3c-2.8-2.2-5.6-4.4-8.3-6.7C39.3,37.5,36.7,35.1,34.2,32.5z"/>
	</g>
	<g>
		<path class="st0" d="M33.1,34c3.3,1.4,6.5,3.1,9.6,4.9c3.1,1.8,6.2,3.6,9.2,5.5c3,1.9,5.9,3.9,8.8,6c2.9,2.1,5.7,4.2,8.4,6.6
			c-3.3-1.4-6.5-3.1-9.6-4.9c-3.1-1.8-6.2-3.6-9.2-5.5c-3-1.9-5.9-3.9-8.8-6C38.7,38.6,35.8,36.4,33.1,34z"/>
	</g>
	<g>
		<path class="st0" d="M32.2,35.7c3.4,1.2,6.7,2.5,9.9,4c3.2,1.5,6.4,3,9.6,4.7c3.2,1.6,6.3,3.4,9.3,5.2c3.1,1.8,6.1,3.7,9,5.9
			c-3.4-1.2-6.7-2.5-9.9-4c-3.2-1.5-6.4-3-9.6-4.7c-3.2-1.6-6.3-3.4-9.3-5.2C38.1,39.7,35.1,37.8,32.2,35.7z"/>
	</g>
	<g>
		<path class="st0" d="M31.4,37.3c3.5,0.9,6.9,2,10.3,3.1c3.4,1.2,6.7,2.5,10,3.8c3.3,1.4,6.5,2.8,9.7,4.4c3.2,1.5,6.4,3.2,9.5,5.1
			c-3.5-0.8-6.9-1.9-10.3-3.1c-3.4-1.2-6.7-2.5-10-3.8c-3.3-1.4-6.5-2.8-9.7-4.4C37.6,40.9,34.5,39.2,31.4,37.3z"/>
	</g>
	<g>
		<path class="st0" d="M30.8,39.1c3.6,0.5,7,1.3,10.5,2.2c3.5,0.9,6.9,1.9,10.3,2.9c3.4,1.1,6.8,2.2,10.1,3.5
			c3.3,1.3,6.6,2.6,9.9,4.2c-3.6-0.5-7-1.3-10.5-2.2c-3.5-0.9-6.9-1.9-10.3-2.9c-3.4-1.1-6.8-2.2-10.1-3.5
			C37.3,42.1,34,40.7,30.8,39.1z"/>
	</g>
	<g>
		<path class="st0" d="M30.3,40.9c3.6,0.2,7.1,0.7,10.6,1.3c3.5,0.6,7,1.3,10.5,2c3.5,0.8,6.9,1.6,10.4,2.6c3.4,1,6.8,2,10.2,3.4
			c-3.6-0.2-7.1-0.7-10.6-1.3c-3.5-0.6-7-1.3-10.5-2c-3.5-0.8-6.9-1.7-10.4-2.6C37,43.3,33.6,42.2,30.3,40.9z"/>
	</g>
	<g>
		<path class="st0" d="M29.9,42.7c3.6-0.1,7.2,0.1,10.7,0.4c3.6,0.3,7.1,0.6,10.6,1.1c3.5,0.5,7,1,10.5,1.7c3.5,0.7,7,1.4,10.4,2.4
			c-3.6,0.1-7.2-0.1-10.7-0.4c-3.6-0.3-7.1-0.6-10.6-1.1c-3.5-0.5-7-1-10.5-1.7C36.9,44.5,33.4,43.7,29.9,42.7z"/>
	</g>
	<g>
		<path class="st0" d="M29.8,44.6c3.6-0.4,7.1-0.5,10.7-0.6c3.6,0,7.1,0,10.7,0.2c3.6,0.2,7.1,0.4,10.7,0.8
			c3.5,0.4,7.1,0.8,10.6,1.5c-3.6,0.4-7.1,0.5-10.7,0.6c-3.6,0-7.1,0-10.7-0.2c-3.6-0.2-7.1-0.4-10.7-0.8
			C36.8,45.7,33.3,45.3,29.8,44.6z"/>
	</g>
	<g>
		<path class="st0" d="M29.8,46.4c3.5-0.7,7.1-1.1,10.6-1.5c3.5-0.3,7.1-0.6,10.7-0.7C54.6,44,58.2,44,61.7,44
			c3.6,0,7.1,0.2,10.7,0.6c-3.5,0.7-7.1,1.2-10.6,1.5c-3.5,0.3-7.1,0.6-10.7,0.7C47.6,47,44,47.1,40.5,47
			C36.9,47,33.4,46.9,29.8,46.4z"/>
	</g>
	<g>
		<path class="st0" d="M29.9,48.3c3.5-1,6.9-1.8,10.5-2.4c3.5-0.7,7-1.2,10.5-1.7c3.5-0.5,7.1-0.8,10.6-1.1
			c3.6-0.3,7.1-0.4,10.7-0.3c-3.5,1-6.9,1.8-10.5,2.4c-3.5,0.7-7,1.2-10.5,1.7c-3.5,0.5-7.1,0.8-10.6,1.1
			C37.1,48.2,33.5,48.4,29.9,48.3z"/>
	</g>
	<g>
		<path class="st0" d="M30.3,50.1c3.4-1.3,6.8-2.4,10.2-3.3c3.4-1,6.9-1.8,10.4-2.6c3.5-0.8,7-1.4,10.5-2c3.5-0.6,7.1-1.1,10.7-1.3
			c-3.4,1.3-6.8,2.4-10.2,3.3c-3.4,1-6.9,1.8-10.4,2.6c-3.5,0.8-7,1.4-10.5,2C37.4,49.4,33.9,49.9,30.3,50.1z"/>
	</g>
	<g>
		<path class="st0" d="M30.7,51.9c3.2-1.6,6.5-2.9,9.9-4.2c3.3-1.3,6.7-2.4,10.1-3.5c3.4-1.1,6.8-2,10.3-2.9
			c3.5-0.9,6.9-1.7,10.5-2.2c-3.2,1.6-6.5,2.9-9.9,4.2c-3.3,1.3-6.7,2.4-10.1,3.5c-3.4,1.1-6.8,2-10.3,2.9
			C37.8,50.6,34.3,51.4,30.7,51.9z"/>
	</g>
	<g>
		<path class="st0" d="M31.4,53.7c3.1-1.9,6.3-3.5,9.5-5c3.2-1.5,6.5-3,9.8-4.3c3.3-1.4,6.6-2.6,10-3.8c3.4-1.2,6.8-2.3,10.3-3.1
			c-3.1,1.9-6.3,3.5-9.5,5c-3.2,1.5-6.5,3-9.8,4.3c-3.3,1.4-6.6,2.6-10,3.8C38.3,51.8,34.9,52.8,31.4,53.7z"/>
	</g>
	<g>
		<path class="st0" d="M32.2,55.4c2.9-2.1,5.9-4,9-5.8c3.1-1.8,6.2-3.5,9.3-5.2c3.2-1.6,6.4-3.2,9.6-4.7c3.2-1.5,6.5-2.8,10-4
			c-2.9,2.1-5.9,4-9,5.8c-3.1,1.8-6.2,3.5-9.3,5.2c-3.2,1.6-6.4,3.2-9.6,4.7C38.9,52.9,35.6,54.2,32.2,55.4z"/>
	</g>
	<g>
		<path class="st0" d="M33.1,57c2.7-2.4,5.6-4.5,8.5-6.6c2.9-2.1,5.8-4.1,8.9-6c3-1.9,6.1-3.7,9.2-5.5c3.1-1.7,6.3-3.4,9.6-4.8
			c-2.7,2.4-5.6,4.5-8.4,6.6c-2.9,2.1-5.8,4.1-8.9,6c-3,1.9-6.1,3.7-9.2,5.5C39.5,53.9,36.4,55.6,33.1,57z"/>
	</g>
	<g>
		<path class="st0" d="M34.2,58.5c2.5-2.6,5.1-5,7.8-7.3c2.7-2.3,5.5-4.6,8.3-6.7c2.8-2.2,5.7-4.2,8.7-6.3c2.9-2,6-3.9,9.1-5.7
			c-2.5,2.6-5.1,5-7.8,7.3c-2.7,2.3-5.5,4.6-8.3,6.7c-2.8,2.2-5.7,4.2-8.7,6.2C40.3,54.9,37.3,56.8,34.2,58.5z"/>
	</g>
	<g>
		<path class="st0" d="M35.3,59.9c2.3-2.8,4.7-5.4,7.2-8c2.5-2.5,5.1-5,7.7-7.4c2.6-2.4,5.3-4.7,8.1-7c2.8-2.3,5.6-4.4,8.6-6.4
			c-2.2,2.8-4.7,5.4-7.2,8c-2.5,2.5-5.1,5-7.7,7.4c-2.6,2.4-5.3,4.7-8.1,7C41.2,55.8,38.3,58,35.3,59.9z"/>
	</g>
	<g>
		<path class="st0" d="M36.7,61.3c2-3,4.2-5.8,6.5-8.6c2.3-2.8,4.6-5.4,7-8.1c2.4-2.6,4.9-5.2,7.4-7.7c2.6-2.5,5.2-4.9,8-7.2
			c-2,3-4.2,5.8-6.5,8.6c-2.3,2.8-4.6,5.4-7,8.1c-2.4,2.6-4.9,5.2-7.4,7.7C42.1,56.6,39.5,59,36.7,61.3z"/>
	</g>
	<g>
		<path class="st0" d="M38.1,62.5c1.7-3.2,3.7-6.2,5.7-9.1c2-2.9,4.1-5.8,6.3-8.6c2.2-2.8,4.4-5.6,6.7-8.3c2.3-2.7,4.7-5.3,7.3-7.8
			c-1.7,3.2-3.7,6.2-5.7,9.1c-2,2.9-4.1,5.8-6.3,8.6c-2.2,2.8-4.4,5.6-6.7,8.3C43.1,57.3,40.7,60,38.1,62.5z"/>
	</g>
	<g>
		<path class="st0" d="M39.6,63.5c1.4-3.3,3.1-6.5,4.9-9.6c1.8-3.1,3.6-6.2,5.5-9.2c1.9-3,3.9-5.9,6-8.8c2.1-2.9,4.2-5.7,6.6-8.4
			c-1.4,3.3-3.1,6.5-4.9,9.6c-1.8,3.1-3.6,6.2-5.5,9.2c-1.9,3-3.9,5.9-6,8.8C44.2,58,42,60.8,39.6,63.5z"/>
	</g>
	<g>
		<path class="st0" d="M41.2,64.5c1.2-3.4,2.5-6.7,4-9.9c1.5-3.2,3-6.4,4.7-9.6c1.6-3.2,3.4-6.3,5.2-9.3c1.8-3.1,3.7-6.1,5.9-9
			c-1.2,3.4-2.5,6.7-4,9.9c-1.5,3.2-3,6.4-4.7,9.6c-1.6,3.2-3.4,6.3-5.2,9.3C45.3,58.6,43.4,61.6,41.2,64.5z"/>
	</g>
	<g>
		<path class="st0" d="M42.9,65.3c0.9-3.5,2-6.9,3.1-10.3c1.2-3.4,2.5-6.7,3.8-10c1.4-3.3,2.8-6.5,4.4-9.7c1.5-3.2,3.2-6.4,5.1-9.5
			c-0.8,3.5-1.9,6.9-3.1,10.3c-1.2,3.4-2.5,6.7-3.8,10c-1.4,3.3-2.8,6.5-4.4,9.7C46.4,59,44.8,62.2,42.9,65.3z"/>
	</g>
	<g>
		<path class="st0" d="M44.7,65.9c0.5-3.6,1.3-7,2.2-10.5c0.9-3.5,1.9-6.9,2.9-10.3c1.1-3.4,2.2-6.8,3.5-10.1
			c1.3-3.3,2.6-6.6,4.2-9.9c-0.5,3.6-1.3,7-2.2,10.5c-0.9,3.5-1.9,6.9-2.9,10.3c-1.1,3.4-2.2,6.8-3.5,10.1
			C47.6,59.4,46.3,62.7,44.7,65.9z"/>
	</g>
	<g>
		<path class="st0" d="M46.5,66.4c0.2-3.6,0.7-7.1,1.3-10.6c0.6-3.5,1.3-7,2-10.5c0.8-3.5,1.6-6.9,2.6-10.4c1-3.4,2-6.8,3.4-10.2
			c-0.2,3.6-0.7,7.1-1.3,10.6c-0.6,3.5-1.3,7-2,10.5c-0.8,3.5-1.7,6.9-2.6,10.4C48.8,59.6,47.8,63,46.5,66.4z"/>
	</g>
	<g>
		<path class="st0" d="M48.3,66.7c-0.1-3.6,0.1-7.2,0.4-10.7c0.3-3.6,0.6-7.1,1.1-10.6c0.5-3.5,1-7,1.7-10.5c0.7-3.5,1.4-7,2.4-10.4
			c0.1,3.6-0.1,7.2-0.4,10.7c-0.3,3.6-0.6,7.1-1.1,10.6c-0.5,3.5-1,7-1.7,10.5C50.1,59.8,49.3,63.3,48.3,66.7z"/>
	</g>
	<g>
		<path class="st0" d="M50.1,66.9c-0.4-3.6-0.5-7.1-0.6-10.7c0-3.6,0-7.1,0.2-10.7c0.2-3.6,0.4-7.1,0.8-10.7
			c0.4-3.5,0.8-7.1,1.5-10.6c0.4,3.6,0.5,7.1,0.6,10.7c0,3.6,0,7.1-0.2,10.7c-0.2,3.6-0.4,7.1-0.8,10.7
			C51.3,59.8,50.9,63.3,50.1,66.9z"/>
	</g>
	<path class="st1" d="M70.1,45.5c0,10.5-8.5,19-19,19c-10.5,0-19-8.5-19-19c0-10.5,8.5-19,19-19C61.6,26.6,70.1,35.1,70.1,45.5z"/>
	<g>
		<path class="st2" d="M68.7,45.5c0,9.7-7.9,17.6-17.6,17.6s-17.6-7.9-17.6-17.6c0-9.7,7.9-17.6,17.6-17.6S68.7,35.8,68.7,45.5z"/>
	</g>
	<g>
		<defs>
			<path id="SVGID_1_" d="M60.2,45.5c0,5-4.1,9.1-9.1,9.1c-5,0-9.1-4.1-9.1-9.1c0-5,4.1-9.1,9.1-9.1C56.1,36.4,60.2,40.5,60.2,45.5z
				"/>
		</defs>
		<clipPath id="SVGID_2_">
			<use xlink:href="#SVGID_1_"  style="overflow:visible;"/>
		</clipPath>
		<rect x="42" y="31.7" class="st3" width="6.1" height="27.6"/>
		<rect x="48.1" y="31.7" class="st4" width="6.1" height="27.6"/>
		<rect x="54.1" y="31.7" class="st5" width="6.1" height="27.6"/>
	</g>
	<path class="st6" d="M41.2,52.7l0.7,0.9l-0.2,0.1L41.2,53l-0.6,0.4l0.5,0.6l-0.2,0.1l-0.5-0.6l-0.8,0.6l-0.2-0.2L41.2,52.7z"/>
	<path class="st6" d="M41,55.8l0.1-0.1l0,0c-0.1,0-0.3,0-0.5-0.2c-0.2-0.2-0.2-0.5,0-0.6c0.3-0.2,0.6-0.1,1,0.3l0,0
		c0.1-0.1,0.2-0.3,0-0.5c-0.1-0.1-0.2-0.2-0.4-0.2l0.1-0.2c0.1,0,0.3,0.1,0.4,0.3c0.3,0.3,0.2,0.6-0.1,0.8l-0.4,0.4
		c-0.1,0.1-0.2,0.2-0.3,0.3L41,55.8z M41.6,55.2c-0.2-0.2-0.5-0.4-0.7-0.2c-0.1,0.1-0.1,0.3,0,0.4c0.1,0.1,0.3,0.2,0.4,0.1
		c0,0,0.1,0,0.1,0L41.6,55.2z"/>
	<path class="st6" d="M41.6,56.4c0.1-0.1,0.2-0.2,0.3-0.3l1.2-1.4l0.2,0.2l-0.6,0.7l0,0c0.2-0.1,0.4,0,0.6,0.1c0.3,0.2,0.3,0.6,0,1
		c-0.3,0.4-0.8,0.4-1,0.2c-0.2-0.1-0.2-0.3-0.2-0.5l0,0l-0.2,0.2L41.6,56.4z M42.2,56.1C42.2,56.1,42.2,56.1,42.2,56.1
		c-0.1,0.3-0.1,0.5,0.1,0.6c0.2,0.2,0.5,0.1,0.7-0.2c0.2-0.2,0.2-0.5,0-0.7c-0.1-0.1-0.4-0.1-0.5,0c0,0-0.1,0-0.1,0.1L42.2,56.1z"/>
	<path class="st6" d="M43.7,56.7c0.1-0.1,0.2-0.3,0.3-0.4l0.2,0.1L44,56.7l0,0c0.2-0.1,0.4-0.1,0.5,0c0,0,0,0,0.1,0.1l-0.1,0.2
		c0,0,0,0-0.1-0.1c-0.2-0.1-0.4-0.1-0.5,0.1c0,0-0.1,0.1-0.1,0.1l-0.4,0.7l-0.2-0.1L43.7,56.7z"/>
	<path class="st6" d="M44.1,58.2l0.7-1.3l0.2,0.1l-0.7,1.3L44.1,58.2z M45.3,56.7c0,0.1-0.1,0.1-0.2,0.1c-0.1,0-0.1-0.1-0.1-0.2
		c0-0.1,0.1-0.1,0.2-0.1C45.4,56.5,45.4,56.6,45.3,56.7z"/>
	<path class="st6" d="M46,58.8L46,58.8c-0.1,0.1-0.3,0.1-0.6,0c-0.3-0.1-0.5-0.5-0.3-1c0.2-0.5,0.7-0.6,1-0.5
		c0.2,0.1,0.3,0.3,0.3,0.4l0,0l0.1-0.2l0.2,0.1c-0.1,0.1-0.1,0.2-0.2,0.4l-0.7,1.6l-0.3-0.1L46,58.8z M46.2,58.2c0,0,0-0.1,0-0.1
		c0-0.2,0-0.4-0.2-0.4c-0.3-0.1-0.5,0-0.7,0.4c-0.1,0.3-0.1,0.6,0.2,0.7c0.2,0.1,0.3,0,0.5-0.1c0,0,0.1-0.1,0.1-0.1L46.2,58.2z"/>
	<path class="st6" d="M48.1,59.3c0,0.2-0.1,0.3-0.1,0.4l-0.2-0.1l0.1-0.2l0,0c-0.1,0.1-0.3,0.2-0.6,0.1c-0.2-0.1-0.5-0.3-0.3-0.8
		l0.2-0.9l0.3,0.1l-0.2,0.8c-0.1,0.3,0,0.5,0.2,0.6c0.2,0,0.3,0,0.4-0.1c0,0,0-0.1,0.1-0.1l0.2-0.9l0.3,0.1L48.1,59.3z"/>
	<path class="st6" d="M48.9,59.2c0,0.4,0.2,0.6,0.4,0.6c0.2,0,0.3,0,0.4,0l0,0.2c-0.1,0-0.3,0.1-0.5,0c-0.5-0.1-0.7-0.4-0.6-0.9
		s0.4-0.8,0.8-0.7c0.5,0.1,0.6,0.5,0.5,0.8c0,0.1,0,0.1,0,0.1L48.9,59.2z M49.7,59.1c0-0.2,0-0.5-0.3-0.5c-0.3,0-0.4,0.2-0.5,0.4
		L49.7,59.1z M50,57.8l-0.4,0.4l-0.2,0l0.3-0.4L50,57.8z"/>
	<path class="st6" d="M51.3,59.4c0,0.4,0.3,0.5,0.5,0.5c0.2,0,0.3,0,0.4-0.1l0.1,0.2c-0.1,0-0.3,0.1-0.5,0.1c-0.5,0-0.8-0.3-0.8-0.7
		c0-0.5,0.2-0.8,0.7-0.8c0.5,0,0.6,0.4,0.7,0.7c0,0.1,0,0.1,0,0.1L51.3,59.4z M52.1,59.1c0-0.2-0.1-0.4-0.4-0.4
		c-0.3,0-0.4,0.3-0.4,0.5L52.1,59.1z"/>
	<path class="st6" d="M52.7,58.9c0-0.2-0.1-0.3-0.1-0.4l0.2,0l0.1,0.2l0,0c0-0.2,0.2-0.3,0.4-0.4c0.2,0,0.5,0,0.6,0.5l0.2,0.9
		l-0.3,0l-0.1-0.9c0-0.2-0.2-0.4-0.4-0.4c-0.2,0-0.3,0.2-0.3,0.3c0,0,0,0.1,0,0.1l0.2,0.9l-0.3,0L52.7,58.9z"/>
	<path class="st6" d="M54.8,57.4l1.1-0.4l0.1,0.2l-0.8,0.3l0.2,0.7l0.7-0.3l0.1,0.2l-0.7,0.3l0.3,0.9l-0.3,0.1L54.8,57.4z"/>
	<path class="st6" d="M56.5,57.8c-0.1-0.2-0.1-0.3-0.2-0.4l0.2-0.1l0.1,0.3l0,0c0-0.2,0.1-0.4,0.2-0.5c0,0,0,0,0.1,0l0.1,0.2
		c0,0-0.1,0-0.1,0c-0.2,0.1-0.2,0.3-0.2,0.5c0,0,0,0.1,0,0.1l0.4,0.7L57,58.8L56.5,57.8z"/>
	<path class="st6" d="M58.7,57.8l-0.1-0.2l0,0c0,0.1-0.1,0.3-0.3,0.4c-0.3,0.2-0.5,0.1-0.6-0.1c-0.2-0.3,0-0.7,0.5-1l0,0
		c-0.1-0.1-0.2-0.3-0.5-0.1c-0.1,0.1-0.2,0.2-0.3,0.3L57.3,57c0.1-0.1,0.2-0.3,0.4-0.4c0.4-0.2,0.7,0,0.8,0.2l0.3,0.5
		c0.1,0.1,0.1,0.2,0.2,0.3L58.7,57.8z M58.3,57.2c-0.3,0.2-0.5,0.4-0.4,0.6c0.1,0.2,0.2,0.2,0.4,0.1c0.2-0.1,0.2-0.3,0.2-0.4
		c0,0,0-0.1,0-0.1L58.3,57.2z"/>
	<path class="st6" d="M58.8,56.4c-0.1-0.1-0.2-0.2-0.3-0.3l0.2-0.2l0.2,0.2l0,0c0-0.2,0-0.4,0.2-0.5c0.2-0.1,0.5-0.2,0.8,0.2
		l0.6,0.7l-0.2,0.2L59.7,56c-0.2-0.2-0.4-0.3-0.6-0.1C59,56,59,56.2,59,56.3c0,0,0,0.1,0.1,0.1l0.6,0.7l-0.2,0.2L58.8,56.4z"/>
	<path class="st6" d="M61.6,55.2c0,0.1-0.1,0.2-0.2,0.4c-0.3,0.3-0.7,0.3-1.1,0c-0.3-0.3-0.4-0.8,0-1.1c0.1-0.1,0.2-0.2,0.3-0.2
		l0.1,0.2c-0.1,0-0.2,0.1-0.3,0.2c-0.2,0.3-0.2,0.6,0,0.8c0.3,0.2,0.6,0.2,0.8,0c0.1-0.1,0.1-0.2,0.2-0.3L61.6,55.2z"/>
	<path class="st6" d="M61.5,54.3c0.3,0.2,0.6,0.1,0.7-0.1c0.1-0.2,0.2-0.3,0.2-0.4l0.2,0.1c0,0.1-0.1,0.3-0.2,0.5
		c-0.3,0.4-0.7,0.4-1.1,0.1c-0.4-0.3-0.5-0.7-0.2-1.1c0.3-0.4,0.7-0.2,0.9-0.1c0,0,0.1,0.1,0.1,0.1L61.5,54.3z M61.8,53.6
		c-0.1-0.1-0.4-0.2-0.6,0c-0.2,0.2,0,0.5,0.1,0.6L61.8,53.6z"/>
	<path class="st6" d="M41.2,36.1c-0.3-0.2-0.7-0.5-0.9-0.8l0,0c0.2,0.3,0.4,0.6,0.6,1l0.7,1.3l-0.2,0.2L40,37.2
		c-0.4-0.2-0.7-0.3-1-0.5l0,0c0.3,0.2,0.6,0.6,0.9,0.9l0.8,0.9l-0.2,0.3l-2-2l0.3-0.3l1.3,0.6c0.3,0.1,0.6,0.3,0.9,0.4l0,0
		c-0.2-0.2-0.3-0.5-0.5-0.9l-0.7-1.3l0.3-0.3l2.2,1.8l-0.2,0.3L41.2,36.1z"/>
	<path class="st6" d="M43.7,35.7l-0.2-0.2l0,0c0,0.2-0.1,0.4-0.3,0.6c-0.3,0.2-0.7,0.1-0.8-0.1c-0.3-0.4-0.1-0.9,0.5-1.3l0,0
		c-0.1-0.1-0.3-0.3-0.6-0.1c-0.2,0.1-0.3,0.3-0.3,0.4l-0.2-0.1c0.1-0.2,0.2-0.4,0.4-0.5c0.5-0.4,0.9-0.1,1.1,0.2l0.5,0.6
		c0.1,0.1,0.2,0.3,0.3,0.4L43.7,35.7z M43,34.9c-0.3,0.2-0.7,0.6-0.4,0.9c0.1,0.2,0.3,0.2,0.5,0.1c0.2-0.2,0.2-0.4,0.2-0.6
		c0,0,0-0.1-0.1-0.1L43,34.9z"/>
	<path class="st6" d="M44.5,31.8l1.1,2.2c0.1,0.2,0.2,0.3,0.3,0.5l-0.3,0.2l-0.2-0.3l0,0c0,0.3-0.1,0.5-0.4,0.7
		c-0.4,0.2-1,0-1.2-0.5c-0.3-0.6-0.1-1.2,0.3-1.4c0.3-0.1,0.5-0.1,0.7,0l0,0L44.2,32L44.5,31.8z M45,33.6c0,0-0.1-0.1-0.1-0.1
		c-0.2-0.2-0.4-0.3-0.7-0.1c-0.3,0.2-0.4,0.6-0.2,1c0.2,0.4,0.5,0.6,0.9,0.4c0.2-0.1,0.3-0.4,0.3-0.6c0-0.1,0-0.1-0.1-0.1L45,33.6z"
		/>
	<path class="st6" d="M46.2,33.3c0.2,0.5,0.5,0.6,0.9,0.4c0.3-0.1,0.4-0.2,0.5-0.3l0.1,0.2c-0.1,0.1-0.3,0.2-0.6,0.3
		c-0.6,0.2-1.1-0.1-1.3-0.7c-0.2-0.6,0-1.1,0.6-1.3c0.6-0.2,1,0.3,1.1,0.6c0,0.1,0,0.1,0,0.2L46.2,33.3z M47.1,32.7
		c-0.1-0.2-0.3-0.5-0.7-0.4c-0.4,0.1-0.4,0.5-0.3,0.7L47.1,32.7z"/>
	<path class="st6" d="M49.1,30.9c0,0.1-0.1,0.2-0.2,0.3c-0.1,0-0.2-0.1-0.3-0.2c0-0.1,0.1-0.2,0.2-0.3C49,30.7,49.1,30.8,49.1,30.9z
		 M49.1,33.6l-0.3-2l0.4-0.1l0.3,2L49.1,33.6z"/>
	<path class="st6" d="M49.9,31.9c0-0.2,0-0.4,0-0.5l0.3,0l0,0.3h0c0.1-0.2,0.3-0.4,0.7-0.4c0.3,0,0.7,0.1,0.7,0.8l0,1.2l-0.4,0
		l0-1.2c0-0.3-0.1-0.6-0.5-0.6c-0.2,0-0.4,0.2-0.5,0.4c0,0,0,0.1,0,0.2l0,1.2l-0.4,0L49.9,31.9z"/>
	<path class="st6" d="M53.5,30.7L55,31L55,31.3l-1.1-0.2L53.6,32l1,0.2l-0.1,0.3l-1-0.2l-0.2,1.3L53,33.5L53.5,30.7z"/>
	<path class="st6" d="M55.2,32.6c0.1-0.2,0.1-0.4,0.2-0.6l0.3,0.1l-0.1,0.4l0,0c0.2-0.2,0.4-0.3,0.7-0.3c0,0,0.1,0,0.1,0l-0.1,0.3
		c0,0-0.1,0-0.1-0.1c-0.2-0.1-0.5,0.1-0.6,0.3c0,0,0,0.1-0.1,0.2l-0.3,1l-0.3-0.1L55.2,32.6z"/>
	<path class="st6" d="M57,34.8l0.1-0.2l0,0c-0.2,0.1-0.4,0.1-0.7,0C56,34.4,55.9,34,56,33.7c0.2-0.4,0.7-0.5,1.4-0.2l0,0
		c0.1-0.2,0.2-0.4-0.2-0.6c-0.2-0.1-0.4-0.1-0.5-0.1l0-0.3c0.2,0,0.4,0,0.7,0.1c0.6,0.3,0.5,0.7,0.4,1.1l-0.3,0.7
		c-0.1,0.2-0.1,0.3-0.2,0.5L57,34.8z M57.3,33.8c-0.4-0.2-0.8-0.3-1,0.1c-0.1,0.2,0,0.4,0.2,0.5c0.2,0.1,0.5,0,0.6-0.1
		c0,0,0.1-0.1,0.1-0.1L57.3,33.8z"/>
	<path class="st6" d="M58.5,33.9c0.1-0.2,0.2-0.3,0.3-0.5l0.3,0.2l-0.2,0.3l0,0c0.2-0.1,0.5-0.1,0.8,0.1c0.2,0.2,0.5,0.5,0.1,1.1
		l-0.7,1l-0.3-0.2l0.6-1c0.2-0.3,0.2-0.6-0.1-0.8c-0.2-0.1-0.5-0.1-0.6,0c0,0-0.1,0.1-0.1,0.1l-0.7,1l-0.3-0.2L58.5,33.9z"/>
	<path class="st6" d="M60.6,37.3c-0.1,0-0.3-0.1-0.5-0.3c-0.5-0.4-0.5-1,0-1.4c0.4-0.5,1-0.5,1.5-0.1c0.2,0.1,0.3,0.3,0.3,0.4
		l-0.3,0.2c0-0.1-0.1-0.2-0.3-0.4c-0.3-0.3-0.8-0.2-1,0.1c-0.3,0.3-0.3,0.8,0,1c0.2,0.1,0.3,0.2,0.4,0.2L60.6,37.3z"/>
	<path class="st6" d="M61.6,37.1c-0.4,0.3-0.3,0.7-0.1,1c0.2,0.2,0.3,0.3,0.4,0.4l-0.2,0.2c-0.1-0.1-0.3-0.2-0.5-0.4
		c-0.4-0.5-0.3-1,0.2-1.4c0.5-0.4,1.1-0.4,1.5,0c0.4,0.5,0.1,1-0.2,1.3c-0.1,0-0.1,0.1-0.1,0.1L61.6,37.1z M62.5,37.8
		c0.2-0.1,0.4-0.5,0.1-0.8c-0.2-0.3-0.6-0.2-0.8-0.1L62.5,37.8z"/>
	<polygon class="st6" points="37.4,44.1 37.9,45 38.9,45.2 38.1,45.9 38.3,47 37.4,46.5 36.4,47 36.6,45.9 35.8,45.2 36.9,45 	"/>
	<polygon class="st6" points="64.8,44.1 65.3,45 66.4,45.2 65.6,45.9 65.8,47 64.8,46.5 63.9,47 64.1,45.9 63.3,45.2 64.4,45 	"/>
</g>
</svg>
