<svg id="Слой_1" data-name="Слой 1" xmlns="http://www.w3.org/2000/svg" xmlns:xlink="http://www.w3.org/1999/xlink" viewBox="0 0 21.17 21.12"><defs><style>.cls-1{fill:url(#radial-gradient);}.cls-2{fill:#fff;}</style><radialGradient id="radial-gradient" cx="46.22" cy="50.15" r="21.34" gradientUnits="userSpaceOnUse"><stop offset="0" stop-color="#ffd676"/><stop offset="0.25" stop-color="#f2a454"/><stop offset="0.38" stop-color="#f05c3c"/><stop offset="0.7" stop-color="#c22f86"/><stop offset="0.96" stop-color="#6666ad"/><stop offset="0.99" stop-color="#5c6cb2"/></radialGradient></defs><title>insta</title><path class="cls-1" d="M61.23,45.58a4.61,4.61,0,0,1-4.6,4.62h-12a4.61,4.61,0,0,1-4.6-4.62V33.71a4.61,4.61,0,0,1,4.6-4.63h12a4.61,4.61,0,0,1,4.6,4.63Z" transform="translate(-40.07 -29.08)"/><path class="cls-2" d="M53.82,47.85H47.48a4.8,4.8,0,0,1-4.8-4.8V36.28a4.8,4.8,0,0,1,4.8-4.8h6.34a4.8,4.8,0,0,1,4.8,4.8v6.77A4.8,4.8,0,0,1,53.82,47.85ZM47.48,33.21a3.08,3.08,0,0,0-3.07,3.07v6.77a3.08,3.08,0,0,0,3.07,3.07h6.34a3.08,3.08,0,0,0,3.07-3.07V36.28a3.08,3.08,0,0,0-3.07-3.07Z" transform="translate(-40.07 -29.08)"/><path class="cls-2" d="M50.65,44.19a4.55,4.55,0,0,1-4.55-4.55,4.66,4.66,0,0,1,1.39-3.3,4.4,4.4,0,0,1,3.19-1.25,4.66,4.66,0,0,1,3.38,1.39,4.39,4.39,0,0,1,1.14,3.19h0a4.65,4.65,0,0,1-1.35,3.18A4.44,4.44,0,0,1,50.65,44.19Zm-.1-7a2.29,2.29,0,0,0-1.58.65,2.51,2.51,0,0,0-.75,1.78,2.43,2.43,0,1,0,4.86,0,2.23,2.23,0,0,0-2.46-2.41Z" transform="translate(-40.07 -29.08)"/><circle class="cls-2" cx="14.88" cy="6.25" r="0.98"/></svg>