<svg id="Слой_1" data-name="Слой 1" xmlns="http://www.w3.org/2000/svg" viewBox="0 0 28.12 21.09"><defs><style>.cls-1{fill:#ececec;}</style></defs><title>mail</title><path class="cls-1" d="M61.66,50.69a3.44,3.44,0,0,1-.45,1.69l-8.88-9.93,8.79-7.69a3.5,3.5,0,0,1,.54,1.87ZM47.6,44.25,59.82,33.56a3.38,3.38,0,0,0-1.67-.44H37.06a3.35,3.35,0,0,0-1.67.44ZM51,43.6l-2.83,2.48a.86.86,0,0,1-1.15,0L44.2,43.6l-9,10.06a3.43,3.43,0,0,0,1.85.54H58.15A3.45,3.45,0,0,0,60,53.66ZM34.09,34.76a3.5,3.5,0,0,0-.55,1.87V50.69A3.44,3.44,0,0,0,34,52.38l8.87-9.94Zm0,0" transform="translate(-33.54 -33.12)"/></svg>