<svg id="Слой_1" data-name="Слой 1" xmlns="http://www.w3.org/2000/svg" viewBox="0 0 21.12 21.12"><defs><style>.cls-1{fill:#7b519d;}.cls-2{fill:#fff;}</style></defs><title>viber</title><g id="g4780"><path id="rect2987" class="cls-1" d="M42.93,28.08H58.77a2.64,2.64,0,0,1,2.64,2.64V46.56a2.64,2.64,0,0,1-2.64,2.64H42.93a2.64,2.64,0,0,1-2.64-2.64V30.72A2.64,2.64,0,0,1,42.93,28.08Z" transform="translate(-40.29 -28.08)"/><g id="g15"><path id="path17-6" class="cls-2" d="M57.7,42.33c-.51-.4-1-.77-1.57-1.14-1.06-.74-2-.8-2.81.4a1.22,1.22,0,0,1-1.71.4,7.58,7.58,0,0,1-4-3.87A1.49,1.49,0,0,1,48.12,36,1.48,1.48,0,0,0,49,34.72a8.79,8.79,0,0,0-2.94-4,1.55,1.55,0,0,0-1,0,2.88,2.88,0,0,0-2,4.1,21.31,21.31,0,0,0,11.8,11.86,5.82,5.82,0,0,0,.84.23,3.83,3.83,0,0,0,3.15-2.39c.41-1.16-.46-1.62-1.14-2.17Z" transform="translate(-40.29 -28.08)"/><path id="path19-1" class="cls-2" d="M51.52,31.28c4,.61,5.89,2.53,6.4,6.59,0,.38-.09.94.44,1s.43-.54.43-.92a7.67,7.67,0,0,0-7.16-7.5c-.29,0-.89-.2-.93.45,0,.45.48.37.82.43Z" transform="translate(-40.29 -28.08)"/><path id="path21-2" class="cls-2" d="M52.3,32.39c-.38,0-.9-.23-1,.31s.48.5.85.59c2.49.55,3.35,1.46,3.76,3.93.06.36-.06.92.56.83.45-.07.28-.55.32-.83a5.08,5.08,0,0,0-4.5-4.83Z" transform="translate(-40.29 -28.08)"/><path id="path23" class="cls-2" d="M52.53,34.33c-.26,0-.51,0-.61.31s.16.51.47.56A1.81,1.81,0,0,1,54.05,37c0,.28.2.5.47.47s.4-.37.39-.68a2.68,2.68,0,0,0-2.38-2.44Z" transform="translate(-40.29 -28.08)"/></g></g></svg>