<?xml version="1.0" encoding="UTF-8" standalone="no"?>
<!-- Generator: Adobe Illustrator 22.1.0, SVG Export Plug-In . SVG Version: 6.00 Build 0)  -->

<svg
   xmlns:dc="http://purl.org/dc/elements/1.1/"
   xmlns:cc="http://creativecommons.org/ns#"
   xmlns:rdf="http://www.w3.org/1999/02/22-rdf-syntax-ns#"
   xmlns:svg="http://www.w3.org/2000/svg"
   xmlns="http://www.w3.org/2000/svg"
   xmlns:sodipodi="http://sodipodi.sourceforge.net/DTD/sodipodi-0.dtd"
   xmlns:inkscape="http://www.inkscape.org/namespaces/inkscape"
   version="1.1"
   id="Слой_1"
   x="0px"
   y="0px"
   viewBox="0 0 23.946342 23.842494"
   xml:space="preserve"
   sodipodi:docname="viber_header.svg"
   width="23.946342"
   height="23.842493"
   inkscape:version="0.92.3 (2405546, 2018-03-11)"><metadata
   id="metadata30"><rdf:RDF><cc:Work
       rdf:about=""><dc:format>image/svg+xml</dc:format><dc:type
         rdf:resource="http://purl.org/dc/dcmitype/StillImage" /><dc:title></dc:title></cc:Work></rdf:RDF></metadata><defs
   id="defs28" /><sodipodi:namedview
   pagecolor="#ffffff"
   bordercolor="#666666"
   borderopacity="1"
   objecttolerance="10"
   gridtolerance="10"
   guidetolerance="10"
   inkscape:pageopacity="0"
   inkscape:pageshadow="2"
   inkscape:window-width="1920"
   inkscape:window-height="1017"
   id="namedview26"
   showgrid="false"
   fit-margin-top="0"
   fit-margin-left="0"
   fit-margin-right="0"
   fit-margin-bottom="0"
   inkscape:zoom="10.202312"
   inkscape:cx="86.417564"
   inkscape:cy="18.741361"
   inkscape:window-x="-8"
   inkscape:window-y="-8"
   inkscape:window-maximized="1"
   inkscape:current-layer="Слой_1" />
<style
   type="text/css"
   id="style21">
	.st0{fill:#B1B1B1;}
</style>
<path
   class="st0"
   d="M 21.08973,0 H 2.963962 C 1.2539839,0 0,1.3624281 0,2.9519277 V 20.890566 c 0,1.703036 1.3679825,2.951928 2.963962,2.951928 h 18.011769 c 1.709978,0 2.963962,-1.362428 2.963962,-2.951928 V 2.9519277 C 24.053692,1.2488925 22.685709,0 21.08973,0 Z m -8.207895,2.6113206 c 4.445943,0.1135357 8.207895,4.2008198 8.207895,8.5151764 0,0.454142 0.113998,1.021821 -0.455994,1.021821 -0.569993,0 -0.455994,-0.681214 -0.455994,-1.021821 -0.569993,-4.6549636 -2.735965,-6.8121415 -7.295907,-7.4933556 -0.341996,-0.1135357 -0.911988,0 -0.911988,-0.4541424 -0.113999,-0.7947497 0.569992,-0.5676784 0.911988,-0.5676784 z m 5.585928,8.6287114 c -0.683991,0.113536 -0.569992,-0.567678 -0.683991,-0.908285 -0.455994,-2.8383925 -1.481981,-3.8602136 -4.331944,-4.427892 -0.455994,-0.1135357 -1.025987,0 -0.911989,-0.6812141 0.113999,-0.5676784 0.683992,-0.4541427 1.139986,-0.340607 2.849963,0.340607 5.129934,2.838392 5.129934,5.4497131 0,0.340607 0.113999,0.908285 -0.341996,0.908285 z M 16.643787,9.7640681 c 0,0.3406079 0,0.6812149 -0.455994,0.7947499 -0.341996,0 -0.455995,-0.227071 -0.569993,-0.5676784 -0.113999,-1.1353569 -0.683991,-1.816571 -1.937975,-2.0436424 -0.341996,0 -0.683991,-0.1135356 -0.569993,-0.681214 0.113999,-0.3406071 0.341996,-0.3406071 0.683991,-0.3406071 1.367983,0.1135357 2.849964,1.5894995 2.849964,2.838392 z m 4.445943,8.8557849 c -0.455994,1.362428 -2.165972,2.724856 -3.647953,2.724856 -0.227998,0 -0.569993,-0.113536 -0.911989,-0.227071 C 10.259869,18.392781 5.699927,13.96489 3.0779606,7.6068902 c -0.9119883,-2.1571779 0,-3.9737488 2.2799708,-4.6549625 0.3419956,-0.1135357 0.7979898,-0.1135357 1.1399854,0 0.9119883,0.340607 3.3059576,3.6331414 3.3059576,4.5414268 0,0.7947498 -0.4559941,1.1353568 -1.0259868,1.4759639 -0.9119883,0.6812141 -0.9119883,1.4759646 -0.5699927,2.3842496 0.9119883,2.043643 2.5079681,3.519607 4.5599411,4.427893 0.683992,0.340607 1.481981,0.340607 1.937976,-0.454143 0.911988,-1.362428 2.051973,-1.248892 3.191959,-0.454143 0.569992,0.454143 1.253984,0.79475 1.823976,1.248893 0.911989,0.681214 1.823977,1.135357 1.367983,2.497785 z"
   id="path23"
   inkscape:connector-curvature="0"
   style="fill:#b1b1b1;stroke-width:1.13766873" />
</svg>