<svg id="Слой_1" data-name="Слой 1" xmlns="http://www.w3.org/2000/svg" viewBox="0 0 21.09 21.09"><defs><style>.cls-1{fill:#4f76a2;}.cls-1,.cls-2{fill-rule:evenodd;}.cls-2{fill:#fff;}</style></defs><title>vk</title><path class="cls-1" d="M57.68,30.12a3.25,3.25,0,0,1,3.25,3.24V48a3.25,3.25,0,0,1-3.25,3.25H43.09A3.24,3.24,0,0,1,39.84,48V33.36a3.24,3.24,0,0,1,3.25-3.24Z" transform="translate(-39.84 -30.12)"/><path class="cls-2" d="M55.16,40.84a19.06,19.06,0,0,0,2-3.42c.06-.3-.07-.47-.38-.47H55.19a.58.58,0,0,0-.6.39,14,14,0,0,1-1.89,3c-.34.38-.51.49-.69.49s-.22-.13-.22-.46V37.4c0-.41,0-.54-.38-.54H48.87a.28.28,0,0,0-.31.27c0,.39.59.47.59,1.52v2.16c0,.44,0,.6-.23.6-.54,0-1.83-1.87-2.56-4-.14-.43-.3-.56-.71-.56H44.07a.38.38,0,0,0-.4.39c0,.42.49,2.38,2.44,5A6,6,0,0,0,50.67,45c.94,0,1.17-.15,1.17-.55V43.06c0-.34.13-.49.33-.49s.6.07,1.49,1c1.06,1,1.14,1.43,1.72,1.43h1.77c.18,0,.35-.08.35-.38a4.3,4.3,0,0,0-1.32-2c-.32-.43-.85-.9-1-1.12s-.17-.4,0-.66Z" transform="translate(-39.84 -30.12)"/></svg>