<?xml version="1.0" encoding="UTF-8" standalone="no"?>
<!-- Generator: Adobe Illustrator 22.1.0, SVG Export Plug-In . SVG Version: 6.00 Build 0)  -->

<svg
   xmlns:dc="http://purl.org/dc/elements/1.1/"
   xmlns:cc="http://creativecommons.org/ns#"
   xmlns:rdf="http://www.w3.org/1999/02/22-rdf-syntax-ns#"
   xmlns:svg="http://www.w3.org/2000/svg"
   xmlns="http://www.w3.org/2000/svg"
   xmlns:sodipodi="http://sodipodi.sourceforge.net/DTD/sodipodi-0.dtd"
   xmlns:inkscape="http://www.inkscape.org/namespaces/inkscape"
   version="1.1"
   id="Слой_1"
   x="0px"
   y="0px"
   viewBox="0 0 23.964071 23.958237"
   xml:space="preserve"
   sodipodi:docname="watsapp.svg"
   width="23.964071"
   height="23.958237"
   inkscape:version="0.92.3 (2405546, 2018-03-11)"><metadata
   id="metadata3763"><rdf:RDF><cc:Work
       rdf:about=""><dc:format>image/svg+xml</dc:format><dc:type
         rdf:resource="http://purl.org/dc/dcmitype/StillImage" /><dc:title></dc:title></cc:Work></rdf:RDF></metadata><defs
   id="defs3761" /><sodipodi:namedview
   pagecolor="#ffffff"
   bordercolor="#666666"
   borderopacity="1"
   objecttolerance="10"
   gridtolerance="10"
   guidetolerance="10"
   inkscape:pageopacity="0"
   inkscape:pageshadow="2"
   inkscape:window-width="819"
   inkscape:window-height="590"
   id="namedview3759"
   showgrid="false"
   fit-margin-top="0"
   fit-margin-left="0"
   fit-margin-right="0"
   fit-margin-bottom="0"
   inkscape:zoom="6.2127301"
   inkscape:cx="29.853721"
   inkscape:cy="2.6955844"
   inkscape:window-x="224"
   inkscape:window-y="177"
   inkscape:window-maximized="0"
   inkscape:current-layer="Слой_1" />
<style
   type="text/css"
   id="style3750">
	.st0{fill:#B1B1B1;}
</style>
<g
   id="g3756"
   transform="matrix(1.1462863,0,0,1.1463271,-90.556618,-10.316944)">
	<path
   class="st0"
   d="m 89.7,12.5 c -3.7,0 -6.8,3 -6.8,6.7 0,1.5 0.5,2.8 1.3,4 l -0.8,2.5 2.6,-0.8 c 1.1,0.7 2.4,1.1 3.7,1.1 3.7,0 6.8,-3 6.8,-6.7 -0.1,-3.7 -3.1,-6.8 -6.8,-6.8 z m 3.9,9.6 c -0.2,0.5 -1,0.9 -1.3,0.9 -0.4,0 -0.4,0.3 -2.4,-0.5 -2,-0.8 -3.3,-2.8 -3.4,-3 -0.1,-0.1 -0.8,-1.1 -0.8,-2 0,-1 0.5,-1.4 0.7,-1.6 0.2,-0.2 0.4,-0.2 0.5,-0.2 0.1,0 0.3,0 0.4,0 0.1,0 0.3,-0.1 0.4,0.3 0.2,0.4 0.6,1.4 0.6,1.5 0.1,0.1 0.1,0.2 0,0.3 -0.1,0.1 -0.1,0.2 -0.2,0.3 -0.1,0.1 -0.2,0.3 -0.3,0.3 -0.1,0.1 -0.2,0.2 -0.1,0.4 0.1,0.2 0.5,0.8 1.1,1.4 0.8,0.7 1.4,0.9 1.6,1 0.2,0.1 0.3,0.1 0.4,0 0.1,-0.1 0.5,-0.6 0.6,-0.8 0.1,-0.2 0.3,-0.2 0.4,-0.1 0.2,0.1 1.2,0.5 1.4,0.6 0.2,0.1 0.3,0.1 0.4,0.2 0.2,0.1 0.2,0.5 0,1 z"
   id="path3752"
   inkscape:connector-curvature="0"
   style="fill:#b1b1b1" />
	<path
   class="st0"
   d="M 97.4,9 H 81.6 C 80.1,9 79,10.2 79,11.6 v 15.7 c 0,1.5 1.2,2.6 2.6,2.6 h 15.7 c 1.5,0 2.6,-1.2 2.6,-2.6 V 11.6 C 100,10.2 98.8,9 97.4,9 Z m -7.7,18.3 c -1.4,0 -2.8,-0.4 -3.9,-1 l -4.5,1.4 1.5,-4.3 c -0.7,-1.2 -1.2,-2.6 -1.2,-4.1 0,-4.4 3.6,-8 8.1,-8 4.5,0 8.1,3.6 8.1,8 -0.1,4.4 -3.7,8 -8.1,8 z"
   id="path3754"
   inkscape:connector-curvature="0"
   style="fill:#b1b1b1" />
</g>
</svg>