<?xml version="1.0" encoding="utf-8"?>
<!-- Generator: Adobe Illustrator 22.1.0, SVG Export Plug-In . SVG Version: 6.00 Build 0)  -->
<svg version="1.1" id="Слой_1" xmlns="http://www.w3.org/2000/svg" xmlns:xlink="http://www.w3.org/1999/xlink" x="0px" y="0px"
	 viewBox="0 0 173 37.6" style="enable-background:new 0 0 173 37.6;" xml:space="preserve">
<style type="text/css">
	.st0{fill:#B1B1B1;}
</style>
<g>
	<path class="st0" d="M89.7,12.5c-3.7,0-6.8,3-6.8,6.7c0,1.5,0.5,2.8,1.3,4l-0.8,2.5l2.6-0.8c1.1,0.7,2.4,1.1,3.7,1.1
		c3.7,0,6.8-3,6.8-6.7C96.4,15.6,93.4,12.5,89.7,12.5z M93.6,22.1c-0.2,0.5-1,0.9-1.3,0.9c-0.4,0-0.4,0.3-2.4-0.5
		c-2-0.8-3.3-2.8-3.4-3c-0.1-0.1-0.8-1.1-0.8-2c0-1,0.5-1.4,0.7-1.6c0.2-0.2,0.4-0.2,0.5-0.2s0.3,0,0.4,0c0.1,0,0.3-0.1,0.4,0.3
		c0.2,0.4,0.6,1.4,0.6,1.5c0.1,0.1,0.1,0.2,0,0.3s-0.1,0.2-0.2,0.3c-0.1,0.1-0.2,0.3-0.3,0.3c-0.1,0.1-0.2,0.2-0.1,0.4
		c0.1,0.2,0.5,0.8,1.1,1.4c0.8,0.7,1.4,0.9,1.6,1c0.2,0.1,0.3,0.1,0.4,0c0.1-0.1,0.5-0.6,0.6-0.8c0.1-0.2,0.3-0.2,0.4-0.1
		c0.2,0.1,1.2,0.5,1.4,0.6c0.2,0.1,0.3,0.1,0.4,0.2C93.8,21.2,93.8,21.6,93.6,22.1z"/>
	<path class="st0" d="M97.4,9H81.6c-1.5,0-2.6,1.2-2.6,2.6v15.7c0,1.5,1.2,2.6,2.6,2.6h15.7c1.5,0,2.6-1.2,2.6-2.6V11.6
		C100,10.2,98.8,9,97.4,9z M89.7,27.3c-1.4,0-2.8-0.4-3.9-1l-4.5,1.4l1.5-4.3c-0.7-1.2-1.2-2.6-1.2-4.1c0-4.4,3.6-8,8.1-8
		c4.5,0,8.1,3.6,8.1,8C97.7,23.7,94.1,27.3,89.7,27.3z"/>
</g>
</svg>
