<?xml version="1.0" encoding="utf-8"?>
<!-- Generator: Adobe Illustrator 22.1.0, SVG Export Plug-In . SVG Version: 6.00 Build 0)  -->
<svg version="1.1" id="Слой_1" xmlns="http://www.w3.org/2000/svg" xmlns:xlink="http://www.w3.org/1999/xlink" x="0px" y="0px"
	 viewBox="0 0 173 37.6" style="enable-background:new 0 0 173 37.6;" xml:space="preserve">
<style type="text/css">
	.st0{fill:#B1B1B1;}
</style>
<path class="st0" d="M96.8,8.7H80.9c-1.5,0-2.6,1.2-2.6,2.6v15.8c0,1.5,1.2,2.6,2.6,2.6h15.8c1.5,0,2.6-1.2,2.6-2.6V11.3
	C99.4,9.8,98.2,8.7,96.8,8.7z M89.6,11c3.9,0.1,7.2,3.7,7.2,7.5c0,0.4,0.1,0.9-0.4,0.9c-0.5,0-0.4-0.6-0.4-0.9
	c-0.5-4.1-2.4-6-6.4-6.6c-0.3-0.1-0.8,0-0.8-0.4C88.7,10.8,89.3,11,89.6,11z M94.5,18.6c-0.6,0.1-0.5-0.5-0.6-0.8
	c-0.4-2.5-1.3-3.4-3.8-3.9c-0.4-0.1-0.9,0-0.8-0.6c0.1-0.5,0.6-0.4,1-0.3c2.5,0.3,4.5,2.5,4.5,4.8C94.8,18.1,94.9,18.6,94.5,18.6z
	 M92.9,17.3c0,0.3,0,0.6-0.4,0.7c-0.3,0-0.4-0.2-0.5-0.5c-0.1-1-0.6-1.6-1.7-1.8c-0.3,0-0.6-0.1-0.5-0.6c0.1-0.3,0.3-0.3,0.6-0.3
	C91.6,14.9,92.9,16.2,92.9,17.3z M96.8,25.1c-0.4,1.2-1.9,2.4-3.2,2.4c-0.2,0-0.5-0.1-0.8-0.2C87.3,24.9,83.3,21,81,15.4
	c-0.8-1.9,0-3.5,2-4.1c0.3-0.1,0.7-0.1,1,0c0.8,0.3,2.9,3.2,2.9,4c0,0.7-0.4,1-0.9,1.3c-0.8,0.6-0.8,1.3-0.5,2.1
	c0.8,1.8,2.2,3.1,4,3.9c0.6,0.3,1.3,0.3,1.7-0.4c0.8-1.2,1.8-1.1,2.8-0.4c0.5,0.4,1.1,0.7,1.6,1.1C96.4,23.5,97.2,23.9,96.8,25.1z"
	/>
</svg>
