<?xml version="1.0" encoding="utf-8"?>
<!-- Generator: Adobe Illustrator 22.1.0, SVG Export Plug-In . SVG Version: 6.00 Build 0)  -->
<svg version="1.1" id="Слой_1" xmlns="http://www.w3.org/2000/svg" xmlns:xlink="http://www.w3.org/1999/xlink" x="0px" y="0px"
	 viewBox="0 0 173 37.6" style="enable-background:new 0 0 173 37.6;" xml:space="preserve">
<style type="text/css">
	.st0{fill:#F5F5F5;}
</style>
<path class="st0" d="M39.4,23.9h0.3v0.2h-2v-0.2h0.4v-5.6c-0.1,0-0.3,0-0.5,0s-0.4,0.1-0.5,0.2c-0.2,0.1-0.3,0.4-0.4,0.7
	c-0.1,0.3-0.2,0.8-0.2,1.5c0,0.5,0,1,0,1.4s-0.1,0.8-0.2,1.1c-0.1,0.3-0.3,0.5-0.6,0.7C35.3,24,34.9,24,34.4,24v-0.2
	c0.2,0,0.4-0.1,0.5-0.2s0.2-0.3,0.2-0.6c0-0.3,0.1-0.6,0.1-1s0-0.8,0-1.4c0-0.5,0-0.9,0.1-1.2c0.1-0.3,0.2-0.6,0.4-0.9
	c0.2-0.2,0.5-0.4,0.8-0.5c0.3-0.1,0.7-0.2,1.2-0.2c-0.4,0-0.7-0.1-0.8-0.2s-0.3-0.3-0.3-0.6s-0.1-0.6-0.1-1c0-0.4-0.1-0.9-0.2-1.4
	c-0.1-0.3-0.1-0.6-0.2-0.7c-0.1-0.1-0.1-0.2-0.2-0.2c-0.1,0-0.2,0-0.2,0.1s-0.2,0.1-0.3,0.2C35.2,14,35.1,14,35,14
	c-0.1,0-0.2-0.1-0.4-0.2c-0.1-0.1-0.2-0.3-0.1-0.4c0-0.1,0.1-0.3,0.2-0.4s0.2-0.1,0.4-0.2c0.2,0,0.3,0,0.5,0.1
	c0.2,0.1,0.3,0.3,0.5,0.5c0.1,0.3,0.3,0.6,0.4,1.1c0.1,0.6,0.2,1.1,0.2,1.6c0,0.4,0,0.7,0.1,1c0.1,0.3,0.2,0.4,0.4,0.5
	c0.2,0.1,0.5,0.2,1,0.2v-4.8h-0.4v-0.2h2v0.2h-0.3v4.8c0.5,0,0.8-0.1,1-0.2c0.2-0.1,0.3-0.3,0.4-0.5s0.1-0.6,0.1-1
	c0-0.4,0.1-0.9,0.2-1.6c0.1-0.4,0.2-0.8,0.3-1.1c0.2-0.3,0.3-0.4,0.5-0.5c0.2-0.1,0.3-0.1,0.5-0.1c0.2,0,0.3,0.1,0.4,0.2
	c0.1,0.1,0.2,0.2,0.2,0.4c0,0.1,0,0.3-0.1,0.4C42.8,14,42.6,14,42.5,14c-0.1,0-0.2,0-0.3-0.1c-0.1-0.1-0.2-0.1-0.3-0.2
	s-0.2-0.1-0.2-0.1c-0.1,0-0.1,0.1-0.2,0.2s-0.1,0.4-0.2,0.7c-0.1,0.5-0.2,1-0.2,1.4s-0.1,0.8-0.1,1c-0.1,0.3-0.2,0.5-0.3,0.6
	c-0.2,0.1-0.5,0.2-0.9,0.2c0.5,0,0.9,0.1,1.2,0.2c0.3,0.1,0.6,0.3,0.8,0.5c0.2,0.2,0.3,0.5,0.4,0.9c0.1,0.3,0.1,0.7,0.1,1.2
	c0,0.5,0,1,0,1.4s0,0.7,0.1,1c0,0.3,0.1,0.5,0.2,0.6c0.1,0.1,0.3,0.2,0.5,0.2v0.2c-0.5,0-0.9-0.1-1.2-0.2c-0.3-0.1-0.5-0.4-0.6-0.7
	s-0.2-0.6-0.2-1.1c0-0.4,0-0.9,0-1.4c0-0.6-0.1-1.1-0.2-1.5c-0.1-0.3-0.3-0.6-0.4-0.7c-0.2-0.1-0.4-0.2-0.5-0.2c-0.2,0-0.4,0-0.5,0
	L39.4,23.9z"/>
<path class="st0" d="M47.6,12.9v0.7h-0.2v-0.5h-2l0,5.2c0-0.1,0-0.2,0.1-0.2S45.7,18,46,18h0.8v-0.3h0.2v0.8h-0.2v-0.3h-0.8
	c-0.2,0-0.3,0.1-0.4,0.2c-0.1,0.1-0.1,0.3-0.1,0.5v5.1h2v-0.5h0.2v0.7h-3.9v-0.2h0.4V13.1h-0.4v-0.2H47.6z"/>
<path class="st0" d="M52.5,18.8h-1.2c-0.1,0-0.2,0-0.3,0c-0.1,0-0.2,0-0.3,0.1c-0.1,0-0.2,0.1-0.3,0.2c-0.1,0.1-0.1,0.1-0.1,0.3v4.6
	h0.3v0.2h-2v-0.2H49V13.1h-0.4v-0.2h2v0.2h-0.3l0,5.8c0,0,0-0.1,0.1-0.1c0.1,0,0.1-0.1,0.3-0.1c0.1,0,0.2,0,0.3-0.1
	c0.1,0,0.2,0,0.4,0h1.1v-5.5h-0.4v-0.2h2v0.2h-0.3l0,10.8h0.3v0.2h-2v-0.2h0.4V18.8z"/>
<path class="st0" d="M57.4,23.9c0.4,0,0.6,0,0.7-0.1s0.2-0.1,0.2-0.2c0-0.1,0-0.2,0-0.2c0-0.1-0.1-0.2-0.1-0.3c0-0.1,0-0.2,0-0.3
	s0.1-0.2,0.3-0.3c0.1-0.1,0.3-0.1,0.4-0.1s0.2,0.1,0.3,0.2c0.1,0.1,0.1,0.3,0.1,0.4c0,0.2-0.1,0.3-0.2,0.5c-0.1,0.1-0.3,0.3-0.6,0.4
	c-0.3,0.1-0.6,0.2-1.1,0.2c-0.5,0-0.9-0.1-1.2-0.2c-0.3-0.1-0.5-0.3-0.6-0.5c-0.1-0.2-0.2-0.5-0.2-0.7c0-0.3,0-0.6,0-1
	c0-1.3,0-2.3,0-3.2s0-1.5,0-2v-1.3c0-0.3,0-0.5,0-0.8c0-0.3,0.1-0.5,0.2-0.8c0.1-0.2,0.3-0.4,0.6-0.6c0.3-0.2,0.7-0.2,1.2-0.2
	c0.5,0,0.8,0.1,1.1,0.2c0.3,0.1,0.5,0.2,0.6,0.4c0.1,0.1,0.2,0.3,0.2,0.5c0,0.2,0,0.3-0.1,0.4c-0.1,0.1-0.2,0.2-0.3,0.2
	c-0.1,0-0.3,0-0.4-0.1c-0.2-0.1-0.3-0.2-0.3-0.3c0-0.1,0-0.2,0-0.3c0-0.1,0.1-0.2,0.1-0.3c0-0.1,0.1-0.2,0-0.2
	c0-0.1-0.1-0.1-0.2-0.2s-0.4-0.1-0.7-0.1c-0.2,0-0.4,0.1-0.5,0.2s-0.2,0.3-0.2,0.5c-0.1,0.2-0.1,0.5-0.1,0.7c0,0.3,0,0.5,0,0.7v1.5
	c0,0.5,0,1.2,0,2c0,0.8,0,1.8,0,2.9c0,0.4,0,0.7,0,0.9c0,0.3,0,0.5,0.1,0.7c0,0.2,0.1,0.3,0.2,0.4C57,23.8,57.2,23.9,57.4,23.9z"/>
<path class="st0" d="M63.9,14.6c0.1-0.4,0.2-0.8,0.3-1.1c0.2-0.3,0.3-0.4,0.5-0.5c0.2-0.1,0.3-0.1,0.5-0.1c0.2,0,0.3,0.1,0.4,0.2
	c0.1,0.1,0.2,0.2,0.2,0.4c0,0.1,0,0.3-0.1,0.4C65.6,14,65.5,14,65.3,14c-0.1,0-0.2,0-0.3-0.1c-0.1-0.1-0.2-0.1-0.3-0.2
	s-0.2-0.1-0.2-0.1c-0.1,0-0.1,0.1-0.2,0.2c-0.1,0.1-0.1,0.4-0.2,0.7c-0.1,0.5-0.2,1-0.2,1.4s0,0.8-0.1,1s-0.2,0.5-0.3,0.6
	C63.3,17.9,63,18,62.6,18c0.5,0,0.9,0.1,1.2,0.2c0.3,0.1,0.6,0.3,0.8,0.5c0.2,0.2,0.3,0.5,0.4,0.9c0.1,0.3,0.1,0.7,0.1,1.2
	c0,0.5,0,1,0,1.4s0,0.7,0.1,1c0,0.3,0.1,0.5,0.2,0.6c0.1,0.1,0.3,0.2,0.5,0.2v0.2c-0.5,0-0.9-0.1-1.2-0.2c-0.3-0.1-0.5-0.4-0.6-0.7
	s-0.2-0.6-0.2-1.1c0-0.4,0-0.9,0-1.4c0-0.6-0.1-1.1-0.2-1.5c-0.1-0.3-0.3-0.6-0.4-0.7c-0.2-0.1-0.4-0.2-0.5-0.2c-0.2,0-0.4,0-0.5,0
	l0,5.6h0.3v0.2h-2v-0.2h0.4V13.1h-0.4v-0.2h2v0.2h-0.3v4.8c0.5,0,0.8-0.1,1-0.2c0.2-0.1,0.3-0.3,0.4-0.5c0.1-0.3,0.1-0.6,0.1-1
	C63.7,15.7,63.7,15.2,63.9,14.6z"/>
<path class="st0" d="M71.4,15.4c-0.1,0.4-0.3,0.8-0.4,1.1c-0.1,0.3-0.2,0.7-0.4,1.1c-0.1,0.4-0.3,0.8-0.4,1.3
	c-0.3,1-0.7,2.2-1.1,3.4v1.6h0.3v0.2h-2v-0.2h0.4V13.1h-0.4v-0.2h2v0.2h-0.3l0,8.6c0.1-0.4,0.3-0.8,0.4-1.1c0.1-0.3,0.2-0.7,0.4-1.1
	c0.1-0.4,0.3-0.8,0.4-1.3c0.3-1,0.7-2.2,1.1-3.4v-1.7H71v-0.2h2v0.2h-0.3l0,10.8H73v0.2h-2v-0.2h0.4V15.4z"/>
<path class="st0" d="M78.3,12.9v0.7h-0.2v-0.5h-2l0,5.2c0-0.1,0-0.2,0.1-0.2s0.2-0.1,0.5-0.1h0.8v-0.3h0.2v0.8h-0.2v-0.3h-0.8
	c-0.2,0-0.3,0.1-0.4,0.2c-0.1,0.1-0.1,0.3-0.1,0.5v5.1h2v-0.5h0.2v0.7h-3.9v-0.2h0.4V13.1h-0.4v-0.2H78.3z"/>
<path class="st0" d="M84.6,23.9c0.2,0,0.3,0,0.4-0.2c0.1-0.1,0.2-0.2,0.3-0.4c0.1-0.2,0.2-0.4,0.2-0.6c0.1-0.2,0.2-0.5,0.2-0.8
	l-2.5-8.8H83v-0.2h2v0.2h-0.4l1.8,6.5l1.6-6.5h-0.3v-0.2h0.8v0.2h-0.3l-2.3,9c-0.1,0.3-0.2,0.6-0.3,0.8c-0.1,0.2-0.2,0.5-0.3,0.6
	c-0.1,0.2-0.2,0.3-0.4,0.4C85,24,84.8,24,84.6,24c-0.3,0-0.5-0.1-0.7-0.2c-0.2-0.1-0.3-0.2-0.4-0.4c-0.1-0.1-0.1-0.3-0.1-0.5
	s0-0.3,0.1-0.4c0.1-0.1,0.1-0.2,0.3-0.2c0.1,0,0.3,0,0.4,0.1c0.2,0.1,0.3,0.2,0.3,0.3c0,0.1,0,0.2,0,0.3c0,0.1-0.1,0.2-0.2,0.3
	c-0.1,0.1-0.1,0.2-0.2,0.2c0,0.1,0,0.1,0,0.2C84.2,23.8,84.4,23.8,84.6,23.9z"/>
<path class="st0" d="M93.1,14.6c0.1-0.4,0.2-0.8,0.3-1.1c0.2-0.3,0.3-0.4,0.5-0.5c0.2-0.1,0.3-0.1,0.5-0.1c0.2,0,0.3,0.1,0.4,0.2
	c0.1,0.1,0.2,0.2,0.2,0.4c0,0.1,0,0.3-0.1,0.4C94.8,14,94.7,14,94.6,14c-0.1,0-0.2,0-0.3-0.1c-0.1-0.1-0.2-0.1-0.3-0.2
	s-0.2-0.1-0.2-0.1c-0.1,0-0.1,0.1-0.2,0.2c-0.1,0.1-0.1,0.4-0.2,0.7c-0.1,0.5-0.2,1-0.2,1.4s0,0.8-0.1,1s-0.2,0.5-0.3,0.6
	c-0.2,0.1-0.5,0.2-0.9,0.2c0.5,0,0.9,0.1,1.2,0.2c0.3,0.1,0.6,0.3,0.8,0.5c0.2,0.2,0.3,0.5,0.4,0.9c0.1,0.3,0.1,0.7,0.1,1.2
	c0,0.5,0,1,0,1.4s0,0.7,0.1,1c0,0.3,0.1,0.5,0.2,0.6c0.1,0.1,0.3,0.2,0.5,0.2v0.2c-0.5,0-0.9-0.1-1.2-0.2c-0.3-0.1-0.5-0.4-0.6-0.7
	s-0.2-0.6-0.2-1.1c0-0.4,0-0.9,0-1.4c0-0.6-0.1-1.1-0.2-1.5c-0.1-0.3-0.3-0.6-0.4-0.7c-0.2-0.1-0.4-0.2-0.5-0.2c-0.2,0-0.4,0-0.5,0
	l0,5.6h0.3v0.2h-2v-0.2h0.4V13.1h-0.4v-0.2h2v0.2h-0.3v4.8c0.5,0,0.8-0.1,1-0.2c0.2-0.1,0.3-0.3,0.4-0.5c0.1-0.3,0.1-0.6,0.1-1
	C92.9,15.7,93,15.2,93.1,14.6z"/>
<path class="st0" d="M98.4,12.9c0.5,0,0.9,0,1.3,0.1c0.4,0,0.6,0.2,0.8,0.4s0.4,0.6,0.4,1c0.1,0.5,0.1,1.1,0.1,2c0,1,0,1.7-0.1,2.3
	s-0.1,0.9-0.3,1.2c-0.1,0.3-0.4,0.4-0.6,0.5c-0.3,0.1-0.7,0.1-1.2,0.1c-0.2,0-0.3,0.1-0.4,0.2s-0.1,0.3-0.1,0.5v2.9h0.3v0.2h-2v-0.2
	h0.4V13.1h-0.4v-0.2H98.4z M98.4,13.1l0,7.4c0-0.1,0-0.2,0.1-0.2s0.2-0.1,0.5-0.1c0.2,0,0.4,0,0.5-0.1c0.1-0.1,0.2-0.2,0.3-0.5
	c0.1-0.3,0.1-0.6,0.1-1.1c0-0.5,0-1.2,0-2.1c0-0.9,0-1.5-0.1-2c-0.1-0.4-0.2-0.8-0.3-1c-0.1-0.2-0.3-0.3-0.5-0.3
	C98.8,13.1,98.6,13.1,98.4,13.1z"/>
<path class="st0" d="M104.9,21.3h-1.3c-0.1,0-0.2,0-0.3,0c-0.1,0-0.2,0-0.3,0.1c-0.1,0-0.2,0.1-0.3,0.2c-0.1,0.1-0.1,0.2-0.1,0.3
	l-0.3,2h0.3v0.2c0,0-0.1,0-0.2,0c-0.1,0-0.2,0-0.3,0c-0.1,0-0.2,0-0.2,0s-0.1,0-0.1,0v-0.1h0.3c0,0,0-0.2,0.1-0.5
	c0-0.3,0.1-0.7,0.2-1.2c0.1-0.5,0.1-1.1,0.2-1.7c0.1-0.7,0.2-1.3,0.3-2c0.2-1.6,0.4-3.4,0.7-5.4h-0.4v-0.2h1.7l2,11h0.3v0.2h-2.3
	v-0.2h0.4L104.9,21.3z M104.9,21.2l-1.2-7.5l-1.1,8c0-0.2,0.1-0.3,0.3-0.4s0.5-0.1,0.7-0.1H104.9z"/>
<path class="st0" d="M111.5,23.9V13.1h-0.4v-0.2h2v0.2h-0.3l0,10.8h1.9V13.1h-0.4v-0.2h2.1v0.2H116l0,10.8h0.4v0.2h-8.4v-0.2h0.4
	V13.1h-0.4v-0.2h2v0.2h-0.3l0,10.8H111.5z"/>
<path class="st0" d="M121.7,12.9v0.7h-0.2v-0.5h-2l0,5.2c0-0.1,0-0.2,0.1-0.2s0.2-0.1,0.5-0.1h0.8v-0.3h0.2v0.8h-0.2v-0.3H120
	c-0.2,0-0.3,0.1-0.4,0.2c-0.1,0.1-0.1,0.3-0.1,0.5v5.1h2v-0.5h0.2v0.7h-3.9v-0.2h0.4V13.1h-0.4v-0.2H121.7z"/>
<path class="st0" d="M126.6,18.8h-1.2c-0.1,0-0.2,0-0.3,0c-0.1,0-0.2,0-0.3,0.1c-0.1,0-0.2,0.1-0.3,0.2c-0.1,0.1-0.1,0.1-0.1,0.3
	v4.6h0.3v0.2h-2v-0.2h0.4V13.1h-0.4v-0.2h2v0.2h-0.3l0,5.8c0,0,0-0.1,0.1-0.1c0.1,0,0.1-0.1,0.3-0.1c0.1,0,0.2,0,0.3-0.1
	c0.1,0,0.2,0,0.4,0h1.1v-5.5h-0.4v-0.2h2v0.2h-0.3l0,10.8h0.3v0.2h-2v-0.2h0.4V18.8z"/>
<path class="st0" d="M133.4,15.4c-0.1,0.4-0.3,0.8-0.4,1.1c-0.1,0.3-0.2,0.7-0.4,1.1c-0.1,0.4-0.3,0.8-0.4,1.3
	c-0.3,1-0.7,2.2-1.1,3.4v1.6h0.3v0.2h-2v-0.2h0.4V13.1h-0.4v-0.2h2v0.2h-0.3l0,8.6c0.1-0.4,0.3-0.8,0.4-1.1c0.1-0.3,0.2-0.7,0.4-1.1
	c0.1-0.4,0.3-0.8,0.4-1.3c0.3-1,0.7-2.2,1.1-3.4v-1.7H133v-0.2h2v0.2h-0.3l0,10.8h0.3v0.2h-2v-0.2h0.4V15.4z"/>
<path class="st0" d="M141.4,12.9v0.2H141v10.8h0.4v0.2h-2v-0.2h0.3l0-4.3c0-0.2,0-0.4-0.1-0.5c-0.1-0.1-0.2-0.2-0.4-0.2
	c-0.1,0-0.3,0-0.4,0c-0.1,0-0.2,0.1-0.3,0.2c-0.1,0.1-0.2,0.4-0.2,0.7c0,0.3-0.1,0.8-0.1,1.5c0,0.5,0,1,0,1.3s-0.1,0.6-0.2,0.8
	s-0.3,0.4-0.6,0.4c-0.3,0.1-0.6,0.1-1.2,0.1v-0.2c0.2,0,0.3,0,0.4-0.1c0.1-0.1,0.1-0.2,0.2-0.4c0-0.2,0-0.4,0-0.8c0-0.3,0-0.7,0-1.2
	c0-0.5,0-0.8,0-1.2c0-0.3,0.1-0.6,0.2-0.8c0.1-0.2,0.3-0.3,0.5-0.4c0.2-0.1,0.6-0.1,1-0.2c-0.4,0-0.8-0.1-1-0.2
	c-0.2-0.1-0.4-0.3-0.5-0.5c-0.1-0.3-0.2-0.6-0.2-1c0-0.4,0-1,0-1.6c0-0.6,0-1.1,0.1-1.4c0.1-0.3,0.2-0.6,0.4-0.8
	c0.2-0.2,0.5-0.3,0.8-0.4c0.4-0.1,0.8-0.1,1.3-0.1H141.4z M139.7,13.1c-0.2,0-0.4,0-0.6,0.1c-0.2,0-0.3,0.1-0.5,0.3
	c-0.1,0.2-0.2,0.4-0.3,0.7c-0.1,0.3-0.1,0.8-0.1,1.3c0,0.8,0,1.4,0,1.8s0.1,0.7,0.1,1s0.1,0.3,0.3,0.4c0.1,0,0.3,0,0.5,0
	c0.2,0,0.4,0,0.5,0.1c0.1,0,0.1,0.1,0.1,0.2V13.1z"/>
</svg>
