<?xml version="1.0" encoding="utf-8"?>
<!-- Generator: Adobe Illustrator 22.1.0, SVG Export Plug-In . SVG Version: 6.00 Build 0)  -->
<svg version="1.1" id="Слой_1" xmlns="http://www.w3.org/2000/svg" xmlns:xlink="http://www.w3.org/1999/xlink" x="0px" y="0px"
	 viewBox="0 0 102 88.6" style="enable-background:new 0 0 102 88.6;" xml:space="preserve">
<style type="text/css">
	.st0{fill-rule:evenodd;clip-rule:evenodd;fill:url(#SVGID_1_);}
	.st1{fill-rule:evenodd;clip-rule:evenodd;fill:url(#SVGID_2_);}
	.st2{fill-rule:evenodd;clip-rule:evenodd;fill:url(#SVGID_3_);}
</style>
<linearGradient id="SVGID_1_" gradientUnits="userSpaceOnUse" x1="42.5415" y1="72.2448" x2="72.2451" y2="8.5452">
	<stop  offset="0" style="stop-color:#613013"/>
	<stop  offset="0.224" style="stop-color:#A47A2B"/>
	<stop  offset="0.4026" style="stop-color:#E0D286"/>
	<stop  offset="0.4545" style="stop-color:#F2EDA2"/>
	<stop  offset="0.5191" style="stop-color:#F7F2B2"/>
	<stop  offset="0.6182" style="stop-color:#DFCC85"/>
	<stop  offset="0.7814" style="stop-color:#C5A666"/>
	<stop  offset="0.8281" style="stop-color:#BD9C5D"/>
	<stop  offset="0.903" style="stop-color:#A98246"/>
	<stop  offset="1" style="stop-color:#76461B"/>
</linearGradient>
<path class="st0" d="M59.2,26.8c0.5-0.1,2.8-3.5,2.8-3.5c0,0-2,2-2.6,2.2c-0.6,0.2-2.2-0.7-3.8-2.9c-1.6-2.1-2.2-4.4-2.2-4.4
	c0,0,0.9,0.6,3,1.1c2,0.5,4.1,0.4,6.6,0.7c2.5,0.4,3.7,2.6,3.7,2.6s-0.4-2.9-2.5-4.1c-2.1-1.2-7.9-0.6-10.5-3
	c-2.6-2.3-1.5-5.8-1.5-5.8c-1.3,0.8-1.9,7.9,0.6,11.6C55.1,25.1,58.7,26.9,59.2,26.8L59.2,26.8z M50.1,6.5c5-3.8,13.9-4.4,19.2,2.2
	c4.2,5.2,3.5,11.5,3.2,13.2c-0.4,1.7-1.2,2.7-1.2,2.7c-1.6-1.4-2.8-1.9-4-1.5c0,0-0.3-2.4-1.9-4c-1.6-1.6-4.6-1.9-6.4-2.1
	c-1.8-0.3-5-1.2-6.1-3.1c-1.1-1.9-0.6-4.9-0.6-4.9s-1.8,1.2-1.9,5.1c-0.2,3.9,1.4,7.5,3.3,9.7c1.9,2.2,5,3.7,5,3.7s-1.8,1.2-3.1,1.3
	c-1.4,0.1-2.4-0.5-2.4-0.5s-1.2,3.4-0.8,5.8c0.4,2.4,2.4,3.8,3.1,4c0.6,0.2,0.6,0.2,0.6,0.2s-0.1,2,0.2,3.5c0.3,1.6,0.6,2.3,0.3,3
	c-0.3,1-1.6,0.3-1.6,0.3s-1.8-3.8-7.9-9C41,31,36.4,31.5,34.6,31.8c-1.9,0.4-3.3,1.6-3.3,1.6S29,31,29.4,27.2c0.4-3.8,3.7-4.4,6-3.7
	c2.3,0.7,2.8,3.9,0.8,5.1c-1.9,1.2-3.7-0.7-3.7-0.7l-0.3-0.5c0,0,1.8,0.9,2.7-0.5c0.9-1.4-0.5-3.6-2.9-2.6c-2.4,1-2.2,5.1-0.2,6.2
	c2,1.1,5.5,0.9,8-3.1C42.3,23.3,42.6,12.2,50.1,6.5L50.1,6.5z M46.9,37.1c-5.4-4.4-10.5-6.1-14.7-3.4c-3.1,2-11.7,13-16.7,17.4
	c-5,4.3-9.2,4.1-9.2,4.1s1.7,1.9,6.8,0.1c10.2-5.6,15.3-20.3,23-21c5.2-0.8,12.5,4.9,15.8,9.2c2.5,2.5,5.6,7.1,5.6,7.1
	S52.2,41.6,46.9,37.1L46.9,37.1z M36.6,41.9c0,0-0.1,3.5,1.3,7.8c1.4,4.3,4,6.7,4,6.7H46C46,56.4,38.5,50.3,36.6,41.9L36.6,41.9z
	 M65.5,47.5c-3.1,6.1-7.9,8.7-7.9,8.7h4.3c0,0,8-8.9,7.6-19.8C69.5,36.4,68.6,41.4,65.5,47.5L65.5,47.5z M68.1,23.7
	c3.2,0,7.4,8.7,9.8,11.7c7.4,9.4,13.2,7,17,19.6c0,0-4-7.8-8.4-10c-14-7.9-13.6-17.4-18-19.3c-2.1-0.9-5.1,3-5.1,3
	S64.8,23.7,68.1,23.7L68.1,23.7z M57.6,40.1c-0.5,1.6-0.3,3.6-0.3,3.6s-0.6-1.2-0.7-2.7c-0.1-1.5,0.2-3.1,0.2-3.1s-2.8-0.5-3.6-2.8
	c-0.8-2.3,0.4-5.8,0.4-5.8s1.7,0.6,4.6-0.6c3-1.2,4.3-3.8,4.3-3.8c0,0-0.4,2.2-2.4,4.1c-2,1.9-4.2,2.2-4.2,2.2s-0.6,1.9,0.5,3.3
	c1,1.4,3.1,1.6,3.1,1.6S58.1,38.5,57.6,40.1z"/>
<linearGradient id="SVGID_2_" gradientUnits="userSpaceOnUse" x1="39.0224" y1="95.2904" x2="61.9909" y2="46.0342">
	<stop  offset="0" style="stop-color:#613013"/>
	<stop  offset="0.224" style="stop-color:#A47A2B"/>
	<stop  offset="0.4026" style="stop-color:#E0D286"/>
	<stop  offset="0.4545" style="stop-color:#F2EDA2"/>
	<stop  offset="0.5191" style="stop-color:#F7F2B2"/>
	<stop  offset="0.6182" style="stop-color:#DFCC85"/>
	<stop  offset="0.7814" style="stop-color:#C5A666"/>
	<stop  offset="0.8281" style="stop-color:#BD9C5D"/>
	<stop  offset="0.903" style="stop-color:#A98246"/>
	<stop  offset="1" style="stop-color:#76461B"/>
</linearGradient>
<path class="st1" d="M4.8,61v-0.3h3.4V61H7.7l0,18h0.5v0.3H4.8V79h0.7V61H4.8L4.8,61z M19.9,79.3c-1-2.4-1.8-4.5-2.6-6.5
	c-0.3-0.8-0.7-1.6-1-2.5c-0.3-0.8-0.6-1.6-0.9-2.2c-0.3-0.7-0.5-1.3-0.7-1.7c-0.2-0.5-0.3-0.8-0.3-1V79H15v0.3h-1.7V79H14V61h-0.7
	v-0.3H15l5.6,14.2V61h-0.7v-0.3h1.7V61h-0.6v9.1c0,1.1,0,2.3,0,3.3c0,1.1,0,2.1,0,2.9c0,0.9,0,1.6,0,2.1s0,0.8,0,0.9H19.9L19.9,79.3
	z M34.2,60.7V62h-0.3v-1h-2.6l0,18h0.5v0.3h-3.4V79H29V61h-2.5v1h-0.3v-1.3H34.2L34.2,60.7z M38.9,61v-0.3h3.4V61h-0.6l0,18h0.5v0.3
	h-3.4V79h0.7V61H38.9L38.9,61z M51.7,74.5L49.8,62L48,75.3c0-0.3,0.2-0.5,0.5-0.6c0.4-0.1,0.8-0.2,1.2-0.2H51.7L51.7,74.5z
	 M51.8,74.8h-2.1c-0.2,0-0.3,0-0.5,0c-0.2,0-0.4,0.1-0.5,0.2c-0.2,0.1-0.3,0.2-0.4,0.3c-0.1,0.1-0.2,0.3-0.2,0.5l-0.4,3.3H48v0.3
	c-0.1,0-0.2,0-0.3,0c-0.2,0-0.3,0-0.4,0c-0.1,0-0.3,0-0.4,0c-0.1,0-0.2,0-0.2,0v-0.2h0.4c0,0,0-0.3,0.1-0.8c0.1-0.5,0.2-1.2,0.3-2.1
	c0.1-0.8,0.2-1.8,0.4-2.9c0.1-1.1,0.3-2.2,0.4-3.3c0.3-2.6,0.7-5.7,1.1-9h-0.7v-0.3h2.9L55,79.1h0.5v0.3h-3.8v-0.3h0.7L51.8,74.8
	L51.8,74.8z M64.7,74.7L61.2,63l0.1,16h0.6v0.3h-1.7V79h0.7V61h-0.7v-0.3H63l2.7,9.5l3.1-9.5h2.3V61h-0.7l0,18h0.6v0.3h-3.6V79h0.8
	V63.5L64.7,74.7L64.7,74.7z M76.5,75.3c0-2.1,0-3.9,0-5.3c0-1.4,0-2.5,0-3.3v-2.2c0-0.4,0-0.9,0.1-1.3c0-0.5,0.2-0.9,0.4-1.3
	c0.2-0.4,0.6-0.7,1-1c0.5-0.3,1.1-0.4,2-0.4c0.9,0,1.5,0.1,2,0.3c0.5,0.2,0.8,0.5,1,0.9c0.2,0.4,0.4,0.8,0.4,1.3c0,0.5,0,1,0,1.5
	c0,1.4,0,2.5,0,3.6c0,1,0,1.9,0,2.7s0,1.4,0,1.9s0,0.9,0,1.3c0,0.8,0,1.2,0,1.3c0,0.7,0,1.3-0.1,1.8c0,0.5-0.2,0.9-0.4,1.2
	c-0.2,0.3-0.6,0.6-1.1,0.7c-0.5,0.2-1.2,0.3-2.1,0.3c-0.9,0-1.5-0.1-2-0.3c-0.5-0.2-0.8-0.4-1-0.8c-0.2-0.3-0.3-0.8-0.4-1.2
	C76.5,76.6,76.5,76,76.5,75.3L76.5,75.3z M78.6,75.3c0,0.6,0,1.1,0,1.6c0,0.5,0.1,0.8,0.1,1.1c0.1,0.3,0.2,0.6,0.4,0.7
	c0.2,0.2,0.5,0.3,0.8,0.3c0.3,0,0.6-0.1,0.8-0.3c0.2-0.2,0.3-0.4,0.4-0.7c0.1-0.3,0.1-0.7,0.1-1.1c0-0.5,0-1,0-1.6v-1.8
	c0-0.7,0-1.8,0-3.2c0-1.4,0-3.3,0-5.6c0-0.5,0-0.9,0-1.3c0-0.4-0.1-0.8-0.1-1.2c-0.1-0.3-0.2-0.6-0.4-0.8C80.5,61.1,80.3,61,80,61
	c-0.4,0-0.6,0.1-0.8,0.4c-0.2,0.2-0.3,0.5-0.4,0.9c-0.1,0.4-0.1,0.8-0.1,1.2c0,0.4,0,0.8,0,1.2v2.6c0,0.9,0,2,0,3.3
	C78.5,71.9,78.6,73.5,78.6,75.3L78.6,75.3z M92.8,70.6c0.7,0,1.3,0.1,1.7,0.3c0.4,0.2,0.7,0.4,0.9,0.7c0.2,0.3,0.3,0.8,0.3,1.3
	c0,0.5,0,1.2,0,1.9c0,0.9,0,1.5,0,2.1c0,0.5,0,1,0,1.3c0,0.3,0.1,0.5,0.3,0.6c0.1,0.1,0.4,0.2,0.7,0.2v0.3c-0.9,0-1.5-0.1-1.9-0.2
	c-0.4-0.1-0.7-0.4-0.9-0.7c-0.2-0.3-0.3-0.8-0.3-1.4c0-0.6,0-1.3,0-2.2c0-1.1,0-1.9-0.1-2.4c-0.1-0.6-0.2-1-0.3-1.2
	c-0.2-0.2-0.3-0.4-0.5-0.4c-0.2,0-0.4,0-0.6,0c-0.3,0-0.5,0.1-0.7,0.3c-0.1,0.2-0.2,0.4-0.2,0.8l0,7.2h0.5v0.3h-3.4V79H89V61h-0.7
	v-0.3h2.8V61v9.9c0-0.1,0.1-0.3,0.2-0.3c0.1-0.1,0.4-0.1,0.8-0.1c0.3,0,0.6,0,0.8-0.1c0.2-0.1,0.4-0.2,0.5-0.6
	c0.1-0.3,0.2-0.9,0.2-1.6c0-0.7,0-1.7,0-3.1c0-0.9-0.1-1.7-0.2-2.2c-0.1-0.5-0.3-0.9-0.5-1.2c-0.2-0.3-0.5-0.4-0.8-0.5
	c-0.3-0.1-0.6-0.1-1-0.1v-0.3c0.9,0,1.6,0,2.2,0.1c0.6,0.1,1.1,0.3,1.4,0.6c0.3,0.3,0.6,0.7,0.7,1.3c0.2,0.6,0.2,1.4,0.2,2.3
	c0,1.1,0,2-0.1,2.7c0,0.7-0.1,1.3-0.3,1.7c-0.2,0.4-0.5,0.7-0.9,0.9C94.1,70.5,93.5,70.6,92.8,70.6z"/>
<linearGradient id="SVGID_3_" gradientUnits="userSpaceOnUse" x1="42.4676" y1="102.2657" x2="59.8196" y2="65.0541">
	<stop  offset="0" style="stop-color:#613013"/>
	<stop  offset="0.224" style="stop-color:#A47A2B"/>
	<stop  offset="0.4026" style="stop-color:#E0D286"/>
	<stop  offset="0.4545" style="stop-color:#F2EDA2"/>
	<stop  offset="0.5191" style="stop-color:#F7F2B2"/>
	<stop  offset="0.6182" style="stop-color:#DFCC85"/>
	<stop  offset="0.7814" style="stop-color:#C5A666"/>
	<stop  offset="0.8281" style="stop-color:#BD9C5D"/>
	<stop  offset="0.903" style="stop-color:#A98246"/>
	<stop  offset="1" style="stop-color:#76461B"/>
</linearGradient>
<path class="st2" d="M5.8,84.4L5.8,84.4c0,0.3,0.1,0.4,0.3,0.4c0.1,0,0.1,0.1,0,0.1H5.2c-0.1,0-0.1-0.1,0-0.1c0.2,0,0.3-0.1,0.3-0.3
	v-1.6c0-0.2-0.1-0.3-0.3-0.3c-0.1,0-0.1-0.1,0-0.1h0.9c0.1,0,0.1,0.1,0,0.1c-0.2,0-0.3,0.1-0.3,0.3V84c0,0.1,0,0.2,0.1,0.1l1-1v-0.1
	c0-0.2-0.1-0.3-0.3-0.3c-0.1,0-0.1-0.1,0-0.1h0.9c0.1,0,0.1,0.1,0,0.1c-0.2,0-0.3,0.1-0.3,0.3v1.6c0,0.2,0.1,0.3,0.3,0.3
	c0.1,0,0.1,0.1,0,0.1H6.7c-0.1,0-0.1-0.1,0-0.1c0.2,0,0.3-0.1,0.3-0.3v-1.1c0-0.1,0-0.2-0.1-0.1L5.8,84.4L5.8,84.4z M12.7,84.5
	c0,0.2,0.1,0.3,0.3,0.3c0.1,0,0.1,0.1,0,0.1h-0.9c-0.1,0-0.1-0.1,0-0.1c0.2,0,0.3-0.1,0.3-0.3v-0.7c0-0.1,0-0.1-0.1-0.1h-1
	c-0.1,0-0.1,0-0.1,0.1v0.7c0,0.2,0.1,0.3,0.3,0.3c0.1,0,0.1,0.1,0,0.1h-0.9c-0.1,0-0.1-0.1,0-0.1c0.2,0,0.3-0.1,0.3-0.3v-1.6
	c0-0.2-0.1-0.3-0.3-0.3c-0.1,0-0.1-0.1,0-0.1h0.9c0.1,0,0.1,0.1,0,0.1c-0.2,0-0.3,0.1-0.3,0.3v0.5c0,0.1,0,0.1,0.1,0.1h0.9
	c0.1,0,0.1,0,0.1-0.1v-0.5c0-0.2-0.1-0.3-0.3-0.3c-0.1,0-0.1-0.1,0-0.1H13c0.1,0,0.1,0.1,0,0.1c-0.2,0-0.3,0.1-0.3,0.3V84.5
	L12.7,84.5z M17,82.8c0-0.1,0-0.1-0.1-0.2c0,0-0.1,0-0.1,0c-0.1,0-0.2,0.1-0.4,0.2c-0.1,0.1-0.2,0.2-0.3,0.3c-0.1,0-0.1,0-0.1,0
	l0.2-0.5h1.9l0.2,0.5c0,0.1,0,0.1-0.1,0c-0.1-0.1-0.2-0.2-0.3-0.3c-0.2-0.1-0.3-0.2-0.4-0.2c-0.1,0-0.1,0-0.1,0c0,0-0.1,0.1-0.1,0.2
	v1.6c0,0.2,0.1,0.3,0.3,0.3c0.1,0,0.1,0.1,0,0.1h-0.9c-0.1,0-0.1-0.1,0-0.1c0.2,0,0.3-0.1,0.3-0.3V82.8L17,82.8z M22,84.4L22,84.4
	c0,0.3,0.1,0.4,0.3,0.4c0.1,0,0.1,0.1,0,0.1h-0.9c-0.1,0-0.1-0.1,0-0.1c0.2,0,0.3-0.1,0.3-0.3v-1.6c0-0.2-0.1-0.3-0.3-0.3
	c-0.1,0-0.1-0.1,0-0.1h0.9c0.1,0,0.1,0.1,0,0.1c-0.2,0-0.3,0.1-0.3,0.3V84c0,0.1,0,0.2,0.1,0.1l1-1v-0.1c0-0.2-0.1-0.3-0.3-0.3
	c-0.1,0-0.1-0.1,0-0.1h0.9c0.1,0,0.1,0.1,0,0.1c-0.2,0-0.3,0.1-0.3,0.3v1.6c0,0.2,0.1,0.3,0.3,0.3c0.1,0,0.1,0.1,0,0.1h-0.9
	c-0.1,0-0.1-0.1,0-0.1c0.2,0,0.3-0.1,0.3-0.3v-1.1c0-0.1,0-0.2-0.1-0.1L22,84.4L22,84.4z M29.4,82.4c0.1,0,0.1,0.1,0,0.1
	c-0.2,0-0.3,0.1-0.3,0.3v1.6c0,0.2,0.1,0.3,0.3,0.3c0.1,0,0.1,0.1,0,0.1h-0.9c-0.1,0-0.1-0.1,0-0.1c0.2,0,0.3-0.1,0.3-0.3V83
	c0-0.2,0-0.2-0.1,0l-0.8,1.9c0,0-0.1,0-0.1,0L27.1,83c0-0.1-0.1-0.1-0.1,0v1.5c0,0.2,0.1,0.3,0.3,0.3c0.1,0,0.1,0.1,0,0.1h-0.7
	c-0.1,0-0.1-0.1,0-0.1c0.2,0,0.3-0.1,0.3-0.3v-1.6c0-0.2-0.1-0.3-0.3-0.3c-0.1,0-0.1-0.1,0-0.1h0.7l0.7,1.7c0,0.1,0.1,0.1,0.1,0
	l0.7-1.7H29.4L29.4,82.4z M34.3,84.5c0,0.2,0.1,0.3,0.3,0.3c0.1,0,0.1,0.1,0,0.1h-0.9c-0.1,0-0.1-0.1,0-0.1c0.2,0,0.3-0.1,0.3-0.3
	v-0.7c0-0.1,0-0.1-0.1-0.1h-1c-0.1,0-0.1,0-0.1,0.1v0.7c0,0.2,0.1,0.3,0.3,0.3c0.1,0,0.1,0.1,0,0.1h-0.9c-0.1,0-0.1-0.1,0-0.1
	c0.2,0,0.3-0.1,0.3-0.3v-1.6c0-0.2-0.1-0.3-0.3-0.3c-0.1,0-0.1-0.1,0-0.1h0.9c0.1,0,0.1,0.1,0,0.1c-0.2,0-0.3,0.1-0.3,0.3v0.5
	c0,0.1,0,0.1,0.1,0.1h0.9c0.1,0,0.1,0,0.1-0.1v-0.5c0-0.2-0.1-0.3-0.3-0.3c-0.1,0-0.1-0.1,0-0.1h0.9c0.1,0,0.1,0.1,0,0.1
	c-0.2,0-0.3,0.1-0.3,0.3V84.5L34.3,84.5z M39.1,83.4c-0.4,0.2-0.7,0.3-0.8,0.5c-0.1,0.1-0.2,0.3-0.2,0.4c0,0.2,0,0.3,0.1,0.3
	c0.1,0.1,0.2,0.1,0.3,0.1c0.1,0,0.4-0.1,0.7-0.3V83.4L39.1,83.4z M39.1,84.6c-0.3,0.3-0.6,0.4-0.8,0.4c-0.2,0-0.4-0.1-0.5-0.2
	c-0.1-0.1-0.1-0.2-0.1-0.4c0-0.2,0.1-0.4,0.3-0.5c0.2-0.2,0.5-0.4,1.1-0.5v-0.4c0-0.1,0-0.3-0.1-0.3c-0.1-0.1-0.1-0.1-0.3-0.1
	c-0.2,0-0.3,0.1-0.4,0.2c-0.1,0.1-0.1,0.2-0.1,0.3c0,0.2-0.1,0.2-0.2,0.2c-0.1,0-0.2-0.1-0.2-0.2c0-0.1,0.1-0.2,0.2-0.4
	c0.2-0.2,0.4-0.2,0.7-0.2c0.3,0,0.5,0.1,0.6,0.2c0.1,0.1,0.1,0.2,0.1,0.3v1.5c0,0.2,0.1,0.3,0.3,0.3c0.1,0,0.1,0.1,0,0.1h-0.6V84.6
	L39.1,84.6z M43.7,83.7c-0.2,0-0.3-0.1-0.4-0.2c-0.1-0.1-0.2-0.3-0.2-0.4c0-0.1,0.1-0.3,0.2-0.4c0.2-0.2,0.4-0.3,0.8-0.3h1.1
	c0.1,0,0.1,0.1,0,0.1c-0.2,0-0.3,0.1-0.3,0.3v1.6c0,0.2,0.1,0.3,0.3,0.3c0.1,0,0.1,0.1,0,0.1h-0.9c-0.1,0-0.1-0.1,0-0.1
	c0.2,0,0.3-0.1,0.3-0.3v-0.7h-0.6l-0.5,1.2H43c-0.1,0-0.1-0.1,0-0.1c0.2,0,0.3-0.1,0.4-0.2L43.7,83.7L43.7,83.7z M44.6,82.9
	c0-0.2-0.1-0.3-0.3-0.3h-0.3c-0.2,0-0.3,0.1-0.4,0.2c-0.1,0.1-0.1,0.2-0.1,0.3c0,0.1,0,0.3,0.1,0.4c0.1,0.1,0.2,0.1,0.4,0.1h0.5
	V82.9L44.6,82.9z M51.9,83c0.1-0.1,0.1-0.2,0.2-0.3c0.2-0.2,0.4-0.3,0.7-0.3c0.3,0,0.6,0.1,0.8,0.3c0.2,0.2,0.3,0.5,0.3,0.9
	c0,0.4-0.1,0.7-0.3,0.9c-0.2,0.2-0.5,0.3-0.8,0.3s-0.6-0.1-0.8-0.3c-0.2-0.2-0.3-0.6-0.3-1.2c0-0.7,0.2-1.2,0.5-1.5
	c0.3-0.3,0.6-0.4,1.1-0.4c0.4,0,0.6-0.1,0.8-0.3c0.1-0.1,0.1,0,0.1,0.1c-0.1,0.1-0.1,0.2-0.2,0.3c-0.2,0.2-0.5,0.3-1,0.3
	c-0.3,0-0.5,0.1-0.7,0.3C52,82.4,51.8,82.7,51.9,83C51.8,83.1,51.9,83.1,51.9,83L51.9,83z M52.8,82.5c-0.2,0-0.4,0.1-0.5,0.3
	c-0.2,0.2-0.2,0.5-0.2,0.9c0,0.4,0.1,0.8,0.2,0.9c0.2,0.2,0.4,0.3,0.5,0.3s0.4-0.1,0.5-0.3c0.2-0.2,0.2-0.5,0.2-0.9
	c0-0.4-0.1-0.8-0.2-0.9C53.2,82.6,53,82.5,52.8,82.5L52.8,82.5z M57.6,84.4L57.6,84.4c0,0.3,0.1,0.4,0.3,0.4c0.1,0,0.1,0.1,0,0.1H57
	c-0.1,0-0.1-0.1,0-0.1c0.2,0,0.3-0.1,0.3-0.3v-1.6c0-0.2-0.1-0.3-0.3-0.3c-0.1,0-0.1-0.1,0-0.1h0.9c0.1,0,0.1,0.1,0,0.1
	c-0.2,0-0.3,0.1-0.3,0.3V84c0,0.1,0,0.2,0.1,0.1l1-1v-0.1c0-0.2-0.1-0.3-0.3-0.3c-0.1,0-0.1-0.1,0-0.1h0.9c0.1,0,0.1,0.1,0,0.1
	c-0.2,0-0.3,0.1-0.3,0.3v1.6c0,0.2,0.1,0.3,0.3,0.3c0.1,0,0.1,0.1,0,0.1h-0.9c-0.1,0-0.1-0.1,0-0.1c0.2,0,0.3-0.1,0.3-0.3v-1.1
	c0-0.1,0-0.2-0.1-0.1L57.6,84.4L57.6,84.4z M63.1,82.6c-0.1,0-0.1-0.1,0-0.1h0.9c0.1,0,0.1,0.1,0,0.1c-0.2,0-0.3,0.1-0.3,0.3v0.7
	h0.2c0.3,0,0.4-0.1,0.5-0.4c0.1-0.2,0.2-0.4,0.2-0.5c0-0.1,0.1-0.1,0.1-0.2c0.1-0.1,0.2-0.1,0.3-0.1c0.1,0,0.1,0,0.2,0.1
	c0,0,0.1,0.1,0.1,0.2c0,0.1,0,0.1,0,0.1c0,0-0.1,0.1-0.1,0.1c0,0-0.1,0-0.1,0c0,0-0.1,0-0.1,0c-0.1,0-0.1,0-0.1,0.1
	c-0.1,0.1-0.1,0.2-0.2,0.3c-0.1,0.1-0.1,0.2-0.2,0.3c0,0,0,0.1,0,0.1l0.6,0.9c0.1,0.2,0.3,0.3,0.4,0.3c0.1,0,0.1,0.1,0,0.1h-0.9
	c-0.1,0-0.1-0.1,0-0.1c0.1,0,0.2,0,0.2-0.1c0,0,0-0.1,0-0.2l-0.5-0.8c0,0-0.1,0-0.1,0h-0.3v0.8c0,0.2,0.1,0.3,0.3,0.3
	c0.1,0,0.1,0.1,0,0.1h-0.9c-0.1,0-0.1-0.1,0-0.1c0.2,0,0.3-0.1,0.3-0.3v-0.8h-0.3c-0.1,0-0.1,0-0.1,0l-0.5,0.8
	c-0.1,0.1-0.1,0.2,0,0.2c0.1,0.1,0.1,0.1,0.2,0.1c0.1,0,0.1,0.1,0,0.1h-0.9c-0.1,0-0.1-0.1,0-0.1c0.1,0,0.3-0.1,0.4-0.3l0.6-0.9
	c0,0,0-0.1,0-0.1c-0.1-0.1-0.2-0.2-0.2-0.3c-0.1-0.1-0.1-0.2-0.2-0.3c0-0.1-0.1-0.1-0.1-0.1c0,0-0.1,0-0.1,0c0,0-0.1,0-0.1,0
	c-0.1,0-0.1,0-0.1-0.1c0,0,0-0.1,0-0.1c0-0.1,0-0.1,0.1-0.2c0,0,0.1-0.1,0.2-0.1c0.1,0,0.2,0,0.3,0.1c0.1,0.1,0.1,0.2,0.1,0.2
	c0,0.1,0.1,0.3,0.2,0.5c0.1,0.2,0.3,0.4,0.5,0.4h0.2v-0.7C63.4,82.7,63.3,82.6,63.1,82.6L63.1,82.6z M69.1,84.9
	c-0.2,0.5-0.5,0.7-0.9,0.7c-0.3,0-0.5-0.1-0.5-0.3c0-0.1,0-0.1,0.1-0.1c0,0,0.1-0.1,0.2-0.1c0.1,0,0.2,0,0.2,0.1
	c0.1,0.1,0.2,0.1,0.3,0.1c0.2,0,0.4-0.2,0.5-0.5l-0.9-2c-0.1-0.2-0.2-0.3-0.3-0.3c-0.1,0-0.1-0.1,0-0.1h0.9c0.1,0,0.1,0.1,0,0.1
	c-0.2,0-0.2,0.1-0.2,0.3l0.6,1.5c0,0.1,0.1,0.1,0.1,0l0.5-1.4c0.1-0.2,0-0.3-0.2-0.3c-0.1,0-0.1-0.1,0-0.1h0.7c0.1,0,0.1,0.1,0,0.1
	c-0.1,0-0.3,0.1-0.3,0.4L69.1,84.9L69.1,84.9z M74.3,82.8c0-0.1,0-0.1-0.1-0.2c0,0-0.1,0-0.1,0c-0.1,0-0.2,0.1-0.4,0.2
	c-0.1,0.1-0.2,0.2-0.3,0.3c-0.1,0-0.1,0-0.1,0l0.2-0.5h1.9l0.2,0.5c0,0.1,0,0.1-0.1,0c-0.1-0.1-0.2-0.2-0.3-0.3
	c-0.2-0.1-0.3-0.2-0.4-0.2c-0.1,0-0.1,0-0.1,0c0,0-0.1,0.1-0.1,0.2v1.6c0,0.2,0.1,0.3,0.3,0.3c0.1,0,0.1,0.1,0,0.1H74
	c-0.1,0-0.1-0.1,0-0.1c0.2,0,0.3-0.1,0.3-0.3V82.8L74.3,82.8z M79.2,83.5c0,0.5,0.1,0.8,0.3,1c0.2,0.2,0.4,0.3,0.6,0.3
	c0.3,0,0.5-0.1,0.7-0.3c0.1,0,0.1,0,0.1,0.1C80.6,84.8,80.3,85,80,85c-0.3,0-0.6-0.1-0.8-0.3c-0.3-0.3-0.4-0.6-0.4-1
	c0-0.4,0.1-0.7,0.4-0.9c0.2-0.2,0.4-0.3,0.7-0.3c0.3,0,0.6,0.1,0.8,0.3c0.2,0.2,0.3,0.5,0.3,0.8H79.2L79.2,83.5z M80.3,83.4
	c0.1,0,0.1-0.1,0.1-0.2c0-0.2-0.1-0.4-0.2-0.5c-0.1-0.1-0.2-0.2-0.4-0.2c-0.1,0-0.3,0.1-0.4,0.2c-0.2,0.2-0.3,0.4-0.3,0.6
	c0,0.1,0,0.1,0.1,0.1H80.3L80.3,83.4z M84.8,82.6c0.2-0.1,0.3-0.2,0.5-0.2c0.3,0,0.5,0.1,0.7,0.3c0.2,0.2,0.3,0.5,0.3,0.9
	c0,0.4-0.1,0.8-0.4,1.1c-0.2,0.2-0.4,0.3-0.6,0.3c-0.2,0-0.4,0-0.5-0.1c-0.1,0-0.1,0-0.1,0.1v0.4c0,0.2,0.1,0.2,0.3,0.2
	c0.1,0,0.1,0.1,0,0.1h-0.9c-0.1,0-0.1-0.1,0-0.1c0.2,0,0.3-0.1,0.3-0.2v-2.4c0-0.1-0.1-0.1-0.3-0.2c-0.1,0-0.1-0.1,0-0.1
	c0.2-0.1,0.4-0.2,0.5-0.3c0.1,0,0.1,0,0.1,0v0.2C84.7,82.6,84.8,82.6,84.8,82.6L84.8,82.6z M84.7,84.6c0.2,0.2,0.4,0.3,0.6,0.3
	c0.1,0,0.3-0.1,0.4-0.2c0.2-0.2,0.3-0.6,0.3-1.1c0-0.4-0.1-0.7-0.3-0.8c-0.2-0.2-0.3-0.2-0.5-0.2c-0.2,0-0.3,0.1-0.5,0.3V84.6
	L84.7,84.6z M90,84.4L90,84.4c0,0.3,0.1,0.4,0.3,0.4c0.1,0,0.1,0.1,0,0.1h-0.9c-0.1,0-0.1-0.1,0-0.1c0.2,0,0.3-0.1,0.3-0.3v-1.6
	c0-0.2-0.1-0.3-0.3-0.3c-0.1,0-0.1-0.1,0-0.1h0.9c0.1,0,0.1,0.1,0,0.1c-0.2,0-0.3,0.1-0.3,0.3V84c0,0.1,0,0.2,0.1,0.1l1-1v-0.1
	c0-0.2-0.1-0.3-0.3-0.3c-0.1,0-0.1-0.1,0-0.1h0.9c0.1,0,0.1,0.1,0,0.1c-0.2,0-0.3,0.1-0.3,0.3v1.6c0,0.2,0.1,0.3,0.3,0.3
	c0.1,0,0.1,0.1,0,0.1h-0.9c-0.1,0-0.1-0.1,0-0.1c0.2,0,0.3-0.1,0.3-0.3v-1.1c0-0.1,0-0.2-0.1-0.1L90,84.4L90,84.4z M95.6,83.7
	c-0.2,0-0.3-0.1-0.4-0.2c-0.1-0.1-0.2-0.3-0.2-0.4c0-0.1,0.1-0.3,0.2-0.4c0.2-0.2,0.4-0.3,0.8-0.3h1.1c0.1,0,0.1,0.1,0,0.1
	c-0.2,0-0.3,0.1-0.3,0.3v1.6c0,0.2,0.1,0.3,0.3,0.3c0.1,0,0.1,0.1,0,0.1h-0.9c-0.1,0-0.1-0.1,0-0.1c0.2,0,0.3-0.1,0.3-0.3v-0.7h-0.6
	l-0.5,1.2h-0.6c-0.1,0-0.1-0.1,0-0.1c0.2,0,0.3-0.1,0.4-0.2L95.6,83.7L95.6,83.7z M96.5,82.9c0-0.2-0.1-0.3-0.3-0.3h-0.3
	c-0.2,0-0.3,0.1-0.4,0.2c-0.1,0.1-0.1,0.2-0.1,0.3c0,0.1,0,0.3,0.1,0.4c0.1,0.1,0.2,0.1,0.4,0.1h0.5V82.9z"/>
</svg>
