<?xml version="1.0" encoding="utf-8"?>
<!-- Generator: Adobe Illustrator 22.1.0, SVG Export Plug-In . SVG Version: 6.00 Build 0)  -->
<svg version="1.1" id="Слой_1" xmlns="http://www.w3.org/2000/svg" xmlns:xlink="http://www.w3.org/1999/xlink" x="0px" y="0px"
	 viewBox="0 0 173 37.6" style="enable-background:new 0 0 173 37.6;" xml:space="preserve">
<style type="text/css">
	.st0{fill:#BF0CEA;}
</style>
<path class="st0" d="M32.3,22.2l-2.1-7l0,9.6h0.4v0.2h-1v-0.2H30V13.9h-0.4v-0.2h1.7l1.6,5.7l1.9-5.7h1.4v0.2h-0.4l0,10.8h0.4v0.2
	H34v-0.2h0.5v-9.3L32.3,22.2z"/>
<path class="st0" d="M38.5,24.7c0.2,0,0.3-0.1,0.4-0.2c0.1-0.1,0.2-0.2,0.3-0.4s0.2-0.4,0.2-0.6c0.1-0.2,0.2-0.5,0.2-0.8l-2.5-8.8
	h-0.3v-0.2h2v0.2h-0.4l1.8,6.5l1.6-6.5h-0.3v-0.2h0.8v0.2h-0.3l-2.3,9c-0.1,0.3-0.2,0.6-0.3,0.8c-0.1,0.2-0.2,0.5-0.3,0.6
	c-0.1,0.2-0.2,0.3-0.4,0.4c-0.1,0.1-0.3,0.1-0.5,0.1c-0.3,0-0.5-0.1-0.7-0.2c-0.2-0.1-0.3-0.2-0.4-0.4c-0.1-0.1-0.1-0.3-0.1-0.5
	c0-0.2,0-0.3,0.1-0.4c0.1-0.1,0.1-0.2,0.3-0.2c0.1,0,0.3,0,0.4,0.1c0.2,0.1,0.3,0.2,0.3,0.3c0,0.1,0,0.2,0,0.3
	c0,0.1-0.1,0.2-0.2,0.3c-0.1,0.1-0.1,0.2-0.2,0.2s0,0.1,0,0.2S38.2,24.7,38.5,24.7z"/>
<path class="st0" d="M48.5,24.7h0.3v0.2h-2v-0.2h0.4v-5.6c-0.1,0-0.3,0-0.5,0s-0.4,0.1-0.5,0.2c-0.2,0.1-0.3,0.4-0.4,0.7
	c-0.1,0.3-0.2,0.8-0.2,1.5c0,0.5,0,1,0,1.4s-0.1,0.8-0.2,1.1c-0.1,0.3-0.3,0.5-0.6,0.7s-0.7,0.2-1.2,0.2v-0.2c0.2,0,0.4-0.1,0.5-0.2
	c0.1-0.1,0.2-0.3,0.2-0.6s0.1-0.6,0.1-1c0-0.4,0-0.8,0-1.4c0-0.5,0-0.9,0.1-1.2c0.1-0.3,0.2-0.6,0.4-0.9c0.2-0.2,0.5-0.4,0.8-0.5
	c0.3-0.1,0.7-0.2,1.2-0.2c-0.4,0-0.7-0.1-0.8-0.2s-0.3-0.3-0.3-0.6s-0.1-0.6-0.1-1c0-0.4-0.1-0.9-0.2-1.4c-0.1-0.3-0.1-0.6-0.2-0.7
	c-0.1-0.1-0.1-0.2-0.2-0.2c-0.1,0-0.2,0-0.2,0.1s-0.2,0.1-0.3,0.2c-0.1,0.1-0.2,0.1-0.3,0.1c-0.1,0-0.2-0.1-0.4-0.2
	c-0.1-0.1-0.2-0.3-0.1-0.4c0-0.1,0.1-0.3,0.2-0.4s0.2-0.1,0.4-0.2c0.2,0,0.3,0,0.5,0.1c0.2,0.1,0.3,0.3,0.5,0.5
	c0.1,0.3,0.3,0.6,0.4,1.1c0.1,0.6,0.2,1.1,0.2,1.6c0,0.4,0,0.7,0.1,1c0.1,0.3,0.2,0.4,0.4,0.5c0.2,0.1,0.5,0.2,1,0.2v-4.8h-0.4v-0.2
	h2v0.2h-0.3v4.8c0.5,0,0.8-0.1,1-0.2c0.2-0.1,0.3-0.3,0.4-0.5s0.1-0.6,0.1-1c0-0.4,0.1-0.9,0.2-1.6c0.1-0.4,0.2-0.8,0.3-1.1
	c0.2-0.3,0.3-0.4,0.5-0.5c0.2-0.1,0.3-0.1,0.5-0.1c0.2,0,0.3,0.1,0.4,0.2c0.1,0.1,0.2,0.2,0.2,0.4c0,0.1,0,0.3-0.1,0.4
	c-0.1,0.1-0.3,0.2-0.4,0.2c-0.1,0-0.2,0-0.3-0.1c-0.1-0.1-0.2-0.1-0.3-0.2s-0.2-0.1-0.2-0.1c-0.1,0-0.1,0.1-0.2,0.2
	s-0.1,0.4-0.2,0.7c-0.1,0.5-0.2,1-0.2,1.4s-0.1,0.8-0.1,1c-0.1,0.3-0.2,0.5-0.3,0.6c-0.2,0.1-0.5,0.2-0.9,0.2c0.5,0,0.9,0.1,1.2,0.2
	c0.3,0.1,0.6,0.3,0.8,0.5c0.2,0.2,0.3,0.5,0.4,0.9s0.1,0.8,0.1,1.2c0,0.5,0,1,0,1.4s0,0.7,0.1,1c0,0.3,0.1,0.5,0.2,0.6
	c0.1,0.1,0.3,0.2,0.5,0.2v0.2c-0.5,0-0.9-0.1-1.2-0.2c-0.3-0.1-0.5-0.4-0.6-0.7s-0.2-0.6-0.2-1.1c0-0.4,0-0.9,0-1.4
	c0-0.6-0.1-1.1-0.2-1.5c-0.1-0.3-0.3-0.6-0.4-0.7c-0.2-0.1-0.4-0.2-0.5-0.2c-0.2,0-0.4,0-0.5,0L48.5,24.7z"/>
<path class="st0" d="M55.3,24.7c0.4,0,0.6,0,0.7-0.1c0.1,0,0.2-0.1,0.2-0.2c0-0.1,0-0.2,0-0.2c0-0.1-0.1-0.2-0.1-0.3
	c0-0.1,0-0.2,0-0.3s0.1-0.2,0.3-0.3c0.1-0.1,0.3-0.1,0.4-0.1c0.1,0,0.2,0.1,0.3,0.2c0.1,0.1,0.1,0.3,0.1,0.4c0,0.2-0.1,0.3-0.2,0.5
	c-0.1,0.1-0.3,0.3-0.6,0.4s-0.6,0.2-1.1,0.2c-0.5,0-0.9-0.1-1.2-0.2c-0.3-0.1-0.5-0.3-0.6-0.5c-0.1-0.2-0.2-0.5-0.2-0.7
	c0-0.3,0-0.6,0-1c0-1.3,0-2.3,0-3.2s0-1.5,0-2v-1.3c0-0.3,0-0.5,0-0.8c0-0.3,0.1-0.5,0.2-0.8c0.1-0.2,0.3-0.4,0.6-0.6
	c0.3-0.2,0.7-0.2,1.2-0.2c0.5,0,0.8,0.1,1.1,0.2c0.3,0.1,0.5,0.2,0.6,0.4c0.1,0.1,0.2,0.3,0.2,0.5c0,0.2,0,0.3-0.1,0.4
	c-0.1,0.1-0.2,0.2-0.3,0.2c-0.1,0-0.3,0-0.4-0.1c-0.2-0.1-0.3-0.2-0.3-0.3c0-0.1,0-0.2,0-0.3c0-0.1,0.1-0.2,0.1-0.3
	c0-0.1,0.1-0.2,0-0.2c0-0.1-0.1-0.1-0.2-0.2s-0.4-0.1-0.7-0.1c-0.2,0-0.4,0.1-0.5,0.2s-0.2,0.3-0.2,0.5c-0.1,0.2-0.1,0.5-0.1,0.7
	c0,0.3,0,0.5,0,0.7v1.5c0,0.5,0,1.2,0,2c0,0.8,0,1.8,0,2.9c0,0.4,0,0.7,0,0.9c0,0.3,0,0.5,0.1,0.7s0.1,0.3,0.2,0.4
	C54.9,24.7,55.1,24.7,55.3,24.7z"/>
<path class="st0" d="M61.8,15.5c0.1-0.4,0.2-0.8,0.3-1.1c0.2-0.3,0.3-0.4,0.5-0.5c0.2-0.1,0.3-0.1,0.5-0.1c0.2,0,0.3,0.1,0.4,0.2
	c0.1,0.1,0.2,0.2,0.2,0.4c0,0.1,0,0.3-0.1,0.4c-0.1,0.1-0.3,0.2-0.4,0.2c-0.1,0-0.2,0-0.3-0.1c-0.1-0.1-0.2-0.1-0.3-0.2
	s-0.2-0.1-0.2-0.1c-0.1,0-0.1,0.1-0.2,0.2c-0.1,0.1-0.1,0.4-0.2,0.7c-0.1,0.5-0.2,1-0.2,1.4s0,0.8-0.1,1s-0.2,0.5-0.3,0.6
	c-0.2,0.1-0.5,0.2-0.9,0.2c0.5,0,0.9,0.1,1.2,0.2c0.3,0.1,0.6,0.3,0.8,0.5s0.3,0.5,0.4,0.9s0.1,0.8,0.1,1.2c0,0.5,0,1,0,1.4
	s0,0.7,0.1,1c0,0.3,0.1,0.5,0.2,0.6c0.1,0.1,0.3,0.2,0.5,0.2v0.2c-0.5,0-0.9-0.1-1.2-0.2c-0.3-0.1-0.5-0.4-0.6-0.7s-0.2-0.6-0.2-1.1
	c0-0.4,0-0.9,0-1.4c0-0.6-0.1-1.1-0.2-1.5c-0.1-0.3-0.3-0.6-0.4-0.7c-0.2-0.1-0.4-0.2-0.5-0.2c-0.2,0-0.4,0-0.5,0l0,5.6h0.3v0.2h-2
	v-0.2h0.4V13.9h-0.4v-0.2h2v0.2h-0.3v4.8c0.5,0,0.8-0.1,1-0.2c0.2-0.1,0.3-0.3,0.4-0.5c0.1-0.3,0.1-0.6,0.1-1
	C61.6,16.6,61.6,16.1,61.8,15.5z"/>
<path class="st0" d="M69.3,16.3c-0.1,0.4-0.3,0.8-0.4,1.1c-0.1,0.3-0.2,0.7-0.4,1.1c-0.1,0.4-0.3,0.8-0.4,1.3
	c-0.3,1-0.7,2.2-1.1,3.4v1.6h0.3v0.2h-2v-0.2h0.4V13.9h-0.4v-0.2h2v0.2H67l0,8.6c0.1-0.4,0.3-0.8,0.4-1.1c0.1-0.3,0.2-0.7,0.4-1.1
	c0.1-0.4,0.3-0.8,0.4-1.3c0.3-1,0.7-2.2,1.1-3.4v-1.7h-0.4v-0.2h2v0.2h-0.3l0,10.8h0.3v0.2h-2v-0.2h0.4V16.3z"/>
<path class="st0" d="M76.2,13.7v0.7H76v-0.5h-2l0,5.2c0-0.1,0-0.2,0.1-0.2s0.2-0.1,0.5-0.1h0.8v-0.3h0.2v0.8h-0.2V19h-0.8
	c-0.2,0-0.3,0.1-0.4,0.2C74,19.3,74,19.4,74,19.7v5.1h2v-0.5h0.2v0.7h-3.9v-0.2h0.4V13.9h-0.4v-0.2H76.2z"/>
<path class="st0" d="M82.5,24.7c0.2,0,0.3-0.1,0.4-0.2c0.1-0.1,0.2-0.2,0.3-0.4s0.2-0.4,0.2-0.6c0.1-0.2,0.2-0.5,0.2-0.8l-2.5-8.8
	h-0.3v-0.2h2v0.2h-0.4l1.8,6.5l1.6-6.5h-0.3v-0.2h0.8v0.2h-0.3l-2.3,9c-0.1,0.3-0.2,0.6-0.3,0.8c-0.1,0.2-0.2,0.5-0.3,0.6
	c-0.1,0.2-0.2,0.3-0.4,0.4c-0.1,0.1-0.3,0.1-0.5,0.1c-0.3,0-0.5-0.1-0.7-0.2c-0.2-0.1-0.3-0.2-0.4-0.4c-0.1-0.1-0.1-0.3-0.1-0.5
	c0-0.2,0-0.3,0.1-0.4c0.1-0.1,0.1-0.2,0.3-0.2c0.1,0,0.3,0,0.4,0.1c0.2,0.1,0.3,0.2,0.3,0.3c0,0.1,0,0.2,0,0.3
	c0,0.1-0.1,0.2-0.2,0.3c-0.1,0.1-0.1,0.2-0.2,0.2s0,0.1,0,0.2S82.3,24.7,82.5,24.7z"/>
<path class="st0" d="M91,15.5c0.1-0.4,0.2-0.8,0.3-1.1c0.2-0.3,0.3-0.4,0.5-0.5c0.2-0.1,0.3-0.1,0.5-0.1c0.2,0,0.3,0.1,0.4,0.2
	c0.1,0.1,0.2,0.2,0.2,0.4c0,0.1,0,0.3-0.1,0.4c-0.1,0.1-0.3,0.2-0.4,0.2c-0.1,0-0.2,0-0.3-0.1c-0.1-0.1-0.2-0.1-0.3-0.2
	s-0.2-0.1-0.2-0.1c-0.1,0-0.1,0.1-0.2,0.2c-0.1,0.1-0.1,0.4-0.2,0.7c-0.1,0.5-0.2,1-0.2,1.4s0,0.8-0.1,1s-0.2,0.5-0.3,0.6
	c-0.2,0.1-0.5,0.2-0.9,0.2c0.5,0,0.9,0.1,1.2,0.2c0.3,0.1,0.6,0.3,0.8,0.5s0.3,0.5,0.4,0.9s0.1,0.8,0.1,1.2c0,0.5,0,1,0,1.4
	s0,0.7,0.1,1c0,0.3,0.1,0.5,0.2,0.6c0.1,0.1,0.3,0.2,0.5,0.2v0.2c-0.5,0-0.9-0.1-1.2-0.2c-0.3-0.1-0.5-0.4-0.6-0.7s-0.2-0.6-0.2-1.1
	c0-0.4,0-0.9,0-1.4c0-0.6-0.1-1.1-0.2-1.5c-0.1-0.3-0.3-0.6-0.4-0.7c-0.2-0.1-0.4-0.2-0.5-0.2c-0.2,0-0.4,0-0.5,0l0,5.6h0.3v0.2h-2
	v-0.2h0.4V13.9h-0.4v-0.2h2v0.2h-0.3v4.8c0.5,0,0.8-0.1,1-0.2c0.2-0.1,0.3-0.3,0.4-0.5c0.1-0.3,0.1-0.6,0.1-1
	C90.8,16.6,90.9,16.1,91,15.5z"/>
<path class="st0" d="M96.3,13.7c0.5,0,0.9,0,1.3,0.1c0.4,0,0.6,0.2,0.8,0.4s0.4,0.6,0.4,1c0.1,0.5,0.1,1.1,0.1,2c0,1,0,1.7-0.1,2.3
	c0,0.5-0.1,0.9-0.3,1.2c-0.1,0.3-0.4,0.4-0.6,0.5c-0.3,0.1-0.7,0.1-1.2,0.1c-0.2,0-0.3,0.1-0.4,0.2c-0.1,0.1-0.1,0.3-0.1,0.5v2.9
	h0.3v0.2h-2v-0.2H95V13.9h-0.4v-0.2H96.3z M96.3,13.9l0,7.4c0-0.1,0-0.2,0.1-0.2c0.1-0.1,0.2-0.1,0.5-0.1c0.2,0,0.4,0,0.5-0.1
	c0.1-0.1,0.2-0.2,0.3-0.5c0.1-0.3,0.1-0.6,0.1-1.1c0-0.5,0-1.2,0-2.1c0-0.9,0-1.5-0.1-2c-0.1-0.4-0.2-0.8-0.3-1
	c-0.1-0.2-0.3-0.3-0.5-0.3C96.7,13.9,96.5,13.9,96.3,13.9z"/>
<path class="st0" d="M102.8,22.2h-1.3c-0.1,0-0.2,0-0.3,0c-0.1,0-0.2,0-0.3,0.1c-0.1,0-0.2,0.1-0.3,0.2c-0.1,0.1-0.1,0.2-0.1,0.3
	l-0.3,2h0.3v0.2c0,0-0.1,0-0.2,0c-0.1,0-0.2,0-0.3,0c-0.1,0-0.2,0-0.2,0s-0.1,0-0.1,0v-0.1h0.3c0,0,0-0.2,0.1-0.5
	c0-0.3,0.1-0.7,0.2-1.2c0.1-0.5,0.1-1.1,0.2-1.7c0.1-0.7,0.2-1.3,0.3-2c0.2-1.6,0.4-3.4,0.7-5.4H101v-0.2h1.7l2,11h0.3v0.2h-2.3
	v-0.2h0.4L102.8,22.2z M102.8,22l-1.2-7.5l-1.1,8c0-0.2,0.1-0.3,0.3-0.4s0.5-0.1,0.7-0.1H102.8z"/>
<path class="st0" d="M109.4,24.7V13.9H109v-0.2h2v0.2h-0.3l0,10.8h1.9V13.9h-0.4v-0.2h2.1v0.2h-0.4l0,10.8h0.4v0.2H106v-0.2h0.4
	V13.9H106v-0.2h2v0.2h-0.3l0,10.8H109.4z"/>
<path class="st0" d="M119.6,13.7v0.7h-0.2v-0.5h-2l0,5.2c0-0.1,0-0.2,0.1-0.2s0.2-0.1,0.5-0.1h0.8v-0.3h0.2v0.8h-0.2V19h-0.8
	c-0.2,0-0.3,0.1-0.4,0.2c-0.1,0.1-0.1,0.3-0.1,0.5v5.1h2v-0.5h0.2v0.7h-3.9v-0.2h0.4V13.9h-0.4v-0.2H119.6z"/>
<path class="st0" d="M124.5,19.6h-1.2c-0.1,0-0.2,0-0.3,0c-0.1,0-0.2,0-0.3,0.1c-0.1,0-0.2,0.1-0.3,0.2c-0.1,0.1-0.1,0.1-0.1,0.3
	v4.6h0.3v0.2h-2v-0.2h0.4V13.9h-0.4v-0.2h2v0.2h-0.3l0,5.8c0,0,0-0.1,0.1-0.1c0.1,0,0.1-0.1,0.3-0.1c0.1,0,0.2,0,0.3-0.1
	c0.1,0,0.2,0,0.4,0h1.1v-5.5h-0.4v-0.2h2v0.2h-0.3l0,10.8h0.3v0.2h-2v-0.2h0.4V19.6z"/>
<path class="st0" d="M131.3,16.3c-0.1,0.4-0.3,0.8-0.4,1.1c-0.1,0.3-0.2,0.7-0.4,1.1c-0.1,0.4-0.3,0.8-0.4,1.3
	c-0.3,1-0.7,2.2-1.1,3.4v1.6h0.3v0.2h-2v-0.2h0.4V13.9h-0.4v-0.2h2v0.2H129l0,8.6c0.1-0.4,0.3-0.8,0.4-1.1c0.1-0.3,0.2-0.7,0.4-1.1
	c0.1-0.4,0.3-0.8,0.4-1.3c0.3-1,0.7-2.2,1.1-3.4v-1.7h-0.4v-0.2h2v0.2h-0.3l0,10.8h0.3v0.2h-2v-0.2h0.4V16.3z"/>
<path class="st0" d="M139.3,13.7v0.2h-0.4v10.8h0.4v0.2h-2v-0.2h0.3l0-4.3c0-0.2,0-0.4-0.1-0.5c-0.1-0.1-0.2-0.2-0.4-0.2
	c-0.1,0-0.3,0-0.4,0c-0.1,0-0.2,0.1-0.3,0.2c-0.1,0.1-0.2,0.4-0.2,0.7c0,0.3-0.1,0.8-0.1,1.5c0,0.5,0,1,0,1.3c0,0.3-0.1,0.6-0.2,0.8
	c-0.1,0.2-0.3,0.4-0.6,0.4c-0.3,0.1-0.6,0.1-1.2,0.1v-0.2c0.2,0,0.3,0,0.4-0.1c0.1-0.1,0.1-0.2,0.2-0.4c0-0.2,0-0.4,0-0.8
	c0-0.3,0-0.7,0-1.2c0-0.5,0-0.8,0-1.2c0-0.3,0.1-0.6,0.2-0.8c0.1-0.2,0.3-0.3,0.5-0.4c0.2-0.1,0.6-0.1,1-0.2c-0.4,0-0.8-0.1-1-0.2
	c-0.2-0.1-0.4-0.3-0.5-0.5c-0.1-0.3-0.2-0.6-0.2-1c0-0.4,0-1,0-1.6c0-0.6,0-1.1,0.1-1.4c0.1-0.3,0.2-0.6,0.4-0.8
	c0.2-0.2,0.5-0.3,0.8-0.4c0.4-0.1,0.8-0.1,1.3-0.1H139.3z M137.6,13.9c-0.2,0-0.4,0-0.6,0.1c-0.2,0-0.3,0.1-0.5,0.3
	c-0.1,0.2-0.2,0.4-0.3,0.7c-0.1,0.3-0.1,0.8-0.1,1.3c0,0.8,0,1.4,0,1.8s0.1,0.7,0.1,1s0.1,0.3,0.3,0.4c0.1,0,0.3,0,0.5,0
	c0.2,0,0.4,0,0.5,0.1c0.1,0,0.1,0.1,0.1,0.2V13.9z"/>
</svg>
