<svg id="Слой_1" data-name="Слой 1" xmlns="http://www.w3.org/2000/svg" xmlns:xlink="http://www.w3.org/1999/xlink" viewBox="0 0 64.35 57.1"><defs><style>.cls-1,.cls-2,.cls-3{fill-rule:evenodd;}.cls-1{fill:url(#linear-gradient);}.cls-2{fill:url(#linear-gradient-2);}.cls-3{fill:url(#linear-gradient-3);}</style><linearGradient id="linear-gradient" x1="43.93" y1="59.01" x2="64.63" y2="14.62" gradientUnits="userSpaceOnUse"><stop offset="0" stop-color="#613013"/><stop offset="0.22" stop-color="#a47a2b"/><stop offset="0.4" stop-color="#e0d287"/><stop offset="0.45" stop-color="#f2eda2"/><stop offset="0.52" stop-color="#f7f2b2"/><stop offset="0.62" stop-color="#dfcc85"/><stop offset="0.78" stop-color="#c5a666"/><stop offset="0.83" stop-color="#bd9c5d"/><stop offset="0.9" stop-color="#a98246"/><stop offset="1" stop-color="#76461b"/></linearGradient><linearGradient id="linear-gradient-2" x1="41.48" y1="75.07" x2="57.49" y2="40.74" xlink:href="#linear-gradient"/><linearGradient id="linear-gradient-3" x1="43.88" y1="79.93" x2="55.97" y2="54" xlink:href="#linear-gradient"/></defs><title>logo intiamor</title><path class="cls-1" d="M55.53,27.37a15.12,15.12,0,0,0,1.93-2.45,11.91,11.91,0,0,1-1.8,1.55c-.39.13-1.55-.52-2.64-2a10.61,10.61,0,0,1-1.55-3.09,6.25,6.25,0,0,0,2.06.77c1.42.32,2.84.26,4.58.52a3.78,3.78,0,0,1,2.58,1.8A4.15,4.15,0,0,0,59,21.64c-1.49-.84-5.48-.46-7.29-2.07a4.1,4.1,0,0,1-1-4.06c-.9.58-1.29,5.48.39,8.06s4.19,3.87,4.51,3.8ZM49.21,13.21A9.77,9.77,0,0,1,62.6,14.75,11.71,11.71,0,0,1,64.81,24,4.78,4.78,0,0,1,64,25.82c-1.09-1-2-1.33-2.77-1A5.22,5.22,0,0,0,59.91,22c-1.09-1.09-3.22-1.29-4.44-1.48S52,19.7,51.21,18.41A6.17,6.17,0,0,1,50.76,15s-1.22.83-1.35,3.54a9.86,9.86,0,0,0,2.32,6.77,12.57,12.57,0,0,0,3.48,2.58,5.61,5.61,0,0,1-2.19.9,3.43,3.43,0,0,1-1.68-.32,10.44,10.44,0,0,0-.58,4.06,3.75,3.75,0,0,0,2.13,2.77l.45.13a10.35,10.35,0,0,0,.13,2.45c.24,1.12.39,1.63.24,2.07-.23.69-1.1.22-1.1.22s-1.23-2.68-5.48-6.29-7.46-3.29-8.75-3A6.13,6.13,0,0,0,36.06,32a5.9,5.9,0,0,1-1.28-4.32C35,25,37.35,24.54,39,25.05a2,2,0,0,1,.58,3.55A2.13,2.13,0,0,1,37,28.08l-.2-.32s1.23.64,1.87-.32-.32-2.52-2-1.81S35.1,29.18,36.52,30s3.8.64,5.54-2.19S44,17.15,49.21,13.21ZM47,34.53c-3.74-3.1-7.35-4.26-10.25-2.39C34.57,33.52,28.52,41.23,25,44.26S18.6,47.1,18.6,47.1s1.17,1.33,4.72,0C30.41,43.26,34,33,39.32,32.53c3.61-.58,8.73,3.41,11,6.44a43,43,0,0,1,3.93,5S50.7,37.62,47,34.53ZM39.8,37.88a17.85,17.85,0,0,0,.91,5.41,11.64,11.64,0,0,0,2.77,4.64h2.9s-5.29-4.19-6.58-10Zm20.11,3.87a15.13,15.13,0,0,1-5.48,6h3S62.94,41.62,62.68,34a28.94,28.94,0,0,1-2.77,7.74Zm1.81-16.57c2.25,0,5.15,6.06,6.83,8.19,5.17,6.56,9.2,4.87,11.86,13.66,0,0-2.76-5.46-5.85-7C64.77,34.56,65.05,28,62,26.63c-1.49-.64-3.56,2.1-3.56,2.1s1-3.55,3.29-3.55ZM54.43,36.59a8,8,0,0,0-.19,2.51,5,5,0,0,1-.51-1.87,10.23,10.23,0,0,1,.12-2.12,3.44,3.44,0,0,1-2.51-1.94c-.58-1.61.26-4.06.26-4.06a5,5,0,0,0,3.22-.45,6.51,6.51,0,0,0,3-2.64,5.41,5.41,0,0,1-1.68,2.83,6.39,6.39,0,0,1-2.9,1.55,3,3,0,0,0,.33,2.32,3.39,3.39,0,0,0,2.19,1.1A15.6,15.6,0,0,0,54.43,36.59Z" transform="translate(-17.65 -11.25)"/><path class="cls-2" d="M17.65,51.17V51H20v.22h-.39l0,12.56H20V64H17.65v-.22h.47V51.17ZM28.18,64q-1-2.46-1.82-4.49-.36-.85-.69-1.71l-.61-1.56c-.19-.47-.34-.88-.47-1.22a5.82,5.82,0,0,1-.22-.68v9.44h.37V64H23.55v-.22H24V51.17h-.47V51h1.19l3.9,9.86V51.17h-.46V51h1.19v.22H29v8.65c0,.76,0,1.45,0,2V64Zm9.93-13v.91h-.24v-.69H36V63.73h.38V64H34.06v-.22h.46V51.17H32.78v.69h-.25V51Zm3.31.22V51h2.36v.22h-.39l0,12.56h.37V64H41.42v-.22h.47V51.17Zm8.93,9.4L49,51.86l-1.24,9.29c0-.19.12-.33.38-.43a2.23,2.23,0,0,1,.83-.15Zm0,.19H48.9l-.36,0a1.14,1.14,0,0,0-.37.11.84.84,0,0,0-.3.22.59.59,0,0,0-.14.36l-.3,2.29h.32V64H47c-.08,0-.12,0-.12,0v-.17h.3s0-.2.07-.57.11-.84.2-1.43.17-1.26.26-2,.2-1.53.3-2.31c.24-1.84.5-3.94.8-6.28h-.46V51h2l2.33,12.82H53V64H50.35v-.18h.46l-.42-3Zm9,0-2.41-8.16L57,63.73h.43V64H56.21v-.22h.47V51.17h-.47V51h2l1.9,6.65L62.23,51h1.62v.22h-.47l0,12.56h.45V64H61.34v-.22h.54V52.94l-2.53,7.8Zm8.26.43c0-1.49,0-2.71,0-3.66s0-1.71,0-2.27v-1.5c0-.3,0-.61,0-.94a2.09,2.09,0,0,1,.26-.9,1.62,1.62,0,0,1,.71-.68A2.93,2.93,0,0,1,70,51a3.48,3.48,0,0,1,1.4.23,1.63,1.63,0,0,1,.72.61,1.86,1.86,0,0,1,.27.89,9.15,9.15,0,0,1,0,1.06c0,.94,0,1.76,0,2.48s0,1.33,0,1.85,0,1,0,1.33,0,.65,0,.88a7.3,7.3,0,0,0,0,.89c0,.47,0,.88,0,1.22a1.86,1.86,0,0,1-.27.87,1.41,1.41,0,0,1-.73.52A4.53,4.53,0,0,1,70,64a4.25,4.25,0,0,1-1.39-.17,1.33,1.33,0,0,1-.71-.53,1.82,1.82,0,0,1-.26-.87c0-.34,0-.74,0-1.21Zm1.43,0c0,.41,0,.77,0,1.08a3.41,3.41,0,0,0,.1.8,1,1,0,0,0,.28.5.81.81,0,0,0,.57.18.77.77,0,0,0,.54-.18,1,1,0,0,0,.29-.5,3,3,0,0,0,.1-.8c0-.31,0-.67,0-1.08V59.9c0-.52,0-1.26,0-2.23s0-2.29,0-3.93c0-.33,0-.64,0-.94a4.65,4.65,0,0,0-.11-.82,1.21,1.21,0,0,0-.28-.58.65.65,0,0,0-.52-.23.7.7,0,0,0-.57.25,1.64,1.64,0,0,0-.28.64,4.19,4.19,0,0,0-.1.83c0,.3,0,.59,0,.85v1.78c0,.61,0,1.38,0,2.31s0,2.05,0,3.34ZM79,57.86a4,4,0,0,1,1.18.2,1.07,1.07,0,0,1,.61.51,2.09,2.09,0,0,1,.23.91c0,.37,0,.82,0,1.35s0,1.08,0,1.45a5.59,5.59,0,0,0,0,.88.63.63,0,0,0,.2.44.85.85,0,0,0,.52.11V64a4.61,4.61,0,0,1-1.35-.14,1,1,0,0,1-.64-.5,2.14,2.14,0,0,1-.19-1V60.83a14.65,14.65,0,0,0-.07-1.7,2.33,2.33,0,0,0-.23-.84A.54.54,0,0,0,78.9,58a3.19,3.19,0,0,0-.45,0,.53.53,0,0,0-.47.19.87.87,0,0,0-.14.56v5h.38V64H75.87v-.24h.46V51.17h-.46V51h2v7.1A.31.31,0,0,1,78,57.8a1.14,1.14,0,0,1,.54-.09,2.79,2.79,0,0,0,.57-.05c.14,0,.25-.18.32-.41a5.79,5.79,0,0,0,.13-1.11c0-.5,0-1.21,0-2.14a7,7,0,0,0-.13-1.55,1.92,1.92,0,0,0-.37-.85,1,1,0,0,0-.56-.35,2.84,2.84,0,0,0-.66-.08V51a10.58,10.58,0,0,1,1.5.09,1.91,1.91,0,0,1,1,.41,1.83,1.83,0,0,1,.52.92A7,7,0,0,1,81,54c0,.74,0,1.36,0,1.85A3.28,3.28,0,0,1,80.72,57a1.14,1.14,0,0,1-.61.63A2.8,2.8,0,0,1,79,57.86Z" transform="translate(-17.65 -11.25)"/><path class="cls-3" d="M18.33,67.45v.06a.19.19,0,0,0,.21.21s0,.06,0,.09h-.65q-.08,0,0-.09a.19.19,0,0,0,.21-.21v-1.1a.19.19,0,0,0-.21-.21c-.05,0-.05,0,0-.08h.65s0,.06,0,.08a.19.19,0,0,0-.21.21v.76c0,.1,0,.12.1,0l.72-.72v-.09a.18.18,0,0,0-.2-.21c-.05,0-.05,0,0-.08h.64c.05,0,.05.06,0,.08a.18.18,0,0,0-.2.21v1.1a.18.18,0,0,0,.2.21q.07,0,0,.09H19q-.07,0,0-.09a.18.18,0,0,0,.2-.21v-.73c0-.1,0-.12-.1,0l-.72.72Zm4.82.06a.18.18,0,0,0,.2.21s0,.06,0,.09h-.64q-.08,0,0-.09a.18.18,0,0,0,.2-.21V67c0-.05,0-.07-.07-.07h-.68c-.05,0-.07,0-.07.09v.48a.19.19,0,0,0,.21.21s0,.06,0,.09h-.65s0-.06,0-.09a.19.19,0,0,0,.21-.21v-1.1a.19.19,0,0,0-.21-.21s0,0,0-.08h.65s0,.06,0,.08a.19.19,0,0,0-.21.21v.35a.08.08,0,0,0,.09.09h.66c.05,0,.07,0,.07-.07v-.37a.18.18,0,0,0-.2-.21c-.05,0-.05,0,0-.08h.64s0,.06,0,.08a.18.18,0,0,0-.2.21v1.1Zm3-1.14a.2.2,0,0,0,0-.14.13.13,0,0,0-.1,0,.46.46,0,0,0-.25.12,1,1,0,0,0-.21.21c-.05,0-.07,0-.07,0l.14-.38h1.3l.14.38s0,.06-.07,0a1,1,0,0,0-.21-.21.47.47,0,0,0-.24-.12.16.16,0,0,0-.11,0,.2.2,0,0,0,0,.14v1.14a.18.18,0,0,0,.2.21q.08,0,0,.09h-.64q-.07,0,0-.09a.18.18,0,0,0,.2-.21V66.37Zm3.47,1.08v.06a.19.19,0,0,0,.21.21s0,.06,0,.09h-.65q-.08,0,0-.09c.14,0,.2-.07.2-.21v-1.1c0-.14-.06-.21-.2-.21s-.05,0,0-.08h.65s0,.06,0,.08a.19.19,0,0,0-.21.21v.76c0,.1,0,.12.1,0l.72-.72v-.09a.18.18,0,0,0-.2-.21c-.05,0-.05,0,0-.08h.64c.05,0,.05.06,0,.08a.18.18,0,0,0-.2.21v1.1a.18.18,0,0,0,.2.21q.07,0,0,.09h-.64q-.07,0,0-.09a.18.18,0,0,0,.2-.21v-.73c0-.1,0-.12-.1,0l-.72.72Zm5.18-1.33c.05,0,.05.06,0,.08a.19.19,0,0,0-.2.21v1.1a.18.18,0,0,0,.2.21q.08,0,0,.09h-.64s0-.06,0-.09a.18.18,0,0,0,.2-.21v-1c0-.13,0-.13-.1,0l-.53,1.33a0,0,0,0,1-.06,0l-.51-1.3s-.06,0-.09,0v1a.19.19,0,0,0,.21.21s0,.06,0,.09h-.5q-.08,0,0-.09a.18.18,0,0,0,.2-.21v-1.1a.18.18,0,0,0-.2-.21c-.05,0-.05,0,0-.08h.48l.47,1.17q0,.09.09,0l.47-1.17Zm3.4,1.39a.18.18,0,0,0,.2.21s0,.06,0,.09h-.64s0-.06,0-.09a.18.18,0,0,0,.2-.21V67c0-.05,0-.07-.07-.07H37.2c-.05,0-.07,0-.07.09v.48a.18.18,0,0,0,.2.21q.08,0,0,.09h-.64s0-.06,0-.09.2-.07.2-.21v-1.1c0-.14-.06-.21-.2-.21s0,0,0-.08h.64c.05,0,.05.06,0,.08a.18.18,0,0,0-.2.21v.35a.08.08,0,0,0,.09.09h.66s.07,0,.07-.07v-.37a.18.18,0,0,0-.2-.21s0,0,0-.08h.64s0,.06,0,.08a.18.18,0,0,0-.2.21v1.1Zm3.34-.7a1.61,1.61,0,0,0-.57.32.42.42,0,0,0-.13.31.3.3,0,0,0,.06.22.23.23,0,0,0,.17.07,1,1,0,0,0,.47-.23v-.69Zm0,.78a1,1,0,0,1-.55.27.44.44,0,0,1-.33-.11.36.36,0,0,1-.1-.27.53.53,0,0,1,.19-.38,2.27,2.27,0,0,1,.79-.38v-.27a.31.31,0,0,0-.08-.23.27.27,0,0,0-.19-.06.41.41,0,0,0-.3.13.29.29,0,0,0-.06.21.14.14,0,0,1-.16.16c-.08,0-.12,0-.12-.16a.41.41,0,0,1,.15-.27.7.7,0,0,1,.49-.16.61.61,0,0,1,.41.13.33.33,0,0,1,.1.24v1.07a.19.19,0,0,0,.21.21s0,.06,0,.09h-.45v-.22ZM44.77,67a.43.43,0,0,1-.28-.13.42.42,0,0,1-.14-.29.37.37,0,0,1,.12-.27.87.87,0,0,1,.59-.17h.78s0,.06,0,.08a.19.19,0,0,0-.21.21v1.1a.19.19,0,0,0,.21.21s0,.06,0,.09h-.65s0-.06,0-.09a.19.19,0,0,0,.21-.21V67H45l-.36.81h-.39q-.08,0,0-.09a.32.32,0,0,0,.26-.16l.27-.58Zm.63-.57a.19.19,0,0,0-.21-.21H45a.41.41,0,0,0-.3.12.33.33,0,0,0-.1.24.35.35,0,0,0,.1.25.4.4,0,0,0,.3.1h.38v-.5Zm5.08.06a.8.8,0,0,1,.15-.21.66.66,0,0,1,.48-.19.75.75,0,0,1,.57.24.86.86,0,0,1,.24.66.89.89,0,0,1-.24.66.74.74,0,0,1-.57.23.75.75,0,0,1-.57-.23,1.13,1.13,0,0,1-.24-.82,1.43,1.43,0,0,1,.33-1.06,1,1,0,0,1,.76-.29.61.61,0,0,0,.53-.21s.06,0,0,.07a.52.52,0,0,1-.12.19.93.93,0,0,1-.69.2.7.7,0,0,0-.5.23.75.75,0,0,0-.23.53q0,.12.06,0Zm.63-.31a.52.52,0,0,0-.38.18.87.87,0,0,0-.16.63.9.9,0,0,0,.16.63.49.49,0,0,0,.76,0,.9.9,0,0,0,.16-.63.87.87,0,0,0-.16-.63.52.52,0,0,0-.38-.18Zm3.35,1.29v.06a.18.18,0,0,0,.2.21q.08,0,0,.09H54q-.08,0,0-.09c.14,0,.2-.07.2-.21v-1.1c0-.14-.06-.21-.2-.21s-.05,0,0-.08h.64c.05,0,.05.06,0,.08a.18.18,0,0,0-.2.21v.76c0,.1,0,.12.1,0l.72-.72v-.09a.18.18,0,0,0-.2-.21s0,0,0-.08h.64c.05,0,.05.06,0,.08a.18.18,0,0,0-.2.21v1.1a.18.18,0,0,0,.2.21q.08,0,0,.09h-.64s0-.06,0-.09a.18.18,0,0,0,.2-.21v-.73c0-.1,0-.12-.1,0l-.72.72Zm3.83-1.25s0,0,0-.08H59s0,.06,0,.08-.19.07-.19.21v.46h.16a.41.41,0,0,0,.39-.25,3.48,3.48,0,0,0,.13-.34.35.35,0,0,1,.1-.15.25.25,0,0,1,.19-.07.14.14,0,0,1,.16.16.13.13,0,0,1,0,.1.14.14,0,0,1-.1.05l-.06,0h-.07a.12.12,0,0,0-.1.06.7.7,0,0,0-.12.2.6.6,0,0,1-.16.22s0,.05,0,.07l.43.61c.1.13.19.21.29.22s0,.06,0,.09h-.66s0-.06,0-.09a.2.2,0,0,0,.15-.06s0-.08,0-.15L59,67s0,0-.09,0h-.19v.56a.19.19,0,0,0,.19.21s0,.06,0,.09h-.66s0-.06,0-.09a.18.18,0,0,0,.19-.21V67h-.19s-.08,0-.09,0l-.36.53q-.08.1,0,.15a.2.2,0,0,0,.14.06s0,.06,0,.09h-.66s0-.06,0-.09a.49.49,0,0,0,.3-.22l.42-.61a0,0,0,0,0,0-.07.6.6,0,0,1-.16-.22.7.7,0,0,0-.12-.2.12.12,0,0,0-.1-.06h-.08l-.06,0a.14.14,0,0,1-.1-.05.13.13,0,0,1,0-.1.17.17,0,0,1,0-.12.14.14,0,0,1,.11,0,.24.24,0,0,1,.19.07.4.4,0,0,1,.11.15,2,2,0,0,0,.13.34.41.41,0,0,0,.38.25h.16v-.46c0-.14-.06-.21-.19-.21Zm4.17,1.65a.68.68,0,0,1-.64.5c-.23,0-.34-.07-.34-.21a.13.13,0,0,1,0-.1.16.16,0,0,1,.12,0,.23.23,0,0,1,.16.08.29.29,0,0,0,.19.08c.17,0,.3-.12.38-.37l-.61-1.38a.28.28,0,0,0-.24-.21s0,0,0-.08h.6s0,.06,0,.08-.14.09-.11.2l.42,1s.06,0,.09,0l.38-1c0-.14,0-.22-.13-.24s0,0,0-.08h.47s0,.06,0,.08-.17.1-.23.27l-.55,1.38ZM66,66.37a.2.2,0,0,0,0-.14.16.16,0,0,0-.11,0,.47.47,0,0,0-.24.12,1,1,0,0,0-.21.21c-.05,0-.07,0-.07,0l.14-.38h1.3l.14.38s0,.06-.07,0a1,1,0,0,0-.21-.21.46.46,0,0,0-.25-.12.13.13,0,0,0-.1,0,.2.2,0,0,0,0,.14v1.14a.18.18,0,0,0,.2.21s0,.06,0,.09h-.64s0-.06,0-.09a.18.18,0,0,0,.2-.21V66.37Zm3.42.48a1,1,0,0,0,.22.71.63.63,0,0,0,.43.19.69.69,0,0,0,.47-.18c.05,0,.06,0,0,0a.74.74,0,0,1-.58.25.78.78,0,0,1-.59-.23,1,1,0,0,1-.28-.72.82.82,0,0,1,.25-.63.66.66,0,0,1,.48-.21.74.74,0,0,1,.55.21.75.75,0,0,1,.2.57Zm.8-.09c.07,0,.1,0,.1-.11a.5.5,0,0,0-.16-.37.38.38,0,0,0-.28-.12.37.37,0,0,0-.27.12.6.6,0,0,0-.19.41s0,.07.11.07Zm3.15-.57a.65.65,0,0,1,.37-.12.7.7,0,0,1,.52.21.89.89,0,0,1,.2.64,1,1,0,0,1-.28.75.58.58,0,0,1-.44.19.64.64,0,0,1-.37-.1c-.05,0-.08,0-.08.06v.28c0,.11.06.16.19.16s0,.06,0,.09h-.62s0-.06,0-.09.19-.05.19-.16V66.45s-.06-.09-.17-.13-.06-.06,0-.09a.44.44,0,0,0,.33-.23s.07,0,.08,0v.13s0,.06.08,0Zm-.08,1.4a.64.64,0,0,0,.42.19.37.37,0,0,0,.27-.12,1.05,1.05,0,0,0,.22-.74.78.78,0,0,0-.18-.57.45.45,0,0,0-.73.06v1.18Zm3.7-.14v.06a.18.18,0,0,0,.2.21s0,.06,0,.09h-.64s0-.06,0-.09a.18.18,0,0,0,.2-.21v-1.1a.18.18,0,0,0-.2-.21s0,0,0-.08h.64s0,.06,0,.08a.18.18,0,0,0-.2.21v.76c0,.1,0,.12.1,0l.72-.72v-.09a.19.19,0,0,0-.21-.21s0,0,0-.08h.65s0,.06,0,.08a.19.19,0,0,0-.21.21v1.1a.19.19,0,0,0,.21.21s0,.06,0,.09h-.65s0-.06,0-.09a.19.19,0,0,0,.21-.21v-.73c0-.1,0-.12-.1,0l-.72.72ZM80.89,67a.41.41,0,0,1-.27-.13.42.42,0,0,1-.14-.29.37.37,0,0,1,.12-.27.85.85,0,0,1,.59-.17H82s0,.06,0,.08a.19.19,0,0,0-.21.21v1.1a.19.19,0,0,0,.21.21s0,.06,0,.09h-.65s0-.06,0-.09a.19.19,0,0,0,.21-.21V67h-.41l-.36.81h-.39q-.08,0,0-.09a.32.32,0,0,0,.26-.16l.26-.58Zm.64-.57a.19.19,0,0,0-.21-.21h-.18a.4.4,0,0,0-.29.12.33.33,0,0,0-.1.24.35.35,0,0,0,.1.25.39.39,0,0,0,.29.1h.39Z" transform="translate(-17.65 -11.25)"/></svg>