<svg id="Слой_1" data-name="Слой 1" xmlns="http://www.w3.org/2000/svg" xmlns:xlink="http://www.w3.org/1999/xlink" viewBox="0 0 29.1 17.48"><defs><style>.cls-1{fill:none;}.cls-2{clip-path:url(#clip-path);}.cls-3{fill:#003876;}.cls-4{fill:#fff;fill-rule:evenodd;}.cls-5{fill:#ca202b;}</style><clipPath id="clip-path" transform="translate(-34.11 -34.32)"><path class="cls-1" d="M45.78,34.45h5.33a6,6,0,0,1,6,6v5.33a6,6,0,0,1-6,6H45.78a6,6,0,0,1-6-6V40.45A6,6,0,0,1,45.78,34.45Z"/></clipPath></defs><title>брит</title><g class="cls-2"><g id="australia"><rect class="cls-3" x="1.38" width="26.5" height="17.47"/><polygon class="cls-4" points="27.88 0 27.41 0 17.37 5.01 17.37 0 11.51 0 11.51 5.01 1.47 0 1.38 0 1.38 4.24 4.28 5.7 1.38 5.7 1.38 11.59 4.28 11.59 1.38 13.05 1.38 17.34 11.51 12.28 11.51 17.48 17.37 17.48 17.37 12.28 27.79 17.48 27.88 17.48 27.88 13.24 24.6 11.59 27.88 11.59 27.88 5.7 24.6 5.7 27.88 4.06 27.88 0"/><polygon class="cls-5" points="2.49 2.08 2.49 3.5 6.89 5.7 9.73 5.7 2.49 2.08"/><polygon class="cls-5" points="0 16.62 10.03 11.59 7.22 11.59 0 15.21 0 16.62"/><polygon class="cls-5" points="16.2 0 12.76 0 12.76 6.92 1.38 6.92 1.38 10.38 12.76 10.38 12.76 17.48 16.2 17.48 16.2 10.38 27.88 10.38 27.88 6.92 16.2 6.92 16.2 0"/><polygon class="cls-5" points="19.25 11.59 26.78 15.38 26.78 13.97 22.07 11.59 19.25 11.59"/><polygon class="cls-5" points="21.58 5.7 29.1 1.92 29.1 0.53 18.77 5.7 21.58 5.7"/><path class="cls-5" d="M64.09,34.45" transform="translate(-34.11 -34.32)"/></g></g></svg>